<?xml version="1.0" encoding="UTF-8" standalone="no"?>
<!-- Created with Inkscape (http://www.inkscape.org/) -->

<svg
   xmlns:dc="http://purl.org/dc/elements/1.1/"
   xmlns:cc="http://creativecommons.org/ns#"
   xmlns:rdf="http://www.w3.org/1999/02/22-rdf-syntax-ns#"
   xmlns:svg="http://www.w3.org/2000/svg"
   xmlns="http://www.w3.org/2000/svg"
   xmlns:sodipodi="http://sodipodi.sourceforge.net/DTD/sodipodi-0.dtd"
   xmlns:inkscape="http://www.inkscape.org/namespaces/inkscape"
   width="744.09448819"
   height="1052.3622047"
   id="svg3103"
   version="1.1"
   inkscape:version="0.48.4 r9939"
   sodipodi:docname="bell.svg">
  <defs
     id="defs3105" />
  <sodipodi:namedview
     id="base"
     pagecolor="#ffffff"
     bordercolor="#666666"
     borderopacity="1.0"
     inkscape:pageopacity="0.0"
     inkscape:pageshadow="2"
     inkscape:zoom="0.70710678"
     inkscape:cx="482.58442"
     inkscape:cy="507.34178"
     inkscape:document-units="px"
     inkscape:current-layer="layer1"
     showgrid="false"
     showguides="true"
     inkscape:guide-bbox="true"
     inkscape:window-width="1024"
     inkscape:window-height="720"
     inkscape:window-x="0"
     inkscape:window-y="0"
     inkscape:window-maximized="1" />
  <metadata
     id="metadata3108">
    <rdf:RDF>
      <cc:Work
         rdf:about="">
        <dc:format>image/svg+xml</dc:format>
        <dc:type
           rdf:resource="http://purl.org/dc/dcmitype/StillImage" />
        <dc:title />
      </cc:Work>
    </rdf:RDF>
  </metadata>
  <g
     inkscape:label="Layer 1"
     inkscape:groupmode="layer"
     id="layer1">
    <path
       style="fill:none;stroke:#000000;stroke-width:1px;stroke-linecap:butt;stroke-linejoin:miter;stroke-opacity:1"
       d="m 232.41071,620.66575 c -4.61758,-2.62477 -9.34388,-9.42471 -10.17715,-12.39188 -1.29107,-4.59734 -1.32555,-5.56959 3.63171,-4.81037 2.56835,0.39335 7.67232,1.37682 7.67232,1.37682 45.87918,14.15124 180.70146,22.4321 282.1767,-4.08528 2.6205,-0.68479 7.86895,-3.4067 7.94642,1.69642 0,0 -0.48465,7.90072 -1.25634,10.62872 -1.27251,4.49849 -4.17979,7.41922 -18.29723,11.42486 -92.41979,26.22292 -248.53413,9.32682 -271.69643,-3.83929 z"
       id="path3946"
       inkscape:connector-curvature="0"
       sodipodi:nodetypes="ssscscsss" />
    <path
       style="fill:none;stroke:#000000;stroke-width:1px;stroke-linecap:butt;stroke-linejoin:miter;stroke-opacity:1"
       d="m 283.03571,441.6479 c 27.04838,8.53525 96.10684,21.40663 179.11806,7.28075 -7.00282,104.75646 49.15918,107.95353 57.13195,142.54067 -65.73441,22.94667 -198.41893,32.52059 -297.62037,2.91495 5.30953,-43.78829 65.93969,-43.32862 61.37036,-152.73637 z"
       id="path3948"
       inkscape:connector-curvature="0"
       sodipodi:nodetypes="ccccc" />
    <path
       style="fill:none;stroke:#000000;stroke-width:1px;stroke-linecap:butt;stroke-linejoin:miter;stroke-opacity:1"
       d="m 282.5,435.93361 c 31.50351,14.11283 120.23587,21.83688 179.28572,7.5 0.26432,-5.54674 0.83367,-11.34767 -2.81382,-13.63456 -87.46789,17.28846 -130.7682,7.53554 -172.54333,-3.15115 -3.50159,0.0454 -4.03059,6.51114 -3.92857,9.28571 z"
       id="path3950"
       inkscape:connector-curvature="0"
       sodipodi:nodetypes="ccccc" />
    <path
       style="fill:none;stroke:#000000;stroke-width:1px;stroke-linecap:butt;stroke-linejoin:miter;stroke-opacity:1"
       d="m 454.64286,424.86218 c 0,0 -8.43077,-8.43748 -13.92857,-10 -3.32876,-0.94606 -6.75209,-0.11432 -10.35715,0.71429 -14.58704,3.35278 -94.73989,11.17722 -122.26726,-1.86865 -3.41491,-1.61841 -8.03376,-1.03127 -11.30417,0.86221 -3.34166,1.93473 -6.40534,4.62124 -7.4152,7.26913 26.99437,9.96592 103.54454,18.79684 165.27235,3.02302 z"
       id="path3952"
       inkscape:connector-curvature="0"
       sodipodi:nodetypes="cassscc" />
    <path
       style="fill:none;stroke:#000000;stroke-width:1;stroke-linecap:butt;stroke-linejoin:miter;stroke-miterlimit:4;stroke-opacity:1;stroke-dasharray:none"
       d="m 307.85714,410.21932 c 27.38189,12.50512 93.06799,7.8712 120.44644,2.67858 5.43266,-1.03036 0.80418,-2.62716 -0.12528,-2.98111 -6.75373,-2.57193 -16.44328,-4.53934 -16.65326,-2.38232 -0.20065,2.06125 -4.37464,6.94335 -7.95361,3.75628 -1.71903,-1.53079 -11.33231,0.66017 -4.81964,-3.74821 6.45691,-4.37062 5.75878,3.98226 9.10535,1.24821 0.26731,-4.14111 -3.57608,-0.54126 -2.85714,-8.75 0.17245,-1.96904 -0.90883,-3.84809 -1.29561,-5.78645 -4.36392,-21.86958 -5.18251,-39.53757 -29.36551,-36.31939 l 0.0424,-3.16829 c 2.56786,-2.25245 4.64839,-2.06819 6.51158,-0.7973 3.99246,0.7727 2.69744,-2.26339 3.76288,-3.51097 1.06298,-1.24469 4.36358,-2.90746 4.09426,-5.06045 -0.3003,-2.40067 -4.38073,-4.78879 -5.53571,-0.35715 -0.20252,0.77708 -0.2025,7.54057 -3.92857,2.67857 -1.38683,-1.80961 -3.11573,-1.99214 -2.67858,0.89286 0.31827,2.10043 -3.35218,2.97005 -5.71428,1.25 -0.8671,-1.89308 -2.69947,-4.12054 -4.88835,-4.2256 -1.76568,-0.0847 -4.42169,-0.98065 -2.79022,1.36846 -0.11857,1.11524 1.74137,3.52412 -4.10715,0.89286 -2.14898,-2.05243 -4.09846,-5.58334 -5.71428,-3.75 -2.38041,2.75227 2.46018,4.37861 4.10714,6.25 2.55453,2.90263 9.34265,0.70942 9.82143,3.75 0.26706,1.69603 -1.31267,3.12289 -4.28571,2.85714 -4.0924,-0.36581 -3.7191,0.56424 -3.39286,-1.78572 0.14082,-1.01436 -1.49946,-1.56737 -2.5,-1.78571 -1.38648,-0.30255 -1.94135,0.30561 -1.88128,1.07502 0.0724,0.9276 -0.45059,3.33648 -1.32762,3.64725 -8.79962,3.11809 -12.64235,12.68098 -12.59557,21.53311 0.0548,10.35972 -4.20905,25.11416 -9.39026,28.74821 -3.26365,2.28909 -3.3728,-2.50048 -5.25439,-2.59736 -11.85576,-0.6104 -18.13529,3.13032 -18.8366,4.37948 z"
       id="path3954"
       inkscape:connector-curvature="0"
       sodipodi:nodetypes="cssssscsscccssssscscccssssssssssc" />
    <path
       style="fill:none;stroke:#000000;stroke-width:1;stroke-linecap:butt;stroke-linejoin:miter;stroke-miterlimit:4;stroke-opacity:1;stroke-dasharray:none"
       d="m 364.375,398.61218 c 0.0737,-4.65943 0.73813,-8.23213 4.62998,-7.61872 1.26293,0.19906 1.95691,0.51729 4.36727,0.81926 2.00672,0.25141 3.29007,1.41643 3.20986,4.30704 -0.0218,0.78557 0.41532,1.55467 1.33852,1.91936 1.73652,0.68599 1.09467,3.71737 0.82937,3.69806 -1.2108,2.12705 -2.40867,-0.90395 -7.875,-1.125 -4.58458,0.20647 -6.13916,-0.68123 -6.5,-2 z"
       id="path3966"
       inkscape:connector-curvature="0"
       sodipodi:nodetypes="cssssccc" />
    <path
       style="fill:none;stroke:#000000;stroke-width:1;stroke-linecap:butt;stroke-linejoin:miter;stroke-miterlimit:4;stroke-opacity:1;stroke-dasharray:none"
       d="m 388.875,410.95593 c 0.0323,-0.82582 1.38853,-2.03953 2.125,-2.28125 0.57097,-0.1874 2.20108,1.63203 2.28125,2.40625 0.16005,1.5456 -1.49809,1.47545 -2.71875,0.875 -0.58671,-0.2886 -1.70777,-0.48117 -1.6875,-1 z"
       id="path3995"
       inkscape:connector-curvature="0"
       sodipodi:nodetypes="sssss" />
    <path
       style="fill:none;stroke:#000000;stroke-width:1;stroke-linecap:butt;stroke-linejoin:miter;stroke-miterlimit:4;stroke-opacity:1;stroke-dasharray:none"
       d="m 394.30042,369.12026 c -1.10202,-1.39585 -2.39896,-0.007 -1.41422,1.23743 0.99664,1.25954 1.37253,2.70157 1.67938,4.06587 0.25723,1.14364 2.64669,2.24199 2.43068,-0.39775 -0.1494,-1.82581 -1.56068,-3.46773 -2.69584,-4.90555 z"
       id="path3997"
       inkscape:connector-curvature="0"
       sodipodi:nodetypes="sssss" />
    <path
       style="fill:none;stroke:#000000;stroke-width:1;stroke-linecap:butt;stroke-linejoin:miter;stroke-miterlimit:4;stroke-opacity:1;stroke-dasharray:none"
       d="m 392.09071,387.7702 c -2.29748,-2.66202 0.60723,-4.83048 1.90035,-1.98874 0.79469,1.74639 -0.24984,4.07858 0.61872,5.78943 0.6419,1.26442 -1.53869,2.78696 -1.41422,0.75131 0.10554,-1.72607 -0.39468,-3.72916 -1.10485,-4.552 z"
       id="path3999"
       inkscape:connector-curvature="0"
       sodipodi:nodetypes="sssss" />
    <path
       style="fill:none;stroke:#000000;stroke-width:1;stroke-linecap:butt;stroke-linejoin:miter;stroke-miterlimit:4;stroke-opacity:1;stroke-dasharray:none"
       d="m 382.80993,375.74938 c 0.30353,-2.53891 -1.05004,-4.11676 0.39775,-4.41941 1.34876,-0.28195 1.43373,2.23959 1.98874,3.62391 1.47391,3.67627 2.10987,11.42798 2.60745,12.37437 1.16233,2.21073 -0.99232,5.43628 -1.81196,2.47488 -0.78165,-2.82415 -1.6845,-5.61992 -2.29809,-8.48528 -0.39353,-1.83773 -1.10698,-3.70236 -0.88389,-5.56847 z"
       id="path4001"
       inkscape:connector-curvature="0"
       sodipodi:nodetypes="sasssas" />
    <path
       style="fill:none;stroke:#000000;stroke-width:1px;stroke-linecap:butt;stroke-linejoin:miter;stroke-opacity:1"
       d="M 370.52395,303.18255 C 239.64583,302.44212 151.38955,412.30813 151,522.23718 150.69225,609.08248 213.73088,742.01442 374.58982,745.65462 487.99515,748.22095 594.47328,660.19283 594.5,526.73718 594.52552,399.27161 484.00616,303.82457 370.52395,303.18255 z"
       id="path4005"
       inkscape:connector-curvature="0"
       sodipodi:nodetypes="sssss" />
    <path
       style="fill:none;stroke:#000000;stroke-width:1px;stroke-linecap:butt;stroke-linejoin:miter;stroke-opacity:1"
       d="M 370.52395,298.40958 C 225.06296,298.93 140.92641,418.23709 146.90143,534.8926 154.39415,681.17945 280.6006,760.2438 391.03005,751.13469 523.75688,740.18632 606.04938,634.37752 598.91944,518.49656 590.60904,383.42987 476.24974,298.03132 370.52395,298.40958 z"
       id="path4007"
       inkscape:connector-curvature="0"
       sodipodi:nodetypes="sssss" />
    <path
       style="fill:none;stroke:#000000;stroke-width:1px;stroke-linecap:butt;stroke-linejoin:miter;stroke-opacity:1"
       d="M 367.5,245.36219 C 192.43028,246.31324 88.361599,397.95429 95,528.86218 104.03494,707.02934 239.0549,801.84801 378.6875,802.45593 499.43195,802.98162 634.16976,718.04668 651.5,559.36218 669.48298,394.70085 532.6181,244.4652 367.5,245.36219 z"
       id="path4009"
       inkscape:connector-curvature="0"
       sodipodi:nodetypes="sssss" />
    <path
       style="fill:none;stroke:#000000;stroke-width:1px;stroke-linecap:butt;stroke-linejoin:miter;stroke-opacity:1"
       d="M 374.85498,808.58712 C 513.05504,812.71284 657.03099,702.90655 657.625,535.11218 658.17773,378.97927 532.20463,239.04689 366.28131,239.36616 189.08054,239.70713 87.076273,391.19633 88.299959,520.97144 90.062746,707.91968 236.76162,804.46458 374.85498,808.58712 z"
       id="path4011"
       inkscape:connector-curvature="0"
       sodipodi:nodetypes="sssss" />
    <path
       style="fill:none;stroke:#000000;stroke-width:1px;stroke-linecap:butt;stroke-linejoin:miter;stroke-opacity:1"
       d="M 367.375,235.42468 C 213.74887,235.22621 86.278367,358.39285 85.875,513.67468 85.384671,702.43387 221.50146,811.11216 382,811.48718 545.10637,811.86829 663.10933,678.06148 661.5625,534.04968 659.56807,348.36582 512.05578,235.61159 367.375,235.42468 z"
       id="path4013"
       inkscape:connector-curvature="0"
       sodipodi:nodetypes="sssss" />
    <path
       style="fill:none;stroke:#000000;stroke-width:1px;stroke-linecap:butt;stroke-linejoin:miter;stroke-opacity:1"
       d="M 368.25,827.73718 C 560.80794,827.96089 676.05638,684.92342 676.625,531.36218 677.28864,352.14112 527.06525,219.55099 367.34197,220.27428 179.49907,221.12491 69.101649,378.57888 69.625,526.42468 70.27069,708.83125 225.34141,827.57116 368.25,827.73718 z"
       id="path4015"
       inkscape:connector-curvature="0"
       sodipodi:nodetypes="sssss" />
    <path
       style="fill:none;stroke:#000000;stroke-width:1;stroke-linecap:butt;stroke-linejoin:miter;stroke-miterlimit:4;stroke-opacity:1;stroke-dasharray:none"
       d="m 357.2657,644.27318 c -4.56364,-0.60613 -7.259,-2.71169 -5.14113,2.17348 0.57316,1.32206 0.35154,1.76854 1.95915,3.66015 2.38079,2.80139 4.1057,4.3049 6.54074,5.3033 2.38593,0.97827 3.51136,1.27351 3.35875,3.97748 -0.31452,5.57266 2.28979,4.47829 4.24265,4.41942 4.50909,-0.13593 5.49649,-0.33564 9.45755,-0.26517 3.61714,0.0644 3.7402,0.11022 3.62392,-1.59099 -0.30325,-4.43679 1.95904,-3.97087 4.15425,-5.56846 3.30312,-2.40389 5.88996,-5.20674 8.3969,-8.92723 3.80395,-5.64537 -1.37908,-4.90767 -3.27037,-4.68458 -10.5383,1.24308 -27.90045,2.22273 -33.32241,1.5026 z"
       id="path4017"
       inkscape:connector-curvature="0"
       sodipodi:nodetypes="ssssssssssss" />
    <path
       style="fill:none;stroke:#000000;stroke-width:1;stroke-linecap:butt;stroke-linejoin:miter;stroke-miterlimit:4;stroke-opacity:1;stroke-dasharray:none"
       d="m 319.5,495.11218 c -2.83694,-0.32128 -5.70567,-1.11939 -4.875,4 0.89235,5.49953 1.32982,16.53009 -0.5,23.375 -1.402,5.24456 -1.5999,5.675 2.5,6.25 5.88383,0.82519 12.88212,1.51465 17.75,1.625 4.02147,0.0912 7.97975,-5.92693 7.75,-9.25 -0.18722,-2.70795 -0.61798,-5.45836 -2.5,-7.75 -1.2454,-1.51646 -1.84996,-2.81102 -0.375,-5.875 1.31904,-2.74009 1.12717,-6.17451 -0.5,-8.5 -1.74396,-2.4924 -3.70813,-3.6025 -8.375,-3.625 -3.54196,-0.0171 -7.27207,0.15802 -10.875,-0.25 z"
       id="path4019"
       inkscape:connector-curvature="0"
       sodipodi:nodetypes="ssssssssass" />
    <path
       style="fill:none;stroke:#000000;stroke-width:1;stroke-linecap:butt;stroke-linejoin:miter;stroke-miterlimit:4;stroke-opacity:1;stroke-dasharray:none"
       d="m 324.375,513.73718 c 1.38407,0.0535 2.16206,-0.0463 3.5,0 2.53502,0.0877 5.52224,2.6876 5.625,5.125 0.13326,3.16084 -2.97039,7.011 -6.125,7.25 -3.49774,0.26499 -6.27052,-1.11089 -6.08774,-5.5 0.17257,-4.14371 0.0211,-6.99353 3.08774,-6.875 z"
       id="path4021"
       inkscape:connector-curvature="0"
       sodipodi:nodetypes="ssssss" />
    <path
       style="fill:none;stroke:#000000;stroke-width:1;stroke-linecap:butt;stroke-linejoin:miter;stroke-miterlimit:4;stroke-opacity:1;stroke-dasharray:none"
       d="m 321.55681,500.15598 c 0.18861,-1.21383 1.99818,-1.21194 3.53553,-1.41421 l 2.12132,0.0884 c 3.66987,0.84488 4.21136,2.51449 4.41942,4.64038 0.1549,1.58266 -1.73344,4.99138 -3.0494,5.30331 0,0 -2.44549,0.0556 -3.66811,0.0884 -1.71846,0.046 -3.60532,-1.13144 -3.57973,-2.60745 0.0386,-2.22727 0.22097,-6.09883 0.22097,-6.09883 z"
       id="path4023"
       inkscape:connector-curvature="0"
       sodipodi:nodetypes="cccscssc" />
    <path
       style="fill:none;stroke:#000000;stroke-width:1;stroke-linecap:butt;stroke-linejoin:miter;stroke-miterlimit:4;stroke-opacity:1;stroke-dasharray:none"
       d="m 350.63657,502.67505 c -0.0595,-4.1959 2.61401,-4.56767 4.86136,-4.68458 5.71413,-0.29726 7.31942,-0.54302 12.37437,-0.70711 2.05112,-0.0666 4.25366,-0.44805 4.50781,1.94455 0.2249,2.11718 -2.02671,2.49138 -3.35876,2.56325 -3.70212,0.19976 -5.21261,0.22592 -8.22012,-0.0884 -3.8037,-0.39754 -2.77134,1.71328 -2.74004,3.09359 0.0439,1.93444 -0.14469,2.88773 -0.17677,4.24264 -0.0645,2.72337 1.1864,2.54544 2.38648,2.91682 1.09947,0.34025 2.71081,0.4701 4.06587,0.7071 1.46981,0.25707 1.87828,1.95496 1.67937,3.18198 -0.37263,2.29873 -1.87399,1.89467 -3.09359,2.2981 -1.007,0.3331 -2.15728,0.27383 -3.18198,0 -2.93167,-0.78342 -2.12068,1.38834 -2.12132,2.47487 -0.001,2.05562 0.044,3.06477 0,4.5962 -0.0557,1.9387 1.16209,1.94165 2.12132,1.94454 2.58963,0.008 6.76634,-0.39681 10.07628,0.17678 1.54493,0.26773 3.54111,1.03633 3.53553,2.47487 -0.005,1.24466 -2.73375,3.12268 -4.59619,3.18198 -5.86693,0.18682 -11.08744,-0.74534 -16.61701,-0.88388 -2.1311,-0.0534 -2.85327,0.0553 -2.47488,-3.35876 0.93043,-8.39492 1.06309,-19.66672 0.97227,-26.07456 z"
       id="path4025"
       inkscape:connector-curvature="0"
       sodipodi:nodetypes="cssssssssssassssssssssc" />
    <path
       style="fill:none;stroke:#000000;stroke-width:1;stroke-linecap:butt;stroke-linejoin:miter;stroke-miterlimit:4;stroke-opacity:1;stroke-dasharray:none"
       d="m 383.42865,502.58666 c 0.22327,8.84497 -0.817,19.04088 -1.08211,27.87894 -0.0894,2.9788 0.32711,2.89872 3.55698,2.70343 5.0847,-0.30744 8.50007,-0.91103 12.72793,-0.88388 1.58549,0.0102 3.56763,-1.59678 3.53553,-3.18198 -0.0325,-1.60722 -0.74519,-3.12353 -3.71231,-3.07843 -2.18079,0.0331 -3.6723,-0.11298 -6.54074,0.0732 -2.60061,0.16882 -1.75379,-1.81212 -1.76776,-4.06586 -0.0262,-4.23156 -0.51558,-14.89254 -0.70711,-19.62221 -0.0661,-1.63217 -1.31993,-3.91437 -2.95343,-3.91054 -1.70134,0.004 -3.13146,1.13671 -3.05698,4.08731 z"
       id="path4027"
       inkscape:connector-curvature="0"
       sodipodi:nodetypes="ssssassssas" />
    <path
       style="fill:none;stroke:#000000;stroke-width:1;stroke-linecap:butt;stroke-linejoin:miter;stroke-miterlimit:4;stroke-opacity:1;stroke-dasharray:none"
       d="m 411.875,500.73718 c -0.0531,-1.32509 1.54956,-2.79354 2.875,-2.75 1.35584,0.0445 2.71702,1.64383 2.75,3 0.21629,8.894 -0.24927,15.44601 0,19.375 0.10101,1.59215 0.55608,3.86953 3.125,4 3.77148,0.19155 6.57585,0.48993 9.875,0.375 2.42123,-0.0843 2.47347,0.25947 2.625,2.125 0.14509,1.78627 -1.33856,4.23202 -3.125,4.375 -5.64973,0.45217 -8.93745,0.28462 -13.25,0.375 -2.19247,0.046 -5.01253,0.81791 -5.125,-4.125 -0.24592,-10.80798 0.708,-15.31659 0.25,-26.75 z"
       id="path4029"
       inkscape:connector-curvature="0"
       sodipodi:nodetypes="sasssssssss" />
    <path
       style="fill:none;stroke:#000000;stroke-width:1;stroke-linecap:butt;stroke-linejoin:miter;stroke-miterlimit:4;stroke-opacity:1;stroke-dasharray:none"
       d="m 303.75,549.86218 c 0.32455,2.23787 -2.9893,3.7197 -4.14645,1.32322 -1.0438,-2.16172 -0.328,-3.9565 -4.85355,-6.07322 -2.19425,-1.02631 -6.01294,0.87706 -6.5,3.25 -0.85601,4.1704 4.31559,6.43333 8.25,9.75 5.74418,4.84229 7.21988,8.31556 6.75,13.25 -0.27021,2.8376 -1.15243,6.08485 -5.25,6.75 -2.80205,0.45485 -10.37088,-0.0889 -13,-1.25 -2.41111,-1.06485 -4.52106,-4.89129 -4.11872,-6.75 0.26357,-1.21762 2.48285,-2.11915 3.73744,-0.0126 1.65063,2.77157 3.62068,3.19029 5.88128,3.51256 1.96098,0.27955 4.85262,0.26587 5.75,-1.5 1.33904,-2.63497 -1.77585,-5.68817 -3.25,-8.25 -2.27837,-3.95943 -7.49531,-6.29369 -8.5,-10.75 -0.77647,-3.44405 -0.29192,-8.00258 2.36872,-10.32322 2.19918,-1.91816 5.8885,-1.48759 8.71967,-0.78033 2.57359,0.64291 4.95592,2.32197 6.66161,4.35355 0.81617,0.9721 1.31783,2.24385 1.5,3.5 z"
       id="path4031"
       inkscape:connector-curvature="0"
       sodipodi:nodetypes="sssasassssaaaaaaas" />
    <path
       style="fill:none;stroke:#000000;stroke-width:1;stroke-linecap:butt;stroke-linejoin:miter;stroke-miterlimit:4;stroke-opacity:1;stroke-dasharray:none"
       d="m 310.86182,549.69765 c -0.7514,-1.05639 -1.00814,-3.0741 0,-3.88909 1.31221,-1.06081 3.42642,0.33492 4.94975,1.06066 1.22958,0.5858 2.85731,1.24054 3.18198,2.56327 0.5193,2.11566 1.74406,3.65706 2.47487,5.48007 0.89326,2.22823 1.48468,1.53075 3.35876,0.70711 2.41751,-1.06247 3.74357,-5.79513 6.36396,-7.95495 1.01002,-0.8325 1.94043,-1.98728 3.44714,-0.44194 0.53259,0.54624 1.79439,2.24207 0.0712,4.15013 -2.62558,2.90723 -4.67968,6.02735 -8.11454,8.40101 -1.12733,1.18327 -2.13309,3.147 -2.29809,4.77297 -0.28432,2.8018 -0.53159,11.14194 -1.59099,13.43503 -0.62337,1.3493 -0.63507,3.43087 -2.82843,3.44715 -1.70637,0.0127 -2.85897,0.0267 -2.82843,-3.27037 0.0365,-3.94225 1.18211,-8.77469 1.32583,-13.16987 0.053,-1.62199 -0.69096,-3.19105 -1.32583,-4.68458 -1.60124,-3.76689 -3.43958,-6.74374 -6.18718,-10.6066 z"
       id="path4033"
       inkscape:connector-curvature="0"
       sodipodi:nodetypes="saasssssscsssssas" />
    <path
       style="fill:none;stroke:#000000;stroke-width:1;stroke-linecap:butt;stroke-linejoin:miter;stroke-miterlimit:4;stroke-opacity:1;stroke-dasharray:none"
       d="m 360.62446,558.80165 c -0.40435,1.90155 -2.96873,1.18171 -4.94975,-1.06066 -1.21605,-1.37649 -1.24755,-2.53435 -2.20971,-4.68458 -0.48151,-1.07607 -2.66232,-0.7036 -3.53553,0.0884 -1.42923,1.2963 -1.54625,4.00773 -0.70711,5.74524 1.33672,2.76781 6.60881,5.19789 9.28078,6.98268 1.40701,0.93984 4.25315,4.1455 4.06586,7.77817 -0.16152,3.13276 -1.62243,6.88824 -4.41942,8.30851 -2.3422,1.18934 -4.90267,3.0811 -7.77817,3.27037 -2.80812,0.12849 -3.30017,-0.69488 -4.68458,-1.59099 -1.45256,-0.94022 -3.00365,-2.15418 -3.53554,-3.8007 -0.29207,-0.90414 -0.41284,-2.26682 0.35356,-2.82843 1.18397,-0.8676 3.13938,-0.35418 4.33103,0.7955 1.20019,1.15792 2.58403,2.82556 4.24264,2.65165 2.32098,-0.24336 4.42715,-2.60906 5.03813,-4.86136 0.65693,-2.42166 -0.61873,-5.17516 -2.03293,-7.24785 -2.03917,-2.98866 -6.41656,-3.70384 -8.66206,-6.54074 -1.17897,-1.48948 -2.28101,-3.31538 -2.2981,-5.21491 -0.0178,-1.98073 0.86741,-4.11014 2.2981,-5.48008 1.47449,-1.41188 3.70429,-2.0759 5.74524,-2.12132 2.22638,-0.0495 4.52755,0.77326 6.36397,2.03294 0.97746,0.67048 2.57727,2.97526 3.09358,4.24264 0.288,0.70694 0.17124,2.73027 10e-6,3.53552 z"
       id="path4035"
       inkscape:connector-curvature="0"
       sodipodi:nodetypes="sssasssscaaasaaaaaaasss" />
    <path
       style="fill:none;stroke:#000000;stroke-width:1;stroke-linecap:butt;stroke-linejoin:miter;stroke-miterlimit:4;stroke-opacity:1;stroke-dasharray:none"
       d="m 372.64527,550.58153 c -1.53885,0.10206 -3.39535,0.49114 -3.35875,3.18198 0.019,1.39959 -0.51499,2.8684 3.18198,2.74004 1.14372,-0.0397 2.20577,-0.11156 3.62392,-0.17677 1.83029,-0.0842 1.38529,1.52517 1.41421,2.47487 0.20625,6.77223 0.65101,13.89413 0.26517,20.5061 -0.1252,2.14552 0.95957,5.40217 3.09359,5.65685 2.11016,0.25183 3.24142,-0.3574 3.09359,-3.62392 -0.38773,-8.56737 -1.16927,-14.65829 -1.23744,-22.62742 -0.0141,-1.64473 -0.0525,-2.17086 1.94455,-2.03293 2.15976,0.14917 3.51699,0.20131 5.3033,0.0884 1.23112,-0.0778 2.51207,-0.629 2.38648,-2.82843 -0.0897,-1.57115 -0.82279,-2.73957 -3.71231,-2.91681 -5.03986,-0.30915 -11.01565,-0.77242 -15.99829,-0.44196 z"
       id="path4037"
       inkscape:connector-curvature="0"
       sodipodi:nodetypes="ssssssssssssss" />
    <path
       style="fill:none;stroke:#000000;stroke-width:1;stroke-linecap:butt;stroke-linejoin:miter;stroke-miterlimit:4;stroke-opacity:1;stroke-dasharray:none"
       d="m 401.54826,556.32678 c 0.81557,6.32487 1.25646,12.79941 0.53033,22.09708 -0.28147,3.604 -0.49374,4.05915 1.50261,4.33103 2.43391,0.33147 9.15178,0.59386 13.52341,-0.35355 1.69301,-0.36691 3.92053,-2.17028 3.88909,-3.44715 -0.0459,-1.86429 -2.13341,-2.05469 -3.8007,-1.94454 -2.28271,0.15081 -3.86759,0.34582 -6.8059,0.88388 -2.30304,0.42173 -1.98297,-1.40224 -2.38649,-2.47487 -0.2181,-0.57975 -0.01,-1.24456 0.0884,-1.85616 0.46771,-2.9163 2.46943,-2.87858 3.8007,-3.27036 1.83434,-0.53983 4.71609,-1.00553 4.77297,-3.18198 0.0574,-2.19763 -1.94758,-2.18277 -3.27037,-2.65166 -1.02748,-0.36421 -2.27874,0.45281 -3.27037,0 -1.06396,-0.48584 -2.38952,-1.48559 -2.29809,-2.65165 0.0978,-1.24779 -0.0141,-1.90229 0,-3.71231 0.0138,-1.77362 1.14607,-1.34487 1.94454,-1.41421 1.76052,-0.15289 5.74693,-0.0713 8.92722,-0.17678 1.54081,-0.0511 3.38724,-1.73314 3.27037,-3.27037 -0.13581,-1.78627 -2.76936,-3.29804 -4.33103,-3.18198 -4.24736,0.31566 -9.13972,1.07745 -12.99309,0.70711 -0.73339,-0.0705 -3.68834,1.36084 -4.15425,3.0052 -0.25207,0.88966 0.9424,1.64618 1.06065,2.56327 z"
       id="path4039"
       inkscape:connector-curvature="0"
       sodipodi:nodetypes="sssssssasssaassssassas" />
    <path
       style="fill:none;stroke:#000000;stroke-width:1;stroke-linecap:butt;stroke-linejoin:miter;stroke-miterlimit:4;stroke-opacity:1;stroke-dasharray:none"
       d="m 432.48418,548.19505 c -2.03284,0.3052 -2.38048,1.2275 -2.2097,2.38648 0.99056,6.72244 -1.46908,9.57231 -1.14905,14.4073 0.18983,2.86797 -0.5795,7.07832 0.53033,11.84404 0.35693,1.5327 0.80843,3.66749 2.91681,3.71231 2.17079,0.0461 3.18398,-1.91074 3.44715,-3.53553 0.42572,-2.62836 -0.99937,-3.39632 -0.88389,-5.12652 0.29792,-4.46376 -0.0885,-6.77437 -0.17677,-10.25305 -0.0262,-1.03044 0.56474,-2.55512 1.59099,-2.65165 1.80751,-0.17002 2.55805,2.59619 3.62392,4.06586 1.10067,1.51766 2.07156,3.14616 2.82843,4.86136 0.55925,1.26736 0.94762,1.40346 1.67938,1.41421 1.0904,0.016 2.51989,-0.42734 2.56326,-2.03292 0.0359,-1.32939 1.26826,-1.82039 2.00805,-3.25825 0.73979,-1.43785 1.16378,-3.82256 1.52748,-5.40382 0.21061,-0.91567 0.91884,-2.18649 1.85616,-2.12132 1.01901,0.0708 1.62054,0.2164 1.67938,2.56327 0.13517,5.39116 -0.40304,10.2582 -0.0884,15.20279 0.10377,1.63076 -0.83802,4.46585 2.12132,4.41942 2.49828,-0.0392 2.89878,-2.44847 3.0052,-4.15425 0.17666,-2.83167 -0.87182,-5.29795 -0.70711,-7.95495 0.30528,-4.92454 0.87563,-14.1032 0.7955,-18.208 -0.026,-1.33373 -1.40779,-2.98489 -2.74004,-2.91682 -1.72312,0.088 -3.09328,0.53832 -4.24264,1.5026 -1.37463,1.15326 -2.21092,2.94522 -2.65165,4.68458 -0.61412,2.42362 -0.79435,4.07086 -1.67938,5.92202 -0.63821,1.33489 -1.08722,3.52128 -2.56326,3.62393 -2.01693,0.14026 -3.34833,-2.56519 -4.15425,-4.41942 -1.24517,-2.86486 -1.87592,-4.58756 -3.44715,-6.45235 -1.46649,-1.74048 -1.60257,-2.70346 -5.48007,-2.12132 z"
       id="path4041"
       inkscape:connector-curvature="0"
       sodipodi:nodetypes="ssssssssaasasssasssssssasaasss" />
    <text
       xml:space="preserve"
       style="font-size:40px;font-style:normal;font-weight:normal;line-height:125%;letter-spacing:0px;word-spacing:0px;fill:none;fill-opacity:1;stroke:#000000;stroke-width:1;stroke-opacity:1;font-family:Sans"
       x="525.05969"
       y="-83.212776"
       id="text4062"
       sodipodi:linespacing="125%"
       transform="matrix(0.04193188,0.99912047,-0.99912047,0.04193188,0,0)"><tspan
         sodipodi:role="line"
         id="tspan4064"
         x="525.05969"
         y="-83.212776"
         style="stroke-width:1;fill:none;stroke:#000000;stroke-opacity:1">A</tspan></text>
    <text
       xml:space="preserve"
       style="font-size:40px;font-style:normal;font-weight:normal;line-height:125%;letter-spacing:0px;word-spacing:0px;fill:none;fill-opacity:1;stroke:#000000;stroke-width:1;stroke-opacity:1;font-family:Sans"
       x="560.46655"
       y="-21.77339"
       id="text4066"
       sodipodi:linespacing="125%"
       transform="matrix(0.15268914,0.98827427,-0.98827427,0.15268914,0,0)"><tspan
         sodipodi:role="line"
         id="tspan4068"
         x="560.46655"
         y="-21.77339"
         style="stroke-width:1;fill:none;stroke:#000000;stroke-opacity:1">M</tspan></text>
    <text
       xml:space="preserve"
       style="font-size:40px;font-style:normal;font-weight:normal;line-height:125%;letter-spacing:0px;word-spacing:0px;fill:none;fill-opacity:1;stroke:#000000;stroke-width:1;stroke-opacity:1;font-family:Sans"
       x="596.29517"
       y="65.501808"
       id="text4070"
       sodipodi:linespacing="125%"
       transform="matrix(0.29482301,0.95555188,-0.95555188,0.29482301,0,0)"><tspan
         sodipodi:role="line"
         id="tspan4072"
         x="596.29517"
         y="65.501808"
         style="stroke-width:1;fill:none;stroke:#000000;stroke-opacity:1">E</tspan></text>
    <text
       xml:space="preserve"
       style="font-size:40px;font-style:normal;font-weight:normal;line-height:125%;letter-spacing:0px;word-spacing:0px;fill:none;fill-opacity:1;stroke:#000000;stroke-width:1;stroke-opacity:1;font-family:Sans"
       x="617.41687"
       y="125.00694"
       id="text4074"
       sodipodi:linespacing="125%"
       transform="matrix(0.38442316,0.92315699,-0.92315699,0.38442316,0,0)"><tspan
         sodipodi:role="line"
         id="tspan4076"
         x="617.41687"
         y="125.00694"
         style="stroke-width:1;fill:none;stroke:#000000;stroke-opacity:1">R</tspan></text>
    <text
       xml:space="preserve"
       style="font-size:40px;font-style:normal;font-weight:normal;line-height:125%;letter-spacing:0px;word-spacing:0px;fill:none;fill-opacity:1;stroke:#000000;stroke-width:1;stroke-opacity:1;font-family:Sans"
       x="633.87964"
       y="188.26407"
       id="text4078"
       sodipodi:linespacing="125%"
       transform="matrix(0.47478639,0.88010106,-0.88010106,0.47478639,0,0)"><tspan
         sodipodi:role="line"
         id="tspan4080"
         x="633.87964"
         y="188.26407"
         style="stroke-width:1;fill:none;stroke:#000000;stroke-opacity:1">I</tspan></text>
    <text
       xml:space="preserve"
       style="font-size:40px;font-style:normal;font-weight:normal;line-height:125%;letter-spacing:0px;word-spacing:0px;fill:none;fill-opacity:1;stroke:#000000;stroke-width:1;stroke-opacity:1;font-family:Sans"
       x="629.71704"
       y="237.2981"
       id="text4082"
       sodipodi:linespacing="125%"
       transform="matrix(0.54078166,0.841163,-0.841163,0.54078166,0,0)"><tspan
         sodipodi:role="line"
         id="tspan4084"
         x="629.71704"
         y="237.2981"
         style="stroke-width:1;fill:none;stroke:#000000;stroke-opacity:1">C</tspan></text>
    <text
       xml:space="preserve"
       style="font-size:40px;font-style:normal;font-weight:normal;line-height:125%;letter-spacing:0px;word-spacing:0px;fill:none;fill-opacity:1;stroke:#000000;stroke-width:1;stroke-opacity:1;font-family:Sans"
       x="625.77435"
       y="313.79907"
       id="text4086"
       sodipodi:linespacing="125%"
       transform="matrix(0.63643792,0.77132793,-0.77132793,0.63643792,0,0)"><tspan
         sodipodi:role="line"
         id="tspan4088"
         x="625.77435"
         y="313.79907"
         style="stroke-width:1;fill:none;stroke:#000000;stroke-opacity:1">A</tspan></text>
    <text
       xml:space="preserve"
       style="font-size:40px;font-style:normal;font-weight:normal;line-height:125%;letter-spacing:0px;word-spacing:0px;fill:none;fill-opacity:1;stroke:#000000;stroke-width:1;stroke-opacity:1;font-family:Sans"
       x="624.48004"
       y="367.28012"
       id="text4090"
       sodipodi:linespacing="125%"
       transform="matrix(0.69820221,0.71590061,-0.71590061,0.69820221,0,0)"><tspan
         sodipodi:role="line"
         id="tspan4092"
         x="624.48004"
         y="367.28012"
         style="stroke-width:1;fill:none;stroke:#000000;stroke-opacity:1">N</tspan></text>
    <text
       xml:space="preserve"
       style="font-size:40px;font-style:normal;font-weight:normal;line-height:125%;letter-spacing:0px;word-spacing:0px;fill:none;fill-opacity:1;stroke:#000000;stroke-width:1;stroke-opacity:1;font-family:Sans"
       x="596.16553"
       y="474.91458"
       id="text4094"
       sodipodi:linespacing="125%"
       transform="matrix(0.81121252,0.58475144,-0.58475144,0.81121252,0,0)"><tspan
         sodipodi:role="line"
         id="tspan4096"
         x="596.16553"
         y="474.91458"
         style="stroke-width:1;fill:none;stroke:#000000;stroke-opacity:1">T</tspan></text>
    <text
       xml:space="preserve"
       style="font-size:40px;font-style:normal;font-weight:normal;line-height:125%;letter-spacing:0px;word-spacing:0px;fill:none;fill-opacity:1;stroke:#000000;stroke-width:1;stroke-opacity:1;font-family:Sans"
       x="528.42853"
       y="625.3866"
       id="text4098"
       sodipodi:linespacing="125%"
       transform="matrix(0.93524666,0.35399674,-0.35399674,0.93524666,0,0)"><tspan
         sodipodi:role="line"
         id="tspan4100"
         x="528.42853"
         y="625.3866"
         style="stroke-width:1;fill:none;stroke:#000000;stroke-opacity:1">E</tspan></text>
    <text
       xml:space="preserve"
       style="font-size:40px;font-style:normal;font-weight:normal;line-height:125%;letter-spacing:0px;word-spacing:0px;fill:none;fill-opacity:1;stroke:#000000;stroke-width:1;stroke-opacity:1;font-family:Sans"
       x="564.8205"
       y="570.54596"
       id="text4102"
       sodipodi:linespacing="125%"
       transform="matrix(0.89550032,0.44506087,-0.44506087,0.89550032,0,0)"><tspan
         sodipodi:role="line"
         id="tspan4104"
         x="564.8205"
         y="570.54596"
         style="stroke-width:1;fill:none;stroke:#000000;stroke-opacity:1">L</tspan></text>
    <text
       xml:space="preserve"
       style="font-size:40px;font-style:normal;font-weight:normal;line-height:125%;letter-spacing:0px;word-spacing:0px;fill:none;fill-opacity:1;stroke:#000000;stroke-width:1;stroke-opacity:1;font-family:Sans"
       x="568.14709"
       y="539.25543"
       id="text4106"
       sodipodi:linespacing="125%"
       transform="matrix(0.86975823,0.49347808,-0.49347808,0.86975823,0,0)"><tspan
         sodipodi:role="line"
         id="tspan4108"
         x="568.14709"
         y="539.25543"
         style="stroke-width:1;stroke:#000000;stroke-opacity:1;fill:none">E</tspan></text>
    <text
       xml:space="preserve"
       style="font-size:40px;font-style:normal;font-weight:normal;line-height:125%;letter-spacing:0px;word-spacing:0px;fill:none;fill-opacity:1;stroke:#000000;stroke-width:1;stroke-opacity:1;font-family:Sans"
       x="501.57608"
       y="668.01636"
       id="text4110"
       sodipodi:linespacing="125%"
       transform="matrix(0.96138951,0.27519122,-0.27519122,0.96138951,0,0)"><tspan
         sodipodi:role="line"
         id="tspan4112"
         x="501.57608"
         y="668.01636"
         style="stroke-width:1;fill:none;stroke:#000000;stroke-opacity:1">P</tspan></text>
    <text
       xml:space="preserve"
       style="font-size:40px;font-style:normal;font-weight:normal;line-height:125%;letter-spacing:0px;word-spacing:0px;fill:none;fill-opacity:1;stroke:#000000;stroke-width:1;stroke-opacity:1;font-family:Sans"
       x="419.70456"
       y="740.659"
       id="text4114"
       sodipodi:linespacing="125%"
       transform="matrix(0.99209047,0.12552486,-0.12552486,0.99209047,0,0)"><tspan
         sodipodi:role="line"
         id="tspan4116"
         x="419.70456"
         y="740.659"
         style="stroke-width:1;fill:none;stroke:#000000;stroke-opacity:1">H</tspan></text>
    <text
       xml:space="preserve"
       style="font-size:40px;font-style:normal;font-weight:normal;line-height:125%;letter-spacing:0px;word-spacing:0px;fill:none;fill-opacity:1;stroke:#000000;stroke-opacity:1;font-family:Sans"
       x="352.26691"
       y="791.43872"
       id="text4118"
       sodipodi:linespacing="125%"><tspan
         sodipodi:role="line"
         id="tspan4120"
         x="352.26691"
         y="791.43872">O</tspan></text>
    <text
       xml:space="preserve"
       style="font-size:40px;font-style:normal;font-weight:normal;line-height:125%;letter-spacing:0px;word-spacing:0px;fill:none;fill-opacity:1;stroke:#000000;stroke-width:1;stroke-opacity:1;font-family:Sans"
       x="328.28326"
       y="815.98895"
       id="text4122"
       sodipodi:linespacing="125%"
       transform="matrix(0.99775489,-0.06697147,0.06697147,0.99775489,0,0)"><tspan
         sodipodi:role="line"
         id="tspan4124"
         x="328.28326"
         y="815.98895"
         style="stroke-width:1;fill:none;stroke:#000000;stroke-opacity:1">N</tspan></text>
    <text
       xml:space="preserve"
       style="font-size:40px;font-style:normal;font-weight:normal;line-height:125%;letter-spacing:0px;word-spacing:0px;fill:none;fill-opacity:1;stroke:#000000;stroke-width:1;stroke-opacity:1;font-family:Sans"
       x="271.69516"
       y="847.42706"
       id="text4126"
       sodipodi:linespacing="125%"
       transform="matrix(0.98578574,-0.16800739,0.16800739,0.98578574,0,0)"><tspan
         sodipodi:role="line"
         id="tspan4128"
         x="271.69516"
         y="847.42706"
         style="stroke-width:1;fill:none;stroke:#000000;stroke-opacity:1">E</tspan></text>
    <text
       xml:space="preserve"
       style="font-size:40px;font-style:normal;font-weight:normal;line-height:125%;letter-spacing:0px;word-spacing:0px;fill:none;fill-opacity:1;stroke:#000000;stroke-width:1;stroke-opacity:1;font-family:Sans"
       x="126.82206"
       y="892.95526"
       id="text4130"
       sodipodi:linespacing="125%"
       transform="matrix(0.92978101,-0.36811312,0.36811312,0.92978101,0,0)"><tspan
         sodipodi:role="line"
         id="tspan4132"
         x="126.82206"
         y="892.95526"
         style="stroke-width:1;fill:none;stroke:#000000;stroke-opacity:1">&amp;</tspan></text>
    <text
       xml:space="preserve"
       style="font-size:40px;font-style:normal;font-weight:normal;line-height:125%;letter-spacing:0px;word-spacing:0px;fill:none;fill-opacity:1;stroke:#000000;stroke-width:1;stroke-opacity:1;font-family:Sans"
       x="58.181122"
       y="908.38434"
       id="text4134"
       sodipodi:linespacing="125%"
       transform="matrix(0.87882451,-0.47714514,0.47714514,0.87882451,0,0)"><tspan
         sodipodi:role="line"
         id="tspan4136"
         x="58.181122"
         y="908.38434"
         style="stroke-width:1;fill:none;stroke:#000000;stroke-opacity:1">T</tspan></text>
    <text
       xml:space="preserve"
       style="font-size:40px;font-style:normal;font-weight:normal;line-height:125%;letter-spacing:0px;word-spacing:0px;fill:none;fill-opacity:1;stroke:#000000;stroke-width:1;stroke-opacity:1;font-family:Sans"
       x="34.974613"
       y="911.46582"
       id="text4138"
       sodipodi:linespacing="125%"
       transform="matrix(0.85191787,-0.52367542,0.52367542,0.85191787,0,0)"><tspan
         sodipodi:role="line"
         id="tspan4140"
         x="34.974613"
         y="911.46582"
         style="stroke-width:1;fill:none;stroke:#000000;stroke-opacity:1">E</tspan></text>
    <text
       xml:space="preserve"
       style="font-size:40px;font-style:normal;font-weight:normal;line-height:125%;letter-spacing:0px;word-spacing:0px;fill:none;fill-opacity:1;stroke:#000000;stroke-width:1;stroke-opacity:1;font-family:Sans"
       x="-30.064005"
       y="913.74902"
       id="text4142"
       sodipodi:linespacing="125%"
       transform="matrix(0.79667147,-0.60441258,0.60441258,0.79667147,0,0)"><tspan
         sodipodi:role="line"
         id="tspan4144"
         x="-30.064005"
         y="913.74902"
         style="stroke-width:1;fill:none;stroke:#000000;stroke-opacity:1">L</tspan></text>
    <text
       xml:space="preserve"
       style="font-size:40px;font-style:normal;font-weight:normal;line-height:125%;letter-spacing:0px;word-spacing:0px;fill:none;fill-opacity:1;stroke:#000000;stroke-width:1;stroke-opacity:1;font-family:Sans"
       x="-128.5457"
       y="905.41254"
       id="text4146"
       sodipodi:linespacing="125%"
       transform="matrix(0.71019265,-0.70400738,0.70400738,0.71019265,0,0)"><tspan
         sodipodi:role="line"
         id="tspan4148"
         x="-128.5457"
         y="905.41254"
         style="stroke-width:1;fill:none;stroke:#000000;stroke-opacity:1">E</tspan></text>
    <text
       xml:space="preserve"
       style="font-size:40px;font-style:normal;font-weight:normal;line-height:125%;letter-spacing:0px;word-spacing:0px;fill:none;fill-opacity:1;stroke:#000000;stroke-width:1;stroke-opacity:1;font-family:Sans"
       x="-192.18141"
       y="891.87848"
       id="text4150"
       sodipodi:linespacing="125%"
       transform="matrix(0.6374821,-0.77046516,0.77046516,0.6374821,0,0)"><tspan
         sodipodi:role="line"
         id="tspan4152"
         x="-192.18141"
         y="891.87848"
         style="stroke-width:1;stroke:#000000;stroke-opacity:1;fill:none">G</tspan></text>
    <text
       xml:space="preserve"
       style="font-size:40px;font-style:normal;font-weight:normal;line-height:125%;letter-spacing:0px;word-spacing:0px;fill:none;fill-opacity:1;stroke:#000000;stroke-width:1;stroke-opacity:1;font-family:Sans"
       x="-197.30928"
       y="884.43134"
       id="text4154"
       sodipodi:linespacing="125%"
       transform="matrix(0.60477899,-0.79639336,0.79639336,0.60477899,0,0)"><tspan
         sodipodi:role="line"
         id="tspan4156"
         x="-197.30928"
         y="884.43134"
         style="stroke-width:1;stroke:#000000;stroke-opacity:1;fill:none">R</tspan></text>
    <text
       xml:space="preserve"
       style="font-size:40px;font-style:normal;font-weight:normal;line-height:125%;letter-spacing:0px;word-spacing:0px;fill:none;fill-opacity:1;stroke:#000000;stroke-width:1;stroke-opacity:1;font-family:Sans"
       x="-272.53314"
       y="857.3866"
       id="text4158"
       sodipodi:linespacing="125%"
       transform="matrix(0.50389625,-0.86376419,0.86376419,0.50389625,0,0)"><tspan
         sodipodi:role="line"
         id="tspan4160"
         x="-272.53314"
         y="857.3866"
         style="stroke-width:1;stroke:#000000;stroke-opacity:1;fill:none">A</tspan></text>
    <text
       xml:space="preserve"
       style="font-size:40px;font-style:normal;font-weight:normal;line-height:125%;letter-spacing:0px;word-spacing:0px;fill:none;fill-opacity:1;stroke:#000000;stroke-width:1;stroke-opacity:1;font-family:Sans"
       x="-353.93292"
       y="816.57892"
       id="text4162"
       sodipodi:linespacing="125%"
       transform="matrix(0.38715869,-0.9220131,0.9220131,0.38715869,0,0)"><tspan
         sodipodi:role="line"
         id="tspan4164"
         x="-353.93292"
         y="816.57892"
         style="stroke-width:1;stroke:#000000;stroke-opacity:1;fill:none">P</tspan></text>
    <text
       xml:space="preserve"
       style="font-size:40px;font-style:normal;font-weight:normal;line-height:125%;letter-spacing:0px;word-spacing:0px;fill:none;fill-opacity:1;stroke:#000000;stroke-width:1;stroke-opacity:1;font-family:Sans"
       x="-419.23996"
       y="774.63611"
       id="text4166"
       sodipodi:linespacing="125%"
       transform="matrix(0.27970189,-0.9600869,0.9600869,0.27970189,0,0)"><tspan
         sodipodi:role="line"
         id="tspan4168"
         x="-419.23996"
         y="774.63611"
         style="stroke-width:1;stroke:#000000;stroke-opacity:1;fill:none">H</tspan></text>
    <text
       xml:space="preserve"
       style="font-size:40px;font-style:normal;font-weight:normal;line-height:125%;letter-spacing:0px;word-spacing:0px;fill:none;fill-opacity:1;stroke:#000000;stroke-width:1;stroke-opacity:1;font-family:Sans"
       x="-541.56921"
       y="633.90448"
       id="text4170"
       sodipodi:linespacing="125%"
       transform="matrix(-0.01705947,-0.99985448,0.99985448,-0.01705947,0,0)"><tspan
         sodipodi:role="line"
         id="tspan4172"
         x="-541.56921"
         y="633.90448"
         style="stroke-width:1;stroke:#000000;stroke-opacity:1;fill:none">.</tspan></text>
    <text
       xml:space="preserve"
       style="font-size:40px;font-style:normal;font-weight:normal;line-height:125%;letter-spacing:0px;word-spacing:0px;fill:none;fill-opacity:1;stroke:#000000;stroke-width:1;stroke-opacity:1;font-family:Sans"
       x="-558.28674"
       y="658.02521"
       id="text4174"
       sodipodi:linespacing="125%"
       transform="matrix(0.03613125,-0.99934705,0.99934705,0.03613125,0,0)"><tspan
         sodipodi:role="line"
         id="tspan4176"
         x="-558.28674"
         y="658.02521"
         style="stroke-width:1;stroke:#000000;stroke-opacity:1;fill:none">C</tspan></text>
    <text
       xml:space="preserve"
       style="font-size:40px;font-style:normal;font-weight:normal;line-height:125%;letter-spacing:0px;word-spacing:0px;fill:none;fill-opacity:1;stroke:#000000;stroke-width:1;stroke-opacity:1;font-family:Sans"
       x="-527.50598"
       y="663.69177"
       id="text4178"
       sodipodi:linespacing="125%"
       transform="matrix(0.04375532,-0.99904228,0.99904228,0.04375532,0,0)"><tspan
         sodipodi:role="line"
         id="tspan4180"
         x="-527.50598"
         y="663.69177"
         style="stroke-width:1;stroke:#000000;stroke-opacity:1;fill:none">O</tspan></text>
    <text
       xml:space="preserve"
       style="font-size:40px;font-style:normal;font-weight:normal;line-height:125%;letter-spacing:0px;word-spacing:0px;fill:none;fill-opacity:1;stroke:#000000;stroke-width:1;stroke-opacity:1;font-family:Sans"
       x="64.779106"
       y="400.16537"
       id="text4182"
       sodipodi:linespacing="125%"
       transform="matrix(0.86776948,-0.49696693,0.49696693,0.86776948,0,0)"><tspan
         sodipodi:role="line"
         id="tspan4184"
         x="64.779106"
         y="400.16537"
         style="stroke-width:1;fill:none;stroke:#000000;stroke-opacity:1">i</tspan></text>
    <text
       xml:space="preserve"
       style="font-size:40px;font-style:normal;font-weight:normal;line-height:125%;letter-spacing:0px;word-spacing:0px;fill:none;fill-opacity:1;stroke:#000000;stroke-width:1;stroke-opacity:1;font-family:Sans"
       x="132.47314"
       y="384.46112"
       id="text4186"
       sodipodi:linespacing="125%"
       transform="matrix(0.9280912,-0.37235295,0.37235295,0.9280912,0,0)"><tspan
         sodipodi:role="line"
         id="tspan4188"
         x="132.47314"
         y="384.46112"
         style="stroke-width:1;fill:none;stroke:#000000;stroke-opacity:1">3</tspan></text>
    <text
       xml:space="preserve"
       style="font-size:40px;font-style:normal;font-weight:normal;line-height:125%;letter-spacing:0px;word-spacing:0px;fill:none;fill-opacity:1;stroke:#000000;stroke-width:1;stroke-opacity:1;font-family:Sans"
       x="253.17972"
       y="338.86722"
       id="text4190"
       sodipodi:linespacing="125%"
       transform="matrix(0.98665934,-0.1627985,0.1627985,0.98665934,0,0)"><tspan
         sodipodi:role="line"
         id="tspan4192"
         x="253.17972"
         y="338.86722"
         style="stroke-width:1;fill:none;stroke:#000000;stroke-opacity:1">D</tspan></text>
    <text
       xml:space="preserve"
       style="font-size:40px;font-style:normal;font-weight:normal;line-height:125%;letter-spacing:0px;word-spacing:0px;fill:none;fill-opacity:1;stroke:#000000;stroke-width:1;stroke-opacity:1;font-family:Sans"
       x="309.90912"
       y="313.91431"
       id="text4194"
       sodipodi:linespacing="125%"
       transform="matrix(0.99661638,-0.08219368,0.08219368,0.99661638,0,0)"><tspan
         sodipodi:role="line"
         id="tspan4196"
         x="309.90912"
         y="313.91431"
         style="stroke-width:1;fill:none;stroke:#000000;stroke-opacity:1">E</tspan></text>
    <text
       xml:space="preserve"
       style="font-size:40px;font-style:normal;font-weight:normal;line-height:125%;letter-spacing:0px;word-spacing:0px;fill:none;fill-opacity:1;stroke:#000000;stroke-width:1;stroke-opacity:1;font-family:Sans"
       x="364.57251"
       y="280.25711"
       id="text4198"
       sodipodi:linespacing="125%"
       transform="matrix(0.9999054,0.01375477,-0.01375477,0.9999054,0,0)"><tspan
         sodipodi:role="line"
         id="tspan4200"
         x="364.57251"
         y="280.25711"
         style="stroke-width:1;fill:none;stroke:#000000;stroke-opacity:1">T</tspan></text>
    <text
       xml:space="preserve"
       style="font-size:40px;font-style:normal;font-weight:normal;line-height:125%;letter-spacing:0px;word-spacing:0px;fill:none;fill-opacity:1;stroke:#000000;stroke-width:1;stroke-opacity:1;font-family:Sans"
       x="417.16547"
       y="236.59486"
       id="text4202"
       sodipodi:linespacing="125%"
       transform="matrix(0.99230558,0.12381294,-0.12381294,0.99230558,0,0)"><tspan
         sodipodi:role="line"
         id="tspan4204"
         x="417.16547"
         y="236.59486"
         style="stroke-width:1;fill:none;stroke:#000000;stroke-opacity:1">R</tspan></text>
    <text
       xml:space="preserve"
       style="font-size:40px;font-style:normal;font-weight:normal;line-height:125%;letter-spacing:0px;word-spacing:0px;fill:none;fill-opacity:1;stroke:#000000;stroke-width:1;stroke-opacity:1;font-family:Sans"
       x="463.96976"
       y="194.86957"
       id="text4206"
       sodipodi:linespacing="125%"
       transform="matrix(0.97671421,0.21454453,-0.21454453,0.97671421,0,0)"><tspan
         sodipodi:role="line"
         id="tspan4208"
         x="463.96976"
         y="194.86957"
         style="stroke-width:1;fill:none;stroke:#000000;stroke-opacity:1">O</tspan></text>
    <text
       xml:space="preserve"
       style="font-size:40px;font-style:normal;font-weight:normal;line-height:125%;letter-spacing:0px;word-spacing:0px;fill:none;fill-opacity:1;stroke:#000000;stroke-width:1;stroke-opacity:1;font-family:Sans"
       x="518.21088"
       y="121.54541"
       id="text4210"
       sodipodi:linespacing="125%"
       transform="matrix(0.93486756,0.35499668,-0.35499668,0.93486756,0,0)"><tspan
         sodipodi:role="line"
         id="tspan4212"
         x="518.21088"
         y="121.54541"
         style="stroke-width:1;fill:none;stroke:#000000;stroke-opacity:1">I</tspan></text>
    <text
       xml:space="preserve"
       style="font-size:40px;font-style:normal;font-weight:normal;line-height:125%;letter-spacing:0px;word-spacing:0px;fill:none;fill-opacity:1;stroke:#000000;stroke-width:1;stroke-opacity:1;font-family:Sans"
       x="540.18201"
       y="73.779633"
       id="text4214"
       sodipodi:linespacing="125%"
       transform="matrix(0.89959773,0.4367195,-0.4367195,0.89959773,0,0)"><tspan
         sodipodi:role="line"
         id="tspan4216"
         x="540.18201"
         y="73.779633"
         style="stroke-width:1;fill:none;stroke:#000000;stroke-opacity:1">T</tspan></text>
  </g>
</svg>
