<?xml version="1.0" encoding="UTF-8" standalone="no"?>
<!-- Created with Inkscape (http://www.inkscape.org/) -->

<svg
   xmlns:dc="http://purl.org/dc/elements/1.1/"
   xmlns:cc="http://creativecommons.org/ns#"
   xmlns:rdf="http://www.w3.org/1999/02/22-rdf-syntax-ns#"
   xmlns:svg="http://www.w3.org/2000/svg"
   xmlns="http://www.w3.org/2000/svg"
   xmlns:sodipodi="http://sodipodi.sourceforge.net/DTD/sodipodi-0.dtd"
   xmlns:inkscape="http://www.inkscape.org/namespaces/inkscape"
   width="744.09448819"
   height="1052.3622047"
   id="svg2"
   version="1.1"
   inkscape:version="0.48.4 r9939"
   sodipodi:docname="bridgeport.svg">
  <defs
     id="defs4" />
  <sodipodi:namedview
     id="base"
     pagecolor="#ffffff"
     bordercolor="#666666"
     borderopacity="1.0"
     inkscape:pageopacity="0.0"
     inkscape:pageshadow="2"
     inkscape:zoom="1"
     inkscape:cx="577.14639"
     inkscape:cy="641.95324"
     inkscape:document-units="px"
     inkscape:current-layer="layer1"
     showgrid="false"
     showguides="true"
     inkscape:guide-bbox="true"
     inkscape:window-width="1024"
     inkscape:window-height="720"
     inkscape:window-x="0"
     inkscape:window-y="0"
     inkscape:window-maximized="1">
    <sodipodi:guide
       orientation="0,1"
       position="87.321429,592.27679"
       id="guide3137" />
    <sodipodi:guide
       orientation="0,1"
       position="97.008929,608.83929"
       id="guide3139" />
    <sodipodi:guide
       orientation="0,1"
       position="310,685.71429"
       id="guide3141" />
    <sodipodi:guide
       orientation="0,1"
       position="193.03571,619.82143"
       id="guide3143" />
    <sodipodi:guide
       orientation="0,1"
       position="386.42857,663.21429"
       id="guide3145" />
    <sodipodi:guide
       orientation="-0.86236349,0.50628965"
       position="113.75,624.64286"
       id="guide3147" />
    <sodipodi:guide
       orientation="-0.86236349,0.50628965"
       position="142.81032,683.39977"
       id="guide3149" />
    <sodipodi:guide
       orientation="-0.86236349,0.50628965"
       position="158.75,655.17857"
       id="guide3151" />
    <sodipodi:guide
       orientation="0,1"
       position="166.29464,655.08929"
       id="guide3153" />
    <sodipodi:guide
       orientation="0,1"
       position="168.79464,660.04464"
       id="guide3155" />
    <sodipodi:guide
       orientation="-0.86236349,0.50628965"
       position="200.01,636.64864"
       id="guide3157" />
    <sodipodi:guide
       orientation="-0.86236349,0.50628965"
       position="224.75894,644.47732"
       id="guide3159" />
    <sodipodi:guide
       orientation="-0.86236349,0.50628965"
       position="255.316,647.00271"
       id="guide3161" />
    <sodipodi:guide
       orientation="-0.86236349,0.50628965"
       position="272.48865,642.20448"
       id="guide3163" />
    <sodipodi:guide
       orientation="-0.86236349,0.50628965"
       position="338.65364,685.71429"
       id="guide3165" />
    <sodipodi:guide
       orientation="-0.86236349,0.50628965"
       position="330.80357,637.41072"
       id="guide3167" />
    <sodipodi:guide
       orientation="-0.86236349,0.50628965"
       position="370.97852,631.0928"
       id="guide3169" />
    <sodipodi:guide
       orientation="-0.86236349,0.50628965"
       position="399.76787,644.72986"
       id="guide3171" />
    <sodipodi:guide
       orientation="-0.86236349,0.50628965"
       position="382.72322,616.90848"
       id="guide3173" />
    <sodipodi:guide
       orientation="-0.86236349,0.50628965"
       position="454.82143,634.64286"
       id="guide3175" />
    <sodipodi:guide
       orientation="-0.86236349,0.50628965"
       position="503.87672,682.73685"
       id="guide3177" />
    <sodipodi:guide
       orientation="-0.86236349,0.50628965"
       position="576.16576,634.50207"
       id="guide3179" />
    <sodipodi:guide
       orientation="-0.86236349,0.50628965"
       position="598.26285,638.29014"
       id="guide3181" />
    <sodipodi:guide
       orientation="-0.86236349,0.50628965"
       position="628.31488,642.07821"
       id="guide3183" />
    <sodipodi:guide
       orientation="0,1"
       position="676.4234,666.57441"
       id="guide3185" />
    <sodipodi:guide
       orientation="-0.86236349,0.50628965"
       position="666.51128,672.63533"
       id="guide3187" />
    <sodipodi:guide
       orientation="-0.86236349,0.50628965"
       position="675.098,663.21429"
       id="guide3189" />
    <sodipodi:guide
       orientation="0,1"
       position="665.53572,615.35714"
       id="guide3191" />
    <sodipodi:guide
       orientation="0,1"
       position="664.64286,622.1875"
       id="guide3193" />
    <sodipodi:guide
       orientation="0,1"
       position="664.77679,621.07143"
       id="guide3195" />
    <sodipodi:guide
       orientation="0,1"
       position="665.20124,618.98676"
       id="guide3197" />
    <sodipodi:guide
       orientation="0,1"
       position="664.854,617.99239"
       id="guide3199" />
    <sodipodi:guide
       orientation="1,0"
       position="661.72884,616.60343"
       id="guide3201" />
    <sodipodi:guide
       orientation="1,0"
       position="663.05466,616.58765"
       id="guide3203" />
    <sodipodi:guide
       orientation="1,0"
       position="667.33203,616.77705"
       id="guide3205" />
    <sodipodi:guide
       orientation="-0.86236349,0.50628965"
       position="657.5,608.57143"
       id="guide3207" />
    <sodipodi:guide
       orientation="0,1"
       position="109.69625,624.52681"
       id="guide3230" />
    <sodipodi:guide
       orientation="0,1"
       position="172.54668,681.28476"
       id="guide3232" />
  </sodipodi:namedview>
  <metadata
     id="metadata7">
    <rdf:RDF>
      <cc:Work
         rdf:about="">
        <dc:format>image/svg+xml</dc:format>
        <dc:type
           rdf:resource="http://purl.org/dc/dcmitype/StillImage" />
        <dc:title />
      </cc:Work>
    </rdf:RDF>
  </metadata>
  <g
     inkscape:label="Layer 1"
     inkscape:groupmode="layer"
     id="layer1">
    <path
       style="fill:none;stroke:#000000;stroke-width:1px;stroke-linecap:butt;stroke-linejoin:miter;stroke-opacity:1"
       d="m 98.484446,443.52289 -9.723768,16.5625 226.283962,0 c 4.85981,-7.61252 11.212,-13.2352 19.28572,-16.5625 z"
       id="path3228"
       inkscape:connector-curvature="0"
       sodipodi:nodetypes="ccccc" />
    <path
       style="fill:none;stroke:#000000;stroke-width:1px;stroke-linecap:butt;stroke-linejoin:miter;stroke-opacity:1"
       d="m 144.16916,366.64789 -2.74882,4.68207 5.43559,0 -33.17406,56.50541 -5.43559,0 -2.76251,4.70538 52.47883,0 c 30.43082,0.83467 49.8625,-24.08733 30.68339,-36.20951 20.92946,-7.18335 24.52354,-25.25382 6.59755,-29.68335 -2.97344,-0.73474 -50.87874,0.32254 -51.07438,0 z"
       id="path3234"
       inkscape:connector-curvature="0"
       sodipodi:nodetypes="ccccccccsc" />
    <path
       style="fill:none;stroke:#000000;stroke-width:1px;stroke-linecap:butt;stroke-linejoin:miter;stroke-opacity:1"
       d="m 174.07682,371.07742 6.99883,0 C 192.71037,379.47574 176.04,392.31754 170,392.31754 l -8.39315,0 z"
       id="path3236"
       inkscape:connector-curvature="0"
       sodipodi:nodetypes="ccccc" />
    <path
       style="fill:none;stroke:#000000;stroke-width:1px;stroke-linecap:butt;stroke-linejoin:miter;stroke-opacity:1"
       d="m 158.69758,397.27289 -17.94309,30.56248 13.62051,0 c 11.88429,-3.7575 23.37964,-23.16955 11.91964,-30.56248 z"
       id="path3238"
       inkscape:connector-curvature="0"
       sodipodi:nodetypes="ccccc" />
    <path
       style="fill:none;stroke:#000000;stroke-width:1;stroke-linecap:butt;stroke-linejoin:miter;stroke-miterlimit:4;stroke-opacity:1;stroke-dasharray:none"
       d="m 215.60657,389.14789 c -6.3147,-0.32256 -9.28671,2.39433 -13.10657,5.26786 l 1.23514,1.28414 c 0,0 10.21224,-6.552 7.86906,0.26525 -0.263,0.76518 -21.47338,36.57561 -21.47338,36.57561 l 20.15276,0 17.05704,-29.05326 c 2.94345,-5.01358 5.51844,-6.2146 8.79777,-6.56058 -0.90754,12.84524 13.48354,9.50011 22.19234,2.10333 l 0.30316,0.67787 c 0,0 -8.85452,15.08192 -13.21615,22.51108 -5.32588,9.07156 2.12003,13.8573 8.28762,13.75906 8.88831,-0.14158 15.84486,-4.02761 22.03472,-7.71672 9.31752,13.92324 20.21598,6.24015 30.90435,1.42842 5.05067,7.38715 13.48361,9.02447 28.03963,0.25253 5.72023,10.32217 16.61023,9.08839 30.41096,1.34827 l -7.18143,12.23214 c -17.59594,-2.26162 -45.37747,15.59729 -39.77867,32.92607 3.41107,10.55758 35.20077,13.47442 50.12715,-16.36357 l 279.67142,0 9.72377,-16.5625 -197.16546,0 9.21007,-15.68752 c 7.09527,14.19498 29.58718,4.70538 40.10939,-8.28952 l 5.90303,-1.82653 c -0.76783,16.65047 22.71583,23.08897 44.86607,10.11605 11.68563,-6.84402 20.82419,-18.8985 18.4375,-29.73658 1.83597,-2.01429 12.79206,-6.88538 9.23456,-0.8259 -6.90187,11.75595 -20.7056,35.26786 -20.7056,35.26786 l 19.87314,0 17.54756,-29.88877 c 2.00357,-2.8776 4.95561,-5.37909 7.59945,-6.19382 -0.0573,9.99077 7.58437,10.01484 13.32589,7.86831 3.20004,-1.19637 8.90182,-5.07954 8.90182,-5.07954 l -9.86299,16.79963 c -4.4881,7.64459 -1.79132,14.12812 0.005,16.49419 l 20.29775,0 c -3.16699,-3.69653 -3.31865,-10.92039 -0.31626,-16.03521 5.35319,-9.11961 16.06155,-27.35765 16.06155,-27.35765 l 14.11777,0 1.97271,-3.36012 -14.01605,0 11.13522,-19.13988 -20.25646,0 -13.20914,22.5 -6.84035,6.60715 -1.13839,-0.0446 c 1.17524,-5.44647 -1.91022,-9.1637 -8.17138,-9.19657 -4.93667,-0.0259 -7.46205,2.58938 -12.84983,6.70215 l -1.21458,-0.004 2.38595,-4.064 -19.87313,0 c -7.66702,0.95982 -11.8693,3.16952 -15.14429,5.93644 -3.44902,-7.12867 -11.04576,-10.23818 -19.22872,-10.28911 -17.80093,-0.11079 -36.47216,12.61269 -42.1317,28.4375 l -2.79018,0.84821 c 3.55317,-3.39553 8.74167,-19.78867 0.10851,-24.93304 -10.93098,-6.51361 -22.44726,1.7479 -22.44726,1.7479 l 14.23583,-24.2479 -20.81953,0 -31.89289,54.32319 c 0,0 -34.75443,19.32307 -37.77841,6.25717 -1.03098,-4.45462 5.54688,-13.25893 5.54688,-13.25893 3.931,6.0992 35.456,4.45974 39.79518,-13.27784 0.72274,-2.95439 -3.76735,-12.20255 -19.03626,-12.22565 -20.58023,-0.0311 -36.66584,14.73996 -41.41741,25.62626 l -5.17901,1.92825 15.77668,-26.87245 -20.78309,0 -1.86089,3.16965 c 0,0 -2.72515,-5.82626 -12.00503,-5.77009 -20.49836,0.12408 -36.68252,20.76807 -40.29998,35.1535 0.31281,0.13686 -14.45965,9.58967 -10.11229,2.18409 11.20041,-19.07952 33.60366,-57.23715 33.60366,-57.23715 l -20.50873,0 -14.1982,24.1838 c 0,0 -2.20155,-4.20396 -9.88108,-4.45563 -17.9548,-0.58842 -39.11426,18.55822 -39.66428,35.45004 -4.05536,3.42099 -14.17281,8.34845 -10.59913,2.26068 8.17716,-13.92982 20.51246,-34.93889 20.51246,-34.93889 l -19.98967,0 -7.19981,5.35715 -0.98214,-0.0893 c 0.33186,-4.42952 -3.91214,-8.23351 -8.73826,-8.15447 -5.16432,0.0846 -10.23991,3.51784 -13.43976,6.42394 l -0.94971,0.27 2.23527,-3.80733 z"
       id="path3240"
       inkscape:connector-curvature="0"
       sodipodi:nodetypes="cccsccccccsscccccscccccccscsccccsccccscccccccccscccccsccsccccscsscccccscscccscsccccscccc" />
    <path
       style="fill:none;stroke:#000000;stroke-width:1px;stroke-linecap:butt;stroke-linejoin:miter;stroke-opacity:1"
       d="m 439.67227,443.52289 -61.68643,0 7.18143,-12.23214 c 3.63384,-5.40713 7.89669,-9.74496 13.21164,-12.29421 -1.04671,8.83883 4.27488,17.24413 19.79073,17.4951 12.22414,0.19773 29.77679,-7.68973 29.77679,-7.68973 l -0.43748,1.37277 z"
       id="path4010"
       inkscape:connector-curvature="0"
       sodipodi:nodetypes="ccccsccc" />
    <path
       style="fill:none;stroke:#000000;stroke-width:0.2;stroke-linecap:butt;stroke-linejoin:miter;stroke-miterlimit:4;stroke-opacity:1;stroke-dasharray:none"
       d="m 661.72884,437.00504 1.32582,0 0,-2.63525 2.05604,0 c 0.76726,0 1.04899,1.22406 1.02177,2.63525 l 1.19956,0 c 0,-1.41991 0.17391,-2.40179 -1.01016,-3.15611 0.78382,-0.70188 1.01016,-1.12269 1.01016,-1.81511 0,-1.0785 -0.75835,-1.85914 -1.41685,-1.85914 l -4.18634,0 z"
       id="path4012"
       inkscape:connector-curvature="0"
       sodipodi:nodetypes="cccccccsccc" />
    <path
       style="fill:none;stroke:#000000;stroke-width:0.2;stroke-linecap:butt;stroke-linejoin:miter;stroke-miterlimit:4;stroke-opacity:1;stroke-dasharray:none"
       d="m 663.05466,431.29075 0,2.08467 2.14658,0 c 1.20768,-0.39062 1.25352,-2.08467 0.0112,-2.08467 z"
       id="path4014"
       inkscape:connector-curvature="0"
       sodipodi:nodetypes="ccccc" />
    <path
       style="fill:none;stroke:#000000;stroke-width:0.2;stroke-linecap:butt;stroke-linejoin:miter;stroke-opacity:1;stroke-miterlimit:4;stroke-dasharray:none"
       d="m 664.46429,425.88897 c -3.82384,0 -7.38801,3.17162 -7.41072,7.48645 -0.0238,4.52958 3.46143,7.74615 7.45536,7.7814 4.10719,0.0362 7.40561,-3.25799 7.36607,-7.7814 -0.0395,-4.52341 -3.58687,-7.48645 -7.41071,-7.48645 z"
       id="path4016"
       inkscape:connector-curvature="0"
       sodipodi:nodetypes="zsszz" />
    <path
       sodipodi:type="arc"
       style="fill:none;stroke:#000000;stroke-width:0.2;stroke-miterlimit:4;stroke-opacity:1;stroke-dasharray:none"
       id="path4020"
       sodipodi:cx="664.1048"
       sodipodi:cy="432.54074"
       sodipodi:rx="5.6226783"
       sodipodi:ry="5.7589293"
       d="m 669.72748,432.54074 a 5.6226783,5.7589293 0 1 1 -11.24536,0 5.6226783,5.7589293 0 1 1 11.24536,0 z"
       transform="matrix(1.0275139,0,0,1.003607,-17.937196,-0.46642207)" />
    <path
       style="fill:none;stroke:#000000;stroke-width:1px;stroke-linecap:butt;stroke-linejoin:miter;stroke-opacity:1"
       d="m 539.82143,407.54075 c 4.29083,-7.65181 12.0579,-17.77414 17.72276,-17.77414 10.19472,0 3.06251,13.96826 -0.22276,20.45271 -4.10668,8.10576 -11.13651,19.95536 -18.57143,19.95536 -10.62228,0 -2.62285,-16.04595 1.07143,-22.63393 z"
       id="path4022"
       inkscape:connector-curvature="0"
       sodipodi:nodetypes="sssss" />
    <path
       style="fill:none;stroke:#000000;stroke-width:1;stroke-linecap:butt;stroke-linejoin:miter;stroke-miterlimit:4;stroke-opacity:1;stroke-dasharray:none"
       d="m 272.23214,383.43361 c -3.30556,-3.51174 -1.24029,-10.2539 2.81251,-13.78972 3.82827,-3.33993 10.30631,-4.24299 13.76785,-0.65671 3.39468,3.51701 3.18825,8.16613 -0.46761,12.26438 -4.09657,4.59229 -12.06923,6.47779 -16.11275,2.18205 z"
       id="path4037"
       inkscape:connector-curvature="0"
       sodipodi:nodetypes="sssss" />
    <path
       style="fill:none;stroke:#000000;stroke-width:1px;stroke-linecap:butt;stroke-linejoin:miter;stroke-opacity:1"
       d="m 481.02415,408.55013 c 3.89389,-6.63247 10.76703,-15.25544 16.37429,-15.18013 7.72764,0.10379 1.38005,13.82475 -1.6282,19.67927 -3.38144,6.5808 -11.71373,14.12985 -16.91868,14.3676 -9.14971,0.41793 -1.03246,-13.40758 2.17259,-18.86674 z"
       id="path4039"
       inkscape:connector-curvature="0"
       sodipodi:nodetypes="ssass" />
    <path
       style="fill:none;stroke:#000000;stroke-width:1;stroke-linecap:butt;stroke-linejoin:miter;stroke-miterlimit:4;stroke-opacity:1;stroke-dasharray:none"
       d="m 424.05604,408.66738 c -0.20828,0.38847 -0.21591,2.23283 0.0313,2.52573 3.86872,4.58457 8.80089,2.19528 12.02082,-0.17678 4.35304,-3.2068 7.2756,-11.1836 7.24784,-13.74344 -0.0238,-2.19134 -0.78748,-4.13202 -3.36376,-3.92633 -7.30438,1.718 -12.24337,9.58887 -15.93615,15.32082 z"
       id="path4054"
       inkscape:connector-curvature="0"
       sodipodi:nodetypes="cssscc" />
    <path
       style="fill:none;stroke:#000000;stroke-width:1px;stroke-linecap:butt;stroke-linejoin:miter;stroke-opacity:1"
       d="m 347.60927,459.73488 c 0.04,-0.08 -13.82331,0.79209 -19.51172,5.02157 -7.6992,5.72455 -4.74525,13.75402 5.39168,10.51821 7.89766,-2.52102 14.5682,-15.53978 14.12004,-15.53978 z"
       id="path4056"
       inkscape:connector-curvature="0"
       sodipodi:nodetypes="cssc" />
    <path
       style="fill:none;stroke:#000000;stroke-width:1;stroke-linecap:butt;stroke-linejoin:miter;stroke-miterlimit:4;stroke-opacity:1;stroke-dasharray:none"
       d="m 380.44489,403.3761 c 5.69258,-14.09666 -7.33608,-11.05856 -11.40838,-6.10321 -3.85126,4.68639 -6.61429,8.21563 -11.91151,17.77679 -1.76167,3.1797 -3.54904,8.48223 -0.8125,10.875 3.06983,2.68418 9.21383,0.39979 11.96875,-2.53125 5.15995,-5.48982 10.87991,-16.83839 12.16364,-20.01733 z"
       id="path4058"
       inkscape:connector-curvature="0"
       sodipodi:nodetypes="sssass" />
    <path
       style="fill:none;stroke:#000000;stroke-width:1;stroke-linecap:butt;stroke-linejoin:miter;stroke-miterlimit:4;stroke-opacity:1;stroke-dasharray:none"
       d="m 294.68675,414.90542 c 3.10053,-5.62206 7.79198,-12.23605 12.37437,-17.63253 2.23637,-2.63368 5.64895,-4.97082 9.104,-4.95535 2.41082,0.0108 4.99213,1.99173 4.50872,4.95535 -0.63,3.86227 -5.69379,11.8635 -8.51759,17.80804 -3.43279,7.22657 -9.4255,12.75444 -14.28125,12.75444 -7.1455,0 -5.42243,-8.87881 -3.18825,-12.92995 z"
       id="path4060"
       inkscape:connector-curvature="0"
       sodipodi:nodetypes="sssssss" />
  </g>
</svg>
