<?xml version="1.0" encoding="UTF-8" standalone="no"?>
<!-- Created with Inkscape (http://www.inkscape.org/) -->

<svg
   xmlns:dc="http://purl.org/dc/elements/1.1/"
   xmlns:cc="http://creativecommons.org/ns#"
   xmlns:rdf="http://www.w3.org/1999/02/22-rdf-syntax-ns#"
   xmlns:svg="http://www.w3.org/2000/svg"
   xmlns="http://www.w3.org/2000/svg"
   xmlns:sodipodi="http://sodipodi.sourceforge.net/DTD/sodipodi-0.dtd"
   xmlns:inkscape="http://www.inkscape.org/namespaces/inkscape"
   id="svg3104"
   version="1.1"
   inkscape:version="0.48.4 r9939"
   width="1408"
   height="297"
   sodipodi:docname="heathkit.svg">
  <metadata
     id="metadata3110">
    <rdf:RDF>
      <cc:Work
         rdf:about="">
        <dc:format>image/svg+xml</dc:format>
        <dc:type
           rdf:resource="http://purl.org/dc/dcmitype/StillImage" />
        <dc:title></dc:title>
      </cc:Work>
    </rdf:RDF>
  </metadata>
  <defs
     id="defs3108" />
  <sodipodi:namedview
     pagecolor="#ffffff"
     bordercolor="#666666"
     borderopacity="1"
     objecttolerance="10"
     gridtolerance="10"
     guidetolerance="10"
     inkscape:pageopacity="0"
     inkscape:pageshadow="2"
     inkscape:window-width="1024"
     inkscape:window-height="720"
     id="namedview3106"
     showgrid="false"
     showguides="true"
     inkscape:guide-bbox="true"
     inkscape:zoom="3.8863636"
     inkscape:cx="660.14859"
     inkscape:cy="45.450469"
     inkscape:window-x="0"
     inkscape:window-y="0"
     inkscape:window-maximized="1"
     inkscape:current-layer="svg3104">
    <sodipodi:guide
       orientation="0,1"
       position="504.32749,69.988304"
       id="guide3114" />
    <sodipodi:guide
       orientation="0,1"
       position="244.53489,222.70142"
       id="guide3116" />
    <sodipodi:guide
       orientation="0,1"
       position="319.06433,127.62573"
       id="guide3118" />
    <sodipodi:guide
       orientation="0,1"
       position="590.78363,143.06433"
       id="guide3120" />
    <sodipodi:guide
       orientation="0,1"
       position="532.11696,84.397661"
       id="guide3122" />
    <sodipodi:guide
       orientation="0.93999073,-0.34119998"
       position="796.92175,222.70142"
       id="guide3124" />
    <sodipodi:guide
       orientation="0,1"
       position="107.55556,205.84795"
       id="guide3126" />
    <sodipodi:guide
       orientation="0.93999073,-0.34119998"
       position="783.09388,143.06433"
       id="guide3128" />
    <sodipodi:guide
       orientation="0.93999073,-0.34119998"
       position="678.293,222.70142"
       id="guide3130" />
    <sodipodi:guide
       orientation="0.93999073,-0.34119998"
       position="632.443,143.06433"
       id="guide3132" />
    <sodipodi:guide
       orientation="0.93999073,-0.34119998"
       position="797.64953,84.397661"
       id="guide3134" />
    <sodipodi:guide
       orientation="0.93999073,-0.34119998"
       position="821.666,109.89515"
       id="guide3136" />
    <sodipodi:guide
       orientation="0.93999073,-0.34119998"
       position="949.756,143.06433"
       id="guide3138" />
    <sodipodi:guide
       orientation="0.93999073,-0.34119998"
       position="1122.241,127.62573"
       id="guide3140" />
    <sodipodi:guide
       orientation="0.93999073,-0.34119998"
       position="1136.7961,127.62573"
       id="guide3142" />
    <sodipodi:guide
       orientation="0.93999073,-0.34119998"
       position="1263.4303,163.02326"
       id="guide3148" />
    <sodipodi:guide
       orientation="0.93999073,-0.34119998"
       position="1258.336,105.52845"
       id="guide3150" />
    <sodipodi:guide
       orientation="0.93999073,-0.34119998"
       position="986.14518,205.84795"
       id="guide3152" />
    <sodipodi:guide
       orientation="0.93999073,-0.34119998"
       position="514.542,127.62573"
       id="guide3154" />
    <sodipodi:guide
       orientation="0.93999073,-0.34119998"
       position="205.23464,127.62573"
       id="guide3156" />
    <sodipodi:guide
       orientation="0.93999073,-0.34119998"
       position="202.32351,162.29548"
       id="guide3158" />
    <sodipodi:guide
       orientation="0.93999073,-0.34119998"
       position="158.65657,166.66217"
       id="guide3160" />
    <sodipodi:guide
       orientation="0.93999073,-0.34119998"
       position="141.19,159.38435"
       id="guide3162" />
  </sodipodi:namedview>
  <path
     style="fill:none;stroke:#000000;stroke-width:1px;stroke-linecap:butt;stroke-linejoin:miter;stroke-opacity:1"
     d="m 107.55556,91.15205 32.36061,0 c 20.01203,0 18.13929,0 12.21037,16.33393 L 138.33103,145.492 c -3.06491,8.44367 -3.06491,8.44367 -17.70109,8.44367 l -6.73199,0 c -22.753987,2.12067 -30.904709,15.4386 -25.472386,15.4386 l 31.112696,0 c 10.10922,0.0511 10.12392,0 6.39257,10.2797 l -17.19001,47.35773 14.82485,0 18.81855,-51.84428 c 2.10281,-5.79315 2.10281,-5.79315 12.45149,-5.79315 l 23.10709,0 c 11.79621,0 11.79621,0 7.59397,11.57696 l -9.13837,25.17581 c -7.58076,20.88466 7.91488,20.88466 23.55982,20.88466 l 87.69778,0 c 12.50785,0 24.33818,0 31.47659,-5.88302 3.16313,2.01751 2.33909,5.88302 26.20017,5.88302 l 52.58228,0 c 19.4497,0 26.55838,-5.39424 31.1127,-14.40936 l -82.9672,0 c -9.00439,0 -8.85968,-2.45627 -9.91604,-2.83271 l 6.09518,-7.56329 c 9.48093,-12.47327 20.91933,-51.69977 0.90973,-52.94617 -19.60518,-4.57008 -32.56688,37.13241 -32.7502,44.94056 -0.18332,7.80816 2.09237,16.47863 2.09237,16.47863 -3.97248,1.92298 -8.12691,1.92298 -19.01332,1.92298 l -89.15335,0 c -14.78129,0 -14.78129,0 -9.82486,-13.65476 l 45.24538,-124.649 -15.49563,0 -26.7317,73.64463 c -2.17516,5.99246 -2.17516,5.99246 -9.2044,5.99246 l -28.56546,0 c -9.65727,0 -9.65727,0 -5.47261,-11.52856 L 169.67786,99.974677 C 177.21053,79.222499 169.55708,74.29858 152.47042,74.29858 l -68.229605,0 C 48.482413,84.420063 62.603604,91.15205 64.408744,91.15205 z"
     id="path3164"
     inkscape:connector-curvature="0"
     sodipodi:nodetypes="cccccccccccccccccccccccccczccccccccccccccc" />
  <path
     style="fill:none;stroke:#000000;stroke-width:1px;stroke-linecap:butt;stroke-linejoin:miter;stroke-opacity:1"
     d="m 323.49929,179.46314 c 6.33251,-18.61838 20.12523,-23.06344 15.46537,5.27642 -2.30279,8.51024 -6.67705,14.6531 -12.3723,19.28623 -5.58966,-2.85138 -6.30947,-15.10602 -3.09307,-24.56265 z"
     id="path3166"
     inkscape:connector-curvature="0"
     sodipodi:nodetypes="sccs" />
  <path
     style="fill:none;stroke:#000000;stroke-width:1px;stroke-linecap:butt;stroke-linejoin:miter;stroke-opacity:1"
     d="m 498.34901,168.45543 c -4.42739,0.2057 -5.51377,-3.5162 -6.24375,-7.70104 -1.63878,-9.39483 -7.31434,-4.83634 -14.40936,-1.28655 -14.4675,7.2384 -31.23832,22.79163 -38.21052,38.98245 -11.5333,26.7826 10.32701,36.8603 27.40351,21.22807 4.61853,-4.22791 8.39401,-14.64749 11.32164,-13.50877 l 5.91813,6.43275 c -2.64142,14.40936 5.57932,14.65516 13.63742,14.40936 l 69.98831,0 c 17.14038,0 30.25578,-2.83041 36.92397,-14.40936 l -94.43274,0 c -11.39464,0 -11.39464,0 -6.36061,-13.86855 l 16.26093,-44.79812 -15.17518,0 z"
     id="path3187"
     inkscape:connector-curvature="0"
     sodipodi:nodetypes="csssscccccccccc" />
  <path
     style="fill:none;stroke:#000000;stroke-width:1px;stroke-linecap:butt;stroke-linejoin:miter;stroke-opacity:1"
     d="m 495.96491,173.10526 c 0.1429,-5.58475 -10.00457,-6.99308 -15.82456,-5.4035 -13.78782,3.76576 -22.3877,16.54625 -25.50896,24.83041 -3.47425,9.22104 -6.57025,22.83679 10.19902,18.14034 5.50734,-1.5424 30.88489,-27.8118 31.1345,-37.56725 z"
     id="path3189"
     inkscape:connector-curvature="0"
     sodipodi:nodetypes="sssss" />
  <path
     style="fill:none;stroke:#000000;stroke-width:1px;stroke-linecap:butt;stroke-linejoin:miter;stroke-opacity:1"
     d="m 661.34985,74.29858 -24.30553,66.96065 c -4.60132,12.67644 -4.60132,12.67644 -14.12179,12.67644 l -14.38452,0 c -14.288,0 -23.18829,10.14028 -22.90058,15.4386 l 34.47953,0 c 6.4996,-0.0642 6.7221,0 4.34774,6.54126 l -8.5057,23.43283 c -8.4999,23.41683 -0.13487,27.66334 21.65504,27.66334 l 55.57894,0 c 29.74782,0 38.09904,-5.19792 46.31579,-14.40936 l -95.20468,0 c -16.2129,0 -16.2129,0 -10.19678,-16.57416 l 7.8455,-21.614 c 1.8294,-5.03991 1.8294,-5.03991 9.55596,-5.03991 33.60428,0 34.62972,-15.4386 34.47954,-15.4386 l -25.731,0 c -10.87116,0 -10.87116,0 -6.88778,-10.97404 L 678.293,74.29858 z"
     id="path3191"
     inkscape:connector-curvature="0"
     sodipodi:nodetypes="cccccccccccccccccccc" />
  <path
     style="fill:none;stroke:#000000;stroke-width:1px;stroke-linecap:butt;stroke-linejoin:miter;stroke-opacity:1"
     d="m 973.04509,194.38268 c 0.19689,0.49222 23.4355,-4.13366 27.10991,-15.10148 7.815,-23.32739 -10.99747,-16.15289 -17.28484,-9.90693 -7.50674,7.4573 -39.44809,39.47803 -39.44809,39.47803 l -6.59153,18.1594 -13.59984,0 55.43215,-152.71312 13.59984,0 c 0,0 -18.87177,51.9909 -28.90685,79.63709 -2.83457,7.80912 -1.12779,18.30645 10.88751,7.63058 4.64666,-4.12867 23.44743,-18.10035 34.82695,-13.03386 8.9834,3.99968 12.3549,17.74872 6.914,26.92795 -5.9536,10.04419 -21.30669,18.89097 -28.74745,20.01401 0.25622,10.73738 5.9884,17.12799 27.29185,17.12799 27.9587,0 84.0589,0 84.0589,0 0,0 0.3659,14.40936 -28.0197,14.40936 -21.4564,0 -44.0144,0 -66.2282,0 -9.54477,0 -18.63739,-7.07417 -24.74456,-14.40936 -4.1294,-4.95974 -6.55005,-18.21966 -6.55005,-18.21966 z"
     id="path3193"
     inkscape:connector-curvature="0"
     sodipodi:nodetypes="csscccccsssscscsssc" />
  <path
     style="fill:none;stroke:#000000;stroke-width:1px;stroke-linecap:butt;stroke-linejoin:miter;stroke-opacity:1"
     d="m 796.92175,74.29858 -55.43216,152.71312 15.07899,0 c 0,0 25.1029,-39.05383 37.14058,-48.3022 7.33656,-5.63657 18.01026,-4.86908 12.43451,10.49186 -2.95849,8.1505 -5.47029,15.07039 -8.49414,23.40098 -2.96134,8.15836 -0.53714,14.40936 13.82787,14.40936 23.56723,1e-5 45.56311,3e-5 68.04765,0 3.47369,0 43.19247,-0.20752 40.75582,-14.40936 -26.61799,0 -57.56657,0 -91.33669,0 -6.19628,0 -16.53332,0 -11.1287,-14.88949 3.18116,-8.76396 5.37759,-14.81502 8.25268,-22.73575 6.92991,-19.09158 3.15111,-27.88279 -15.31854,-16.25576 -6.12561,3.8562 -8.80063,5.31298 -16.34925,10.65293 -13.42382,9.49612 -23.61347,14.27241 -14.07159,-7.82088 16.35005,-37.85696 31.67195,-87.25481 31.67195,-87.25481 z"
     id="path3195"
     inkscape:connector-curvature="0"
     sodipodi:nodetypes="cccssssscsssssscc" />
  <path
     style="fill:none;stroke:#000000;stroke-width:1px;stroke-linecap:butt;stroke-linejoin:miter;stroke-opacity:1"
     d="m 1285.0924,74.29858 -24.8562,68.47763 c -4.0506,11.15946 -4.0506,11.15946 -9.7099,11.15946 l -14.924,0 c -18.7972,0 -24.1871,15.4386 -24.1871,15.4386 l 30.8772,0 c 8.2892,0 8.2892,0 5.9574,6.42411 l -9.2857,25.58178 c -6.2532,17.22725 1.6828,25.63154 21.34,25.63154 l 51.462,0 c 35.364,0 42.1988,-14.40936 42.1988,-14.40936 l -84.3976,0 c -14.562,0 -18.9014,0 -11.2313,-21.13079 l 5.755,-15.85484 c 2.2659,-6.24244 2.2659,-6.24244 9.0786,-6.24244 l 2.4375,0 c 24.6619,0 28.9543,-15.4386 28.9543,-15.4386 l -23.6725,0 c -8.928,0 -8.928,0 -5.6367,-9.06759 l 25.6155,-70.5695 z"
     id="path3197"
     inkscape:connector-curvature="0"
     sodipodi:nodetypes="ccccccccccccccccccccc" />
  <path
     style="fill:none;stroke:#000000;stroke-width:1px;stroke-linecap:butt;stroke-linejoin:miter;stroke-opacity:1"
     d="m 1127.8449,153.93567 14.5551,0 c 0,0 -9.3698,25.81335 -15.3417,42.26576 -3.7838,10.42435 -5.9532,16.40091 12.2851,16.40091 29.4752,0 88.4255,0 88.4255,0 0,0 -2.8523,14.40936 -36.753,14.40936 -20.5127,0 -37.0129,0 -60.4059,0 -11.7297,0 -26.3624,-8.06628 -18.4034,-29.99313 6.1583,-16.96576 15.6383,-43.0829 15.6383,-43.0829 z"
     id="path3199"
     inkscape:connector-curvature="0"
     sodipodi:nodetypes="ccsscsssc" />
  <path
     style="fill:none;stroke:#000000;stroke-width:1px;stroke-linecap:butt;stroke-linejoin:miter;stroke-opacity:1"
     d="m 1138.0045,125.9464 c 1.7061,-4.70005 7.607,-6.33933 10.6272,-1.62193 3.9413,6.15609 -1.8363,15.01967 -6.2706,13.84616 -4.0804,-1.07986 -5.6508,-8.65865 -4.3566,-12.22423 z"
     id="path3201"
     inkscape:connector-curvature="0"
     sodipodi:nodetypes="ssss" />
</svg>
