<?xml version="1.0" encoding="UTF-8" standalone="no"?>
<!-- Created with Inkscape (http://www.inkscape.org/) -->

<svg
   xmlns:dc="http://purl.org/dc/elements/1.1/"
   xmlns:cc="http://creativecommons.org/ns#"
   xmlns:rdf="http://www.w3.org/1999/02/22-rdf-syntax-ns#"
   xmlns:svg="http://www.w3.org/2000/svg"
   xmlns="http://www.w3.org/2000/svg"
   xmlns:sodipodi="http://sodipodi.sourceforge.net/DTD/sodipodi-0.dtd"
   xmlns:inkscape="http://www.inkscape.org/namespaces/inkscape"
   width="744.09448819"
   height="1052.3622047"
   id="svg3836"
   version="1.1"
   inkscape:version="0.48.4 r9939"
   sodipodi:docname="New document 4">
  <defs
     id="defs3838" />
  <sodipodi:namedview
     id="base"
     pagecolor="#ffffff"
     bordercolor="#666666"
     borderopacity="1.0"
     inkscape:pageopacity="0.0"
     inkscape:pageshadow="2"
     inkscape:zoom="0.49497475"
     inkscape:cx="360.56053"
     inkscape:cy="301.60918"
     inkscape:document-units="px"
     inkscape:current-layer="layer1"
     showgrid="false"
     inkscape:window-width="1024"
     inkscape:window-height="720"
     inkscape:window-x="0"
     inkscape:window-y="0"
     inkscape:window-maximized="1" />
  <metadata
     id="metadata3841">
    <rdf:RDF>
      <cc:Work
         rdf:about="">
        <dc:format>image/svg+xml</dc:format>
        <dc:type
           rdf:resource="http://purl.org/dc/dcmitype/StillImage" />
        <dc:title></dc:title>
      </cc:Work>
    </rdf:RDF>
  </metadata>
  <g
     inkscape:label="Layer 1"
     inkscape:groupmode="layer"
     id="layer1">
    <path
       style="fill:none;stroke:#000000;stroke-width:0.2;stroke-linecap:butt;stroke-linejoin:miter;stroke-miterlimit:4;stroke-opacity:1;stroke-dasharray:none"
       d="m 247.93585,825.35948 0,6.4315 c 4.6063,0.9522 9.2126,0.8806 13.8189,0 l 0,-6.3125 c 5.86547,-1.5127 10.59818,-4.5251 14.46386,-8.7041 l 5.47626,3.1617 c 2.43336,-3.1438 4.68393,-6.4181 5.96361,-10.3859 l -5.47998,-3.1639 c 1.75768,-5.4702 2.06527,-12.1905 -0.0163,-17.7232 l 5.47389,-3.1604 c -1.1922,-3.5155 -3.10284,-7.32802 -5.98482,-10.37363 l -5.46876,3.15739 c -3.51878,-4.02111 -8.4265,-7.05371 -14.42772,-8.70387 l 0,-6.40815 c -4.60629,-0.78209 -9.21259,-0.75198 -13.81889,0.13258 l 0,6.31977 c -4.91874,1.06554 -9.75794,3.88014 -14.51001,8.61217 l -5.42161,-3.13017 c -2.96464,3.45617 -4.68583,6.91231 -5.99369,10.36851 l 5.5159,3.1846 c -2.27056,6.7968 -1.67265,12.1995 -0.0605,17.7511 l -5.49302,3.1714 c 1.38712,3.9676 3.65045,7.2051 6.02309,10.3515 l 5.53505,-3.1956 c 3.62152,4.306 8.44999,7.1464 14.40478,8.6192 z"
       id="path3815"
       inkscape:connector-curvature="0"
       sodipodi:nodetypes="ccccccccccccccccccccccccc" />
    <path
       inkscape:connector-curvature="0"
       d="m 274.44032,543.74532 a 72.385932,72.385932 0 0 0 -10.2626,26.17737 l -0.0395,0.53041 a 227.29368,227.29368 0 0 0 -11.03784,-0.18471 l -0.0218,-0.53145 a 72.386301,72.386301 0 0 0 -9.38061,-26.50638 254.55328,254.55328 0 0 0 -9.20258,0.56946 72.386058,72.386058 0 0 0 -6.04116,27.46056 l 0.044,0.53007 a 227.29371,227.29371 0 0 0 -10.93087,1.54415 l -0.10456,-0.52143 a 72.38608,72.38608 0 0 0 -13.4117,-24.71245 254.55132,254.55132 0 0 0 -9.00013,2.00201 72.385858,72.385858 0 0 0 -1.67105,28.06745 l 0.12632,0.51671 a 227.29443,227.29443 0 0 0 -10.55475,3.23512 l -0.18483,-0.49875 a 72.385996,72.385996 0 0 0 -17.1124,-22.31015 254.55071,254.55071 0 0 0 -8.57613,3.38529 72.386051,72.386051 0 0 0 2.74018,27.98338 l 0.20555,0.49057 a 227.29246,227.29246 0 0 0 -9.91863,4.8464 l -0.2606,-0.46362 a 72.38597,72.38597 0 0 0 -20.39174,-19.35855 254.55197,254.55197 0 0 0 -7.94103,4.68518 72.386098,72.386098 0 0 0 7.08403,27.21022 l 0.27983,0.45234 a 227.2947,227.2947 0 0 0 -9.03848,6.33838 l -0.32993,-0.41721 a 72.385828,72.385828 0 0 0 -23.16899,-15.9302 254.55425,254.55425 0 0 0 -7.1104,5.86981 72.38602,72.38602 0 0 0 11.25354,25.76695 l 0.34708,0.40305 a 227.29311,227.29311 0 0 0 -7.93562,7.67421 l -0.39107,-0.36045 a 72.386024,72.386024 0 0 0 -25.37587,-12.10961 254.55299,254.55299 0 0 0 -6.10462,6.90979 72.386324,72.386324 0 0 0 15.14586,23.68939 l 0.40582,0.34375 a 227.29296,227.29296 0 0 0 -6.63734,8.82118 l -0.44278,-0.29481 a 72.38607,72.38607 0 0 0 -26.95779,-7.991 254.55426,254.55426 0 0 0 -4.94843,7.7798 72.386125,72.386125 0 0 0 18.66519,21.02834 l 0.45464,0.27603 a 227.29299,227.29299 0 0 0 -5.17576,9.75084 l -0.48331,-0.22191 a 72.38626,72.38626 0 0 0 -27.87606,-3.67536 254.54949,254.54949 0 0 0 -3.67042,8.45797 72.385982,72.385982 0 0 0 21.72481,17.84964 l 0.4923,0.20153 a 227.29215,227.29215 0 0 0 -3.58669,10.4404 l -0.51211,-0.14348 a 72.386107,72.386107 0 0 0 -28.10776,0.73056 254.55328,254.55328 0 0 0 -2.30211,8.92815 72.385851,72.385851 0 0 0 24.24963,14.23128 l 0.51775,0.12195 a 227.29388,227.29388 0 0 0 -1.9092,10.87306 l -0.52834,-0.0616 a 72.38592,72.38592 0 0 0 -27.64735,5.11852 254.5542,254.5542 0 0 0 -0.87716,9.17839 72.385932,72.385932 0 0 0 26.17737,10.26261 l 0.53042,0.0395 a 227.29372,227.29372 0 0 0 -0.18483,11.03784 l -0.53134,0.0218 A 72.386301,72.386301 0 0 0 0.5,808.66422 a 254.5501,254.5501 0 0 0 0.56945,9.20246 72.386122,72.386122 0 0 0 27.46057,6.04128 l 0.53007,-0.044 a 227.29371,227.29371 0 0 0 1.54415,10.93086 l -0.52144,0.10457 a 72.386341,72.386341 0 0 0 -24.71256,13.4117 254.55132,254.55132 0 0 0 2.00201,9.00013 72.386154,72.386154 0 0 0 28.06757,1.67105 l 0.51671,-0.12633 a 227.29216,227.29216 0 0 0 3.23512,10.55465 l -0.49875,0.18494 a 72.385996,72.385996 0 0 0 -22.31015,17.1124 254.55071,254.55071 0 0 0 3.38528,8.57612 72.386051,72.386051 0 0 0 27.98339,-2.74017 l 0.49057,-0.20567 a 227.29459,227.29459 0 0 0 4.8464,9.91875 l -0.46362,0.2606 a 72.386174,72.386174 0 0 0 -19.35867,20.39174 254.55359,254.55359 0 0 0 4.6853,7.94103 72.386098,72.386098 0 0 0 27.21022,-7.08403 l 0.45234,-0.27983 a 227.29276,227.29276 0 0 0 6.33838,9.03836 l -0.41721,0.33004 a 72.385828,72.385828 0 0 0 -15.9302,23.169 254.55425,254.55425 0 0 0 5.86981,7.1104 72.38602,72.38602 0 0 0 25.76694,-11.25354 l 0.40306,-0.34708 a 227.29311,227.29311 0 0 0 7.67421,7.93561 l -0.36045,0.39108 a 72.386024,72.386024 0 0 0 -12.10961,25.37587 254.55088,254.55088 0 0 0 6.90979,6.1045 72.386165,72.386165 0 0 0 23.68939,-15.14574 l 0.34363,-0.40582 a 227.29296,227.29296 0 0 0 8.82118,6.63733 l -0.29469,0.44267 a 72.386354,72.386354 0 0 0 -7.99101,26.95795 254.55158,254.55158 0 0 0 7.7797,4.9484 72.386346,72.386346 0 0 0 21.02845,-18.6652 l 0.27591,-0.45464 a 227.29508,227.29508 0 0 0 9.75096,5.17574 l -0.22191,0.4833 a 72.386299,72.386299 0 0 0 -3.67548,27.8761 254.55241,254.55241 0 0 0 8.45809,3.6704 72.385982,72.385982 0 0 0 17.84964,-21.7248 l 0.20141,-0.4923 a 227.29439,227.29439 0 0 0 10.44052,3.5867 l -0.14348,0.5121 a 72.386107,72.386107 0 0 0 0.73056,28.1078 254.55021,254.55021 0 0 0 8.92804,2.3021 72.386256,72.386256 0 0 0 14.23139,-24.2498 l 0.12195,-0.5176 a 227.29388,227.29388 0 0 0 10.87306,1.9092 l -0.0617,0.5283 a 72.385974,72.385974 0 0 0 5.11864,27.6474 254.5542,254.5542 0 0 0 9.1784,0.8771 72.385932,72.385932 0 0 0 10.2626,-26.1773 l 0.0395,-0.5304 a 227.29368,227.29368 0 0 0 11.03784,0.1847 l 0.0216,0.5314 a 72.386301,72.386301 0 0 0 9.38062,26.5064 254.55328,254.55328 0 0 0 9.20258,-0.5695 72.386122,72.386122 0 0 0 6.04127,-27.4605 l -0.044,-0.5301 a 227.29371,227.29371 0 0 0 10.93086,-1.5441 l 0.10457,0.5214 a 72.385939,72.385939 0 0 0 13.41158,24.7124 254.55443,254.55443 0 0 0 9.00025,-2.002 72.385858,72.385858 0 0 0 1.67105,-28.0674 l -0.12633,-0.5167 a 227.29216,227.29216 0 0 0 10.55465,-3.2352 l 0.18494,0.4988 a 72.385996,72.385996 0 0 0 17.1124,22.3101 254.55071,254.55071 0 0 0 8.57612,-3.3852 72.386051,72.386051 0 0 0 -2.74017,-27.9834 l -0.20567,-0.4906 a 227.29459,227.29459 0 0 0 9.91875,-4.84641 l 0.2606,0.46363 a 72.38597,72.38597 0 0 0 20.39174,19.35858 254.55197,254.55197 0 0 0 7.94103,-4.6852 72.386098,72.386098 0 0 0 -7.08403,-27.21023 l -0.27983,-0.45234 a 227.29276,227.29276 0 0 0 9.03836,-6.33838 l 0.32993,0.41721 a 72.386073,72.386073 0 0 0 23.16911,15.9302 254.5518,254.5518 0 0 0 7.11028,-5.86981 72.385902,72.385902 0 0 0 -11.25342,-25.76695 l -0.34708,-0.40305 a 227.2914,227.2914 0 0 0 7.9355,-7.67421 l 0.39119,0.36044 a 72.386024,72.386024 0 0 0 25.37587,12.10962 254.55088,254.55088 0 0 0 6.1045,-6.90979 72.386165,72.386165 0 0 0 -15.14574,-23.6894 l -0.40593,-0.34374 a 227.29439,227.29439 0 0 0 6.63744,-8.82118 l 0.44267,0.2948 a 72.38607,72.38607 0 0 0 26.95779,7.99101 254.55426,254.55426 0 0 0 4.94843,-7.77981 72.385928,72.385928 0 0 0 -18.66507,-21.02833 l -0.45464,-0.27603 a 227.29299,227.29299 0 0 0 5.17575,-9.75085 l 0.48332,0.22191 a 72.385966,72.385966 0 0 0 27.87594,3.67537 254.55076,254.55076 0 0 0 3.67053,-8.45797 72.386211,72.386211 0 0 0 -21.72492,-17.84964 l -0.49218,-0.20153 a 227.29138,227.29138 0 0 0 3.58658,-10.4404 l 0.51222,0.14348 a 72.386107,72.386107 0 0 0 28.10775,-0.73056 254.55328,254.55328 0 0 0 2.30211,-8.92816 72.386106,72.386106 0 0 0 -24.24974,-14.23127 l -0.51764,-0.12196 a 227.29388,227.29388 0 0 0 1.9092,-10.87305 l 0.52823,0.0616 a 72.386211,72.386211 0 0 0 27.64746,-5.11852 254.5542,254.5542 0 0 0 0.87716,-9.1784 72.386208,72.386208 0 0 0 -26.17748,-10.2626 l -0.5303,-0.0395 a 227.29368,227.29368 0 0 0 0.18471,-11.03784 l 0.53145,-0.0218 a 72.386021,72.386021 0 0 0 26.50626,-9.38061 254.5501,254.5501 0 0 0 -0.56945,-9.20247 72.386122,72.386122 0 0 0 -27.46057,-6.04127 l -0.52996,0.044 a 227.29404,227.29404 0 0 0 -1.54426,-10.93087 l 0.52155,-0.10456 a 72.38608,72.38608 0 0 0 24.71245,-13.4117 254.55132,254.55132 0 0 0 -2.00201,-9.00013 72.386154,72.386154 0 0 0 -28.06757,-1.67105 l -0.51659,0.12632 a 227.29443,227.29443 0 0 0 -3.23512,-10.55476 l 0.49863,-0.18482 a 72.386232,72.386232 0 0 0 22.31026,-17.1124 254.55071,254.55071 0 0 0 -3.38528,-8.57613 72.386051,72.386051 0 0 0 -27.98338,2.74018 l -0.49057,0.20567 a 227.29459,227.29459 0 0 0 -4.84641,-9.91875 l 0.46363,-0.2606 a 72.38597,72.38597 0 0 0 19.35854,-20.39174 254.55197,254.55197 0 0 0 -4.68518,-7.94103 72.386098,72.386098 0 0 0 -27.21021,7.08403 l -0.45234,0.27983 a 227.29276,227.29276 0 0 0 -6.33838,-9.03836 l 0.4171,-0.33005 a 72.385996,72.385996 0 0 0 15.93031,-23.16899 254.55425,254.55425 0 0 0 -5.86981,-7.1104 72.386292,72.386292 0 0 0 -25.76706,11.25354 l -0.40294,0.34708 a 227.29311,227.29311 0 0 0 -7.67421,-7.93562 l 0.36033,-0.39107 a 72.386151,72.386151 0 0 0 12.10973,-25.37587 254.55088,254.55088 0 0 0 -6.90979,-6.1045 72.386165,72.386165 0 0 0 -23.68939,15.14574 l -0.34375,0.40582 a 227.29296,227.29296 0 0 0 -8.82118,-6.63734 l 0.2948,-0.44266 a 72.38627,72.38627 0 0 0 7.9909,-26.95791 254.55158,254.55158 0 0 0 -7.7797,-4.94843 72.386125,72.386125 0 0 0 -21.02833,18.66519 l -0.27603,0.45464 a 227.29299,227.29299 0 0 0 -9.75085,-5.17576 l 0.22191,-0.48331 a 72.38626,72.38626 0 0 0 3.67537,-27.87606 254.54949,254.54949 0 0 0 -8.45797,-3.67041 72.385982,72.385982 0 0 0 -17.84964,21.7248 l -0.20153,0.4923 a 227.29215,227.29215 0 0 0 -10.44041,-3.58669 l 0.14349,-0.51211 a 72.386107,72.386107 0 0 0 -0.73056,-28.10775 254.55328,254.55328 0 0 0 -8.92816,-2.30212 72.385851,72.385851 0 0 0 -14.23127,24.24964 l -0.12207,0.51774 a 227.29154,227.29154 0 0 0 -10.87294,-1.90919 l 0.0616,-0.52834 a 72.385974,72.385974 0 0 0 -5.11864,-27.64736 254.55103,254.55103 0 0 0 -9.17828,-0.87715 z"
       style="fill:none;stroke:#000000"
       id="path3906" />
  </g>
</svg>
