<?xml version="1.0" encoding="UTF-8" standalone="no"?>
<!-- Created with Inkscape (http://www.inkscape.org/) -->

<svg
   xmlns:dc="http://purl.org/dc/elements/1.1/"
   xmlns:cc="http://creativecommons.org/ns#"
   xmlns:rdf="http://www.w3.org/1999/02/22-rdf-syntax-ns#"
   xmlns:svg="http://www.w3.org/2000/svg"
   xmlns="http://www.w3.org/2000/svg"
   xmlns:sodipodi="http://sodipodi.sourceforge.net/DTD/sodipodi-0.dtd"
   xmlns:inkscape="http://www.inkscape.org/namespaces/inkscape"
   width="744.09448819"
   height="1052.3622047"
   id="svg2"
   version="1.1"
   inkscape:version="0.48.4 r9939"
   sodipodi:docname="TORQ3.svg">
  <defs
     id="defs4" />
  <sodipodi:namedview
     id="base"
     pagecolor="#ffffff"
     bordercolor="#666666"
     borderopacity="1.0"
     inkscape:pageopacity="0.0"
     inkscape:pageshadow="2"
     inkscape:zoom="1.8101934"
     inkscape:cx="424.18689"
     inkscape:cy="586.09956"
     inkscape:document-units="px"
     inkscape:current-layer="layer1"
     showgrid="false"
     showguides="true"
     inkscape:guide-bbox="true"
     inkscape:window-width="1024"
     inkscape:window-height="720"
     inkscape:window-x="0"
     inkscape:window-y="0"
     inkscape:window-maximized="1">
    <sodipodi:guide
       orientation="-0.0085345564,0.99996358"
       position="225.61856,537.73664"
       id="guide3054" />
    <sodipodi:guide
       orientation="-0.0085345564,0.99996358"
       position="375.89286,565.71429"
       id="guide3056" />
    <sodipodi:guide
       orientation="-0.0085345564,0.99996358"
       position="377.03944,544.851"
       id="guide3060" />
    <sodipodi:guide
       orientation="-0.0085345564,0.99996358"
       position="212.40825,542.00011"
       id="guide3062" />
    <sodipodi:guide
       orientation="-0.0085345564,0.99996358"
       position="214.34174,535.92341"
       id="guide3066" />
    <sodipodi:guide
       orientation="-0.0085345564,0.99996358"
       position="316.96429,524.821"
       id="guide3068" />
    <sodipodi:guide
       orientation="-0.0085345564,0.99996358"
       position="410.50074,520.35483"
       id="guide3072" />
    <sodipodi:guide
       orientation="-0.0085345564,0.99996358"
       position="449.26535,468.20571"
       id="guide3074" />
    <sodipodi:guide
       orientation="0.97466759,-0.2236584"
       position="474.46473,566.55559"
       id="guide3076" />
    <sodipodi:guide
       orientation="0.97466759,-0.2236584"
       position="509.107,566.85125"
       id="guide3078" />
    <sodipodi:guide
       orientation="0.97466759,-0.2236584"
       position="476.83,566.57577"
       id="guide3080" />
    <sodipodi:guide
       orientation="0.97466759,-0.2236584"
       position="482.35,555.0722"
       id="guide3082" />
    <sodipodi:guide
       orientation="0.97466759,-0.2236584"
       position="499.526,555.21879"
       id="guide3084" />
    <sodipodi:guide
       orientation="0.97466759,-0.2236584"
       position="458.111,566.41601"
       id="guide3086" />
    <sodipodi:guide
       orientation="0.97466759,-0.2236584"
       position="453.309,566.37502"
       id="guide3088" />
    <sodipodi:guide
       orientation="0.97466759,-0.2236584"
       position="438.27946,566.24675"
       id="guide3090" />
    <sodipodi:guide
       orientation="0.97466759,-0.2236584"
       position="434.74202,566.21656"
       id="guide3092" />
    <sodipodi:guide
       orientation="0.97466759,-0.2236584"
       position="416.43313,557.7422"
       id="guide3094" />
    <sodipodi:guide
       orientation="0.97466759,-0.2236584"
       position="411.262,557.69806"
       id="guide3096" />
    <sodipodi:guide
       orientation="0.97466759,-0.2236584"
       position="396.23155,557.56975"
       id="guide3098" />
    <sodipodi:guide
       orientation="0.97466759,-0.2236584"
       position="393.45491,557.54604"
       id="guide3100" />
    <sodipodi:guide
       orientation="0.97466759,-0.2236584"
       position="375.78026,554.16264"
       id="guide3102" />
    <sodipodi:guide
       orientation="0.97466759,-0.2236584"
       position="373.128,557.37252"
       id="guide3104" />
    <sodipodi:guide
       orientation="-0.0085345564,0.99996358"
       position="270.38293,529.84461"
       id="guide3106" />
    <sodipodi:guide
       orientation="-0.0085345564,0.99996358"
       position="224.13078,531.2531"
       id="guide3108" />
    <sodipodi:guide
       orientation="0.97466759,-0.2236584"
       position="356.43103,553.9975"
       id="guide3110" />
    <sodipodi:guide
       orientation="0.97466759,-0.2236584"
       position="352.053,553.96013"
       id="guide3112" />
    <sodipodi:guide
       orientation="0.97466759,-0.2236584"
       position="337.055,557.06458"
       id="guide3114" />
    <sodipodi:guide
       orientation="0.97466759,-0.2236584"
       position="332.5,557.0257"
       id="guide3116" />
    <sodipodi:guide
       orientation="0.97466759,-0.2236584"
       position="316.43242,553.65611"
       id="guide3118" />
    <sodipodi:guide
       orientation="0.97466759,-0.2236584"
       position="311.96237,553.61796"
       id="guide3120" />
    <sodipodi:guide
       orientation="0.97466759,-0.2236584"
       position="296.43372,556.71782"
       id="guide3122" />
    <sodipodi:guide
       orientation="0.97466759,-0.2236584"
       position="292.05371,556.68042"
       id="guide3124" />
    <sodipodi:guide
       orientation="0.97466759,-0.2236584"
       position="275.76735,553.30904"
       id="guide3126" />
    <sodipodi:guide
       orientation="0.97466759,-0.2236584"
       position="270.477,553.26389"
       id="guide3128" />
    <sodipodi:guide
       orientation="0.97466759,-0.2236584"
       position="254.30236,547.66523"
       id="guide3130" />
    <sodipodi:guide
       orientation="0.97466759,-0.2236584"
       position="252.671,556.34423"
       id="guide3132" />
    <sodipodi:guide
       orientation="0.97466759,-0.2236584"
       position="243.955,549.53541"
       id="guide3134" />
    <sodipodi:guide
       orientation="0.97466759,-0.2236584"
       position="229.10059,552.91075"
       id="guide3136" />
    <sodipodi:guide
       orientation="0.97466759,-0.2236584"
       position="222.32042,564.40357"
       id="guide3138" />
    <sodipodi:guide
       orientation="-0.0085345564,0.99996358"
       position="403.91831,503.20462"
       id="guide3140" />
    <sodipodi:guide
       orientation="0.97466759,-0.2236584"
       position="506.08203,504.07657"
       id="guide3142" />
    <sodipodi:guide
       orientation="0.97466759,-0.2236584"
       position="451.03057,503.60672"
       id="guide3144" />
    <sodipodi:guide
       orientation="0.97466759,-0.2236584"
       position="451.5625,477.90179"
       id="guide3146" />
    <sodipodi:guide
       orientation="0.97466759,-0.2236584"
       position="401.562,503.18451"
       id="guide3148" />
    <sodipodi:guide
       orientation="0.60981324,-0.79254515"
       position="504.46274,497.01994"
       id="guide3150" />
    <sodipodi:guide
       orientation="0.60981324,-0.79254515"
       position="451.90578,479.39773"
       id="guide3152" />
    <sodipodi:guide
       orientation="0.60981324,-0.79254515"
       position="395.99411,478.92053"
       id="guide3154" />
    <sodipodi:guide
       orientation="0.60981324,-0.79254515"
       position="449.653,497.60464"
       id="guide3156" />
    <sodipodi:guide
       orientation="0.97466759,-0.2236584"
       position="391.18046,478.87945"
       id="guide3158" />
    <sodipodi:guide
       orientation="-0.0085345564,0.99996358"
       position="442.44682,479.317"
       id="guide3273" />
    <sodipodi:guide
       orientation="1,0"
       position="423.50646,508.10673"
       id="guide3303" />
    <sodipodi:guide
       orientation="1,0"
       position="478.77511,503.84351"
       id="guide3305" />
    <sodipodi:guide
       orientation="0.60981324,-0.79254515"
       position="391.18046,478.87945"
       id="guide3317" />
    <sodipodi:guide
       orientation="0.97466759,-0.2236584"
       position="360.814,475.59245"
       id="guide3319" />
    <sodipodi:guide
       orientation="0.97466759,-0.2236584"
       position="373.883,512.65242"
       id="guide3321" />
    <sodipodi:guide
       orientation="0,1"
       position="371.88609,503.95018"
       id="guide3323" />
    <sodipodi:guide
       orientation="1,0"
       position="362.59662,519.94597"
       id="guide3325" />
    <sodipodi:guide
       orientation="-0.0085345564,0.99996358"
       position="220.31165,555.64966"
       id="guide5531" />
    <sodipodi:guide
       orientation="-0.0085345564,0.99996358"
       position="221.31614,552.35812"
       id="guide5533" />
    <sodipodi:guide
       orientation="-0.0085345564,0.99996358"
       position="218.97686,549.833"
       id="guide5535" />
    <sodipodi:guide
       orientation="-0.0085345564,0.99996358"
       position="222.28288,546.97196"
       id="guide5537" />
  </sodipodi:namedview>
  <metadata
     id="metadata7">
    <rdf:RDF>
      <cc:Work
         rdf:about="">
        <dc:format>image/svg+xml</dc:format>
        <dc:type
           rdf:resource="http://purl.org/dc/dcmitype/StillImage" />
        <dc:title />
      </cc:Work>
    </rdf:RDF>
  </metadata>
  <g
     inkscape:label="Layer 1"
     inkscape:groupmode="layer"
     id="layer1">
    <path
       style="fill:none;stroke:#000000;stroke-width:1px;stroke-linecap:butt;stroke-linejoin:miter;stroke-opacity:1"
       d="m 222.32042,487.95861 -1.60613,8.33214 31.95671,-0.2728 1.91258,-8.3347 -32.26316,0.27536 z"
       id="path3179"
       inkscape:connector-curvature="0" />
    <path
       style="fill:none;stroke:#000000;stroke-width:1px;stroke-linecap:butt;stroke-linejoin:miter;stroke-opacity:1"
       d="m 239.3758,522.78221 -1.24645,5.43182 -15.65962,0.13365 1.24644,-5.43181 z"
       id="path3189"
       inkscape:connector-curvature="0" />
    <path
       style="fill:none;stroke:#000000;stroke-width:1px;stroke-linecap:butt;stroke-linejoin:miter;stroke-opacity:1"
       d="m 290.3061,522.34753 -1.24644,5.43181 16.27185,-0.13887 1.24644,-5.43182 z"
       id="path3207"
       inkscape:connector-curvature="0" />
    <path
       style="fill:none;stroke:#000000;stroke-width:1px;stroke-linecap:butt;stroke-linejoin:miter;stroke-opacity:1"
       d="m 311.048,522.1705 -1.24644,5.43182 15.32436,-0.1308 1.24645,-5.43181 z"
       id="path3209"
       inkscape:connector-curvature="0" />
    <path
       style="fill:none;stroke:#000000;stroke-width:1px;stroke-linecap:butt;stroke-linejoin:miter;stroke-opacity:1"
       d="m 472.55224,494.14092 1.91249,-8.33433 -16.35373,0.13958 -1.9125,8.33435 z"
       id="path3255"
       inkscape:connector-curvature="0" />
    <path
       style="fill:none;stroke:#000000;stroke-width:1px;stroke-linecap:butt;stroke-linejoin:miter;stroke-opacity:1"
       d="m 453.309,485.98716 -1.9125,8.33435 -15.02954,0.12831 1.9125,-8.33439 15.02954,-0.12827 z"
       id="path3257"
       inkscape:connector-curvature="0" />
    <path
       style="fill:none;stroke:#000000;stroke-width:1px;stroke-linecap:butt;stroke-linejoin:miter;stroke-opacity:1"
       d="m 476.83,485.78641 -1.91249,8.33432 32.27702,-0.27554 1.91247,-8.33426 z"
       id="path3259"
       inkscape:connector-curvature="0" />
    <path
       style="fill:none;stroke:#000000;stroke-width:1px;stroke-linecap:butt;stroke-linejoin:miter;stroke-opacity:1"
       d="m 492.89514,526.03964 1.13943,-5.4309 -17.06899,0.14568 -1.24644,5.43181 z"
       id="path3269"
       inkscape:connector-curvature="0" />
    <path
       style="fill:none;stroke:#000000;stroke-width:1px;stroke-linecap:butt;stroke-linejoin:miter;stroke-opacity:1"
       d="m 285.9261,522.38491 c -0.88086,3.60152 -3.32893,5.44959 -9.19568,5.49966 l -18.96015,0.16183 c -5.77185,0.0493 -8.33616,-2.1344 -7.59681,-5.35634 z"
       id="path3279"
       inkscape:connector-curvature="0"
       sodipodi:nodetypes="ccccc" />
    <path
       style="fill:none;stroke:#000000;stroke-width:1px;stroke-linecap:butt;stroke-linejoin:miter;stroke-opacity:1"
       d="m 256.30105,495.98696 35.75266,-0.3052 c 0.73472,-3.20178 1.91256,-8.33463 -6.40702,-8.26363 l -20.82022,0.1777 c -6.61284,0.0564 -7.71009,4.83809 -8.52542,8.39113 z"
       id="path3281"
       inkscape:connector-curvature="0"
       sodipodi:nodetypes="ccccc" />
    <path
       style="fill:none;stroke:#000000;stroke-width:1px;stroke-linecap:butt;stroke-linejoin:miter;stroke-opacity:1"
       d="m 298.34628,487.30974 -1.91256,8.33463 36.06628,-0.30789 c 1.09669,-3.87794 0.63104,-7.08028 -4.46537,-8.28012 z"
       id="path3283"
       inkscape:connector-curvature="0"
       sodipodi:nodetypes="ccccc" />
    <path
       style="fill:none;stroke:#000000;stroke-width:1px;stroke-linecap:butt;stroke-linejoin:miter;stroke-opacity:1"
       d="m 337.055,495.2976 c 0.63717,-4.74724 2.76451,-8.00431 7.76869,-8.38454 l 25.17369,-0.21485 c 3.65062,1.27406 4.18229,4.33037 3.13062,8.29145 z"
       id="path3293"
       inkscape:connector-curvature="0"
       sodipodi:nodetypes="ccccc" />
    <path
       style="fill:none;stroke:#000000;stroke-width:1px;stroke-linecap:butt;stroke-linejoin:miter;stroke-opacity:1"
       d="m 426.70185,521.18341 c -0.84959,3.70236 -5.02616,5.46407 -9.88886,5.50558 l -16.92044,0.14441 c -5.56393,0.0475 -10.65516,-1.56153 -9.78865,-5.33763 z"
       id="path3297"
       inkscape:connector-curvature="0"
       sodipodi:nodetypes="ccccc" />
    <path
       style="fill:none;stroke:#000000;stroke-width:1px;stroke-linecap:butt;stroke-linejoin:miter;stroke-opacity:1"
       d="m 432.82952,494.48001 c 0.89872,-3.9165 0.38081,-8.32131 -4.3352,-8.28106 l -25,0.21337 c -3.01601,0.0257 -6.43799,4.3453 -7.26277,8.38011 z"
       id="path3301"
       inkscape:connector-curvature="0"
       sodipodi:nodetypes="ccccc" />
    <path
       style="fill:none;stroke:#000000;stroke-width:1px;stroke-linecap:butt;stroke-linejoin:miter;stroke-opacity:1"
       d="m 430.23929,521.15322 c -0.66402,2.89369 2.87555,5.39663 7.70519,5.35541 l 18.2268,-0.15556 c 6.4431,-0.055 9.52207,-2.32221 10.25328,-5.50869 z"
       id="path3309"
       inkscape:connector-curvature="0"
       sodipodi:nodetypes="ccccc" />
    <path
       style="fill:none;stroke:#000000;stroke-width:1px;stroke-linecap:butt;stroke-linejoin:miter;stroke-opacity:1"
       d="m 445.46268,573.01944 -19.76302,0.16868 23.95366,-18.43082 3.41176,-14.86789 c 0.74808,-3.26004 -0.41598,-8.24179 -10.25312,-8.15783 l -27.22154,0.23233 c -10.07616,-0.0375 -10.74106,2.88796 -12.0813,8.72853 l -1.94712,8.48523 21.94446,-0.18729 0,-3.15657 c 0,-4.12782 4.83085,-3.60368 5.56421,-2.88681 0.38134,0.37276 2.44866,3.16025 -1.25056,6.00656 l -31.826,24.48809 -2.56811,11.1914 49.46857,-0.4222 z"
       id="path3313"
       inkscape:connector-curvature="0"
       sodipodi:nodetypes="ccccccccccsccccc" />
    <path
       style="fill:none;stroke:#000000;stroke-width:1px;stroke-linecap:butt;stroke-linejoin:miter;stroke-opacity:1"
       d="m 400.73768,566.12906 c 0,0 -176.05404,-0.92086 -174.38674,-7.49134 2.02547,-7.98193 145.53514,-10.22572 145.53514,-10.22572 l 3.69601,-16.10662 0.54583,-2.37861 c -15.20033,3.80629 -18.27601,0.61359 -21.12613,-2.71023 7.59483,-0.0648 11.21711,-2.11813 11.99857,-5.52358 l -36.07299,0.30787 c -0.78345,3.41417 4.91731,5.37921 11.02605,5.32707 4.27708,6.29715 10.52138,10.18993 20.6432,9.34351 l 0,4.21232 c 0,0 -149.38122,3.72663 -154.69906,22.89693 -4.52172,16.30039 180.71479,20.89348 180.71479,20.89348 l 2.56811,-11.19141 z"
       id="path3327"
       inkscape:connector-curvature="0"
       sodipodi:nodetypes="cscccccccccsccc" />
    <path
       style="fill:none;stroke:#000000;stroke-width:1px;stroke-linecap:butt;stroke-linejoin:miter;stroke-opacity:1"
       d="m 228.9888,499.93858 -0.57599,2.51007 15.65963,-0.13365 0.57599,-2.51008 z"
       id="path5558"
       inkscape:connector-curvature="0" />
    <path
       style="fill:none;stroke:#000000;stroke-width:1px;stroke-linecap:butt;stroke-linejoin:miter;stroke-opacity:1"
       d="m 227.74851,505.34357 -0.79134,3.44854 15.65962,-0.13365 0.79135,-3.44854 z"
       id="path5560"
       inkscape:connector-curvature="0" />
    <path
       style="fill:none;stroke:#000000;stroke-width:1px;stroke-linecap:butt;stroke-linejoin:miter;stroke-opacity:1"
       d="m 225.61856,514.62554 1.00619,-4.3848 15.65963,-0.13366 -1.00619,4.38481 z"
       id="path5566"
       inkscape:connector-curvature="0" />
    <path
       style="fill:none;stroke:#000000;stroke-width:1px;stroke-linecap:butt;stroke-linejoin:miter;stroke-opacity:1"
       d="m 225.22379,516.3459 -1.09301,4.76318 15.65962,-0.13365 1.09302,-4.76319 z"
       id="path5568"
       inkscape:connector-curvature="0" />
    <path
       style="fill:none;stroke:#000000;stroke-width:1px;stroke-linecap:butt;stroke-linejoin:miter;stroke-opacity:1"
       d="m 255.44609,499.71277 -0.57599,2.51007 14.91913,-0.12733 0.57598,-2.51007 z"
       id="path5570"
       inkscape:connector-curvature="0" />
    <path
       style="fill:none;stroke:#000000;stroke-width:1px;stroke-linecap:butt;stroke-linejoin:miter;stroke-opacity:1"
       d="m 269.12492,504.99043 -0.79134,3.44854 -14.91913,0.12734 0.79135,-3.44855 z"
       id="path5572"
       inkscape:connector-curvature="0" />
    <path
       style="fill:none;stroke:#000000;stroke-width:1px;stroke-linecap:butt;stroke-linejoin:miter;stroke-opacity:1"
       d="m 268.00116,509.88759 -1.00618,4.38481 -14.91913,0.12733 1.00619,-4.3848 z"
       id="path5574"
       inkscape:connector-curvature="0" />
    <path
       style="fill:none;stroke:#000000;stroke-width:1px;stroke-linecap:butt;stroke-linejoin:miter;stroke-opacity:1"
       d="m 275.65557,499.54028 -0.57599,2.51007 15.54316,-0.13266 0.57599,-2.51007 -15.54316,0.13266 z"
       id="path5576"
       inkscape:connector-curvature="0" />
    <path
       style="fill:none;stroke:#000000;stroke-width:1px;stroke-linecap:butt;stroke-linejoin:miter;stroke-opacity:1"
       d="m 274.41527,504.94528 -0.79134,3.44854 15.54317,-0.13266 0.79134,-3.44854 z"
       id="path5578"
       inkscape:connector-curvature="0" />
    <path
       style="fill:none;stroke:#000000;stroke-width:1px;stroke-linecap:butt;stroke-linejoin:miter;stroke-opacity:1"
       d="m 273.29151,509.84244 -1.00618,4.38481 15.54316,-0.13266 1.00619,-4.38481 z"
       id="path5580"
       inkscape:connector-curvature="0" />
    <path
       style="fill:none;stroke:#000000;stroke-width:1px;stroke-linecap:butt;stroke-linejoin:miter;stroke-opacity:1"
       d="m 287.43372,515.81494 -1.09302,4.76319 -35.75264,0.30514 1.09302,-4.76318 14.91912,-0.12734 -0.39976,1.7421 c -0.69325,3.02109 4.5971,2.97594 5.31886,-0.1694 l 0.37125,-1.61785 z"
       id="path5582"
       inkscape:connector-curvature="0"
       sodipodi:nodetypes="ccccccccc" />
    <path
       style="fill:none;stroke:#000000;stroke-width:1px;stroke-linecap:butt;stroke-linejoin:miter;stroke-opacity:1"
       d="m 295.57874,499.37024 -0.57599,2.51007 16.27185,-0.13888 0.57599,-2.51007 z"
       id="path5584"
       inkscape:connector-curvature="0" />
    <path
       style="fill:none;stroke:#000000;stroke-width:1px;stroke-linecap:butt;stroke-linejoin:miter;stroke-opacity:1"
       d="m 316.32064,499.19321 -0.57599,2.51007 13.9431,-0.119 1.95725,-2.52186 z"
       id="path5586"
       inkscape:connector-curvature="0"
       sodipodi:nodetypes="ccccc" />
    <path
       style="fill:none;stroke:#000000;stroke-width:1px;stroke-linecap:butt;stroke-linejoin:miter;stroke-opacity:1"
       d="m 327.10466,509.38315 1.1701,4.36624 -15.32436,0.13079 c -0.13376,-2.2919 -1.75391,-3.26403 -3.68281,-3.39252 l -0.78724,3.43067 -16.27185,0.13888 1.00619,-4.38481 z"
       id="path5594"
       inkscape:connector-curvature="0"
       sodipodi:nodetypes="cccccccc" />
    <path
       style="fill:none;stroke:#000000;stroke-width:1px;stroke-linecap:butt;stroke-linejoin:miter;stroke-opacity:1"
       d="m 327.87999,515.46974 -1.09301,4.76319 -15.32437,0.13079 1.09301,-4.76319 z"
       id="path5596"
       inkscape:connector-curvature="0" />
    <path
       style="fill:none;stroke:#000000;stroke-width:1px;stroke-linecap:butt;stroke-linejoin:miter;stroke-opacity:1"
       d="m 308.08557,515.63868 -1.09301,4.76319 -16.27185,0.13888 1.09302,-4.76319 z"
       id="path5598"
       inkscape:connector-curvature="0" />
    <path
       style="fill:none;stroke:#000000;stroke-width:1px;stroke-linecap:butt;stroke-linejoin:miter;stroke-opacity:1"
       d="m 331.34198,520.19405 1.09301,-4.76319 15.74121,-0.13435 -0.42416,1.84844 c -0.66885,2.91475 3.70918,2.87738 4.37886,-0.041 l 0.42333,-1.8448 15.95375,-0.13617 -1.09302,4.76319 z"
       id="path5600"
       inkscape:connector-curvature="0"
       sodipodi:nodetypes="ccccccccc" />
    <path
       style="fill:none;stroke:#000000;stroke-width:1px;stroke-linecap:butt;stroke-linejoin:miter;stroke-opacity:1"
       d="m 332.82976,513.71051 1.00619,-4.38481 15.74121,-0.13435 -1.00618,4.38481 z"
       id="path5602"
       inkscape:connector-curvature="0" />
    <path
       style="fill:none;stroke:#000000;stroke-width:1px;stroke-linecap:butt;stroke-linejoin:miter;stroke-opacity:1"
       d="m 353.95519,509.15399 -1.00619,4.3848 15.95375,-0.13616 1.00619,-4.3848 z"
       id="path5604"
       inkscape:connector-curvature="0" />
    <path
       style="fill:none;stroke:#000000;stroke-width:1px;stroke-linecap:butt;stroke-linejoin:miter;stroke-opacity:1"
       d="m 354.28761,507.70537 0.79134,-3.44854 15.95375,-0.13617 -0.79135,3.44854 z"
       id="path5606"
       inkscape:connector-curvature="0" />
    <path
       style="fill:none;stroke:#000000;stroke-width:1px;stroke-linecap:butt;stroke-linejoin:miter;stroke-opacity:1"
       d="m 349.90958,507.74273 0.79134,-3.44854 -15.74121,0.13435 -0.79134,3.44854 z"
       id="path5608"
       inkscape:connector-curvature="0" />
    <path
       style="fill:none;stroke:#000000;stroke-width:1px;stroke-linecap:butt;stroke-linejoin:miter;stroke-opacity:1"
       d="m 351.36523,501.39927 0.57598,-2.51008 -15.74121,0.13435 -0.57599,2.51007 z"
       id="path5610"
       inkscape:connector-curvature="0" />
    <path
       style="fill:none;stroke:#000000;stroke-width:1px;stroke-linecap:butt;stroke-linejoin:miter;stroke-opacity:1"
       d="m 356.31924,498.85183 -0.57599,2.51007 15.95375,-0.13616 0.57599,-2.51007 z"
       id="path5612"
       inkscape:connector-curvature="0" />
    <path
       style="fill:none;stroke:#000000;stroke-width:1px;stroke-linecap:butt;stroke-linejoin:miter;stroke-opacity:1"
       d="m 373.30442,508.98885 -1.00618,4.3848 16.93141,-0.14451 1.00619,-4.3848 z"
       id="path5614"
       inkscape:connector-curvature="0" />
    <path
       style="fill:none;stroke:#000000;stroke-width:1px;stroke-linecap:butt;stroke-linejoin:miter;stroke-opacity:1"
       d="m 373.63684,507.54022 16.93142,-0.1445 0.79134,-3.44854 -16.93142,0.1445 z"
       id="path5616"
       inkscape:connector-curvature="0" />
    <path
       style="fill:none;stroke:#000000;stroke-width:1px;stroke-linecap:butt;stroke-linejoin:miter;stroke-opacity:1"
       d="m 390.5185,519.68899 1.09302,-4.76319 15.03044,-0.12828 -0.41954,1.82827 c -0.67347,2.93491 4.49765,2.89078 5.15845,0.0111 l 0.43222,-1.88354 16.39638,-0.13994 -1.09302,4.76319 z"
       id="path5618"
       inkscape:connector-curvature="0"
       sodipodi:nodetypes="ccccccccc" />
    <path
       style="fill:none;stroke:#000000;stroke-width:1px;stroke-linecap:butt;stroke-linejoin:miter;stroke-opacity:1"
       d="m 392.00629,513.20545 1.00619,-4.38481 15.03044,-0.12828 -1.00619,4.3848 z"
       id="path5620"
       inkscape:connector-curvature="0" />
    <path
       style="fill:none;stroke:#000000;stroke-width:1px;stroke-linecap:butt;stroke-linejoin:miter;stroke-opacity:1"
       d="m 413.21405,508.64822 -1.00619,4.38481 16.39638,-0.13994 1.00619,-4.38481 z"
       id="path5622"
       inkscape:connector-curvature="0" />
    <path
       style="fill:none;stroke:#000000;stroke-width:1px;stroke-linecap:butt;stroke-linejoin:miter;stroke-opacity:1"
       d="m 408.37534,507.24373 0.79134,-3.44854 -15.03044,0.12829 -0.79135,3.44854 z"
       id="path5624"
       inkscape:connector-curvature="0" />
    <path
       style="fill:none;stroke:#000000;stroke-width:1px;stroke-linecap:butt;stroke-linejoin:miter;stroke-opacity:1"
       d="m 409.83098,500.90027 0.57599,-2.51007 -15.03044,0.12828 -0.57599,2.51007 z"
       id="path5626"
       inkscape:connector-curvature="0" />
    <path
       style="fill:none;stroke:#000000;stroke-width:1px;stroke-linecap:butt;stroke-linejoin:miter;stroke-opacity:1"
       d="m 415.5781,498.34606 -0.57599,2.51007 16.39638,-0.13994 0.57599,-2.51007 z"
       id="path5628"
       inkscape:connector-curvature="0" />
    <path
       style="fill:none;stroke:#000000;stroke-width:1px;stroke-linecap:butt;stroke-linejoin:miter;stroke-opacity:1"
       d="m 435.51192,498.17593 -0.57599,2.51007 15.02954,-0.12827 0.57599,-2.51008 -15.02954,0.12828 z"
       id="path5630"
       inkscape:connector-curvature="0" />
    <path
       style="fill:none;stroke:#000000;stroke-width:1px;stroke-linecap:butt;stroke-linejoin:miter;stroke-opacity:1"
       d="m 455.34346,498.00667 -0.57599,2.51007 16.35373,-0.13958 0.57599,-2.51007 z"
       id="path5632"
       inkscape:connector-curvature="0" />
    <path
       style="fill:none;stroke:#000000;stroke-width:1px;stroke-linecap:butt;stroke-linejoin:miter;stroke-opacity:1"
       d="m 454.10317,503.41167 -0.79134,3.44854 16.35372,-0.13958 0.79135,-3.44854 z"
       id="path5634"
       inkscape:connector-curvature="0" />
    <path
       style="fill:none;stroke:#000000;stroke-width:1px;stroke-linecap:butt;stroke-linejoin:miter;stroke-opacity:1"
       d="m 449.30117,503.45265 -0.79134,3.44854 -15.02954,0.12828 0.79134,-3.44854 z"
       id="path5636"
       inkscape:connector-curvature="0" />
    <path
       style="fill:none;stroke:#000000;stroke-width:1px;stroke-linecap:butt;stroke-linejoin:miter;stroke-opacity:1"
       d="m 448.17741,508.34981 -1.00619,4.38481 -15.02954,0.12828 1.00619,-4.38481 z"
       id="path5638"
       inkscape:connector-curvature="0" />
    <path
       style="fill:none;stroke:#000000;stroke-width:1px;stroke-linecap:butt;stroke-linejoin:miter;stroke-opacity:1"
       d="m 452.97941,508.30883 -1.00619,4.38481 16.35373,-0.13958 1.00619,-4.38481 z"
       id="path5640"
       inkscape:connector-curvature="0" />
    <path
       style="fill:none;stroke:#000000;stroke-width:1px;stroke-linecap:butt;stroke-linejoin:miter;stroke-opacity:1"
       d="m 451.57845,514.41399 16.31116,0.0459 -1.1907,4.5789 -36.04502,0.30764 1.09302,-4.76319 15.02954,-0.12828 -0.3977,1.73314 c -0.69532,3.03006 4.10668,2.98908 4.81439,-0.095 z"
       id="path5642"
       inkscape:connector-curvature="0"
       sodipodi:nodetypes="ccccccccc" />
    <path
       style="fill:none;stroke:#000000;stroke-width:1px;stroke-linecap:butt;stroke-linejoin:miter;stroke-opacity:1"
       d="m 478.4732,514.18445 -1.09301,4.76318 17.176,-0.14659 1.09301,-4.76319 z"
       id="path5644"
       inkscape:connector-curvature="0" />
    <path
       style="fill:none;stroke:#000000;stroke-width:1px;stroke-linecap:butt;stroke-linejoin:miter;stroke-opacity:1"
       d="m 478.86797,512.46409 1.00619,-4.3848 17.176,-0.1466 -1.00618,4.38481 z"
       id="path5646"
       inkscape:connector-curvature="0" />
    <path
       style="fill:none;stroke:#000000;stroke-width:1px;stroke-linecap:butt;stroke-linejoin:miter;stroke-opacity:1"
       d="m 480.20658,506.63066 0.79134,-3.44854 17.176,-0.14659 -0.79134,3.44854 z"
       id="path5648"
       inkscape:connector-curvature="0" />
    <path
       style="fill:none;stroke:#000000;stroke-width:1px;stroke-linecap:butt;stroke-linejoin:miter;stroke-opacity:1"
       d="m 481.66222,500.2872 0.57599,-2.51007 17.17601,-0.1466 -0.57599,2.51007 z"
       id="path5650"
       inkscape:connector-curvature="0" />
    <path
       style="fill:none;stroke:#000000;stroke-width:1px;stroke-linecap:butt;stroke-linejoin:miter;stroke-opacity:1"
       d="m 294.33844,504.77524 -0.79134,3.44854 32.97577,-0.28145 -1.07404,-2.58284 1.01482,-0.85844 z"
       id="path5652"
       inkscape:connector-curvature="0"
       sodipodi:nodetypes="cccccc" />
    <path
       style="fill:none;stroke:#000000;stroke-width:1px;stroke-linecap:butt;stroke-linejoin:miter;stroke-opacity:1"
       d="m 501.03095,572.66858 -19.76302,0.16868 23.95366,-18.43082 3.41176,-14.86789 c 0.74808,-3.26004 -0.41598,-8.24179 -10.25312,-8.15783 l -27.22154,0.23233 c -10.07616,-0.0375 -10.74106,2.88796 -12.0813,8.72853 l -1.94712,8.48523 21.94446,-0.18729 0,-3.15657 c 0,-4.12782 4.83085,-3.60368 5.56421,-2.88681 0.38134,0.37276 2.44866,3.16025 -1.25056,6.00656 l -31.826,24.48809 -2.56811,11.1914 49.46857,-0.4222 z"
       id="path3313-7"
       inkscape:connector-curvature="0"
       sodipodi:nodetypes="ccccccccccsccccc" />
    <text
       xml:space="preserve"
       style="font-size:22px;font-style:oblique;font-variant:normal;font-weight:900;font-stretch:condensed;text-align:start;line-height:125%;letter-spacing:0px;word-spacing:0px;writing-mode:lr-tb;text-anchor:start;fill:#000000;fill-opacity:1;stroke:none;font-family:Helvetica Neue LT Com;-inkscape-font-specification:Helvetica Neue LT Com Heavy Oblique Condensed"
       x="248.92137"
       y="481.18414"
       id="text3106"
       sodipodi:linespacing="125%"><tspan
         sodipodi:role="line"
         id="tspan3108"
         x="248.92137"
         y="481.18414">DISCOVERY</tspan></text>
  </g>
</svg>
