<?xml version="1.0" encoding="UTF-8" standalone="no"?>
<!-- Created with Inkscape (http://www.inkscape.org/) -->

<svg
   xmlns:dc="http://purl.org/dc/elements/1.1/"
   xmlns:cc="http://creativecommons.org/ns#"
   xmlns:rdf="http://www.w3.org/1999/02/22-rdf-syntax-ns#"
   xmlns:svg="http://www.w3.org/2000/svg"
   xmlns="http://www.w3.org/2000/svg"
   xmlns:sodipodi="http://sodipodi.sourceforge.net/DTD/sodipodi-0.dtd"
   xmlns:inkscape="http://www.inkscape.org/namespaces/inkscape"
   width="744.09448819"
   height="1052.3622047"
   id="svg2"
   version="1.1"
   inkscape:version="0.48.4 r9939"
   sodipodi:docname="window motor spline.svg">
  <defs
     id="defs4" />
  <sodipodi:namedview
     id="base"
     pagecolor="#ffffff"
     bordercolor="#666666"
     borderopacity="1.0"
     inkscape:pageopacity="0.0"
     inkscape:pageshadow="2"
     inkscape:zoom="5.6568543"
     inkscape:cx="42.585007"
     inkscape:cy="27.021116"
     inkscape:document-units="px"
     inkscape:current-layer="layer1"
     showgrid="false"
     showguides="true"
     inkscape:guide-bbox="true"
     inkscape:window-width="1024"
     inkscape:window-height="720"
     inkscape:window-x="0"
     inkscape:window-y="0"
     inkscape:window-maximized="1">
    <sodipodi:guide
       orientation="1,0"
       position="41.988189,0"
       id="guide3767" />
    <sodipodi:guide
       orientation="1,0"
       position="28.169291,0"
       id="guide3769" />
    <sodipodi:guide
       orientation="-0.5,-0.8660254"
       position="35.07874,41.998"
       id="guide3771" />
    <sodipodi:guide
       orientation="-0.5,-0.8660254"
       position="35.07874,28.169"
       id="guide3773" />
    <sodipodi:guide
       orientation="-0.5,0.8660254"
       position="35.07874,28.169"
       id="guide3775" />
    <sodipodi:guide
       orientation="-0.5,0.8660254"
       position="35.07874,41.998"
       id="guide3777" />
    <sodipodi:guide
       orientation="0,1"
       position="90.913729,28.169"
       id="guide3779" />
    <sodipodi:guide
       orientation="0,1"
       position="82.832509,41.998"
       id="guide3781" />
    <sodipodi:guide
       orientation="1,0"
       position="35.07874,55.305852"
       id="guide3783" />
    <sodipodi:guide
       orientation="0,1"
       position="-32.829958,35.07874"
       id="guide3785" />
  </sodipodi:namedview>
  <metadata
     id="metadata7">
    <rdf:RDF>
      <cc:Work
         rdf:about="">
        <dc:format>image/svg+xml</dc:format>
        <dc:type
           rdf:resource="http://purl.org/dc/dcmitype/StillImage" />
        <dc:title></dc:title>
      </cc:Work>
    </rdf:RDF>
  </metadata>
  <g
     inkscape:label="Layer 1"
     inkscape:groupmode="layer"
     id="layer1">
    <path
       style="fill:none;stroke:#000000;stroke-width:0.20000000000000001;stroke-linecap:butt;stroke-linejoin:miter;stroke-miterlimit:4;stroke-opacity:1;stroke-dasharray:none"
       d="m 28.169291,1045.1143 0,6.4315 c 4.606299,0.9522 9.212599,0.8806 13.818898,0 l 0,-6.3125 c 5.865477,-1.5127 10.598189,-4.5251 14.463857,-8.7041 l 5.476263,3.1617 c 2.433357,-3.1438 4.683927,-6.4181 5.96361,-10.3859 l -5.479978,-3.1639 c 1.757673,-5.4702 2.065266,-12.1905 -0.01634,-17.7232 l 5.473887,-3.1604 c -1.1922,-3.5155 -3.102842,-7.32802 -5.984819,-10.37363 l -5.46876,3.15739 c -3.518781,-4.02111 -8.426507,-7.05371 -14.427718,-8.70387 l 0,-6.40815 c -4.606299,-0.78209 -9.212599,-0.75198 -13.818898,0.13258 l 0,6.31977 c -4.918722,1.06554 -9.757941,3.88014 -14.510004,8.61217 l -5.4216051,-3.13017 c -2.9646338,3.45617 -4.6858316,6.91231 -5.9937006,10.36851 l 5.5159141,3.1846 c -2.270575,6.7968 -1.6726497,12.1995 -0.060512,17.7511 l -5.4930237,3.1714 c 1.3871248,3.9676 3.650457,7.2051 6.0230925,10.3515 l 5.5350508,-3.1956 c 3.62152,4.306 8.449996,7.1464 14.404786,8.6192 z"
       id="path3815"
       inkscape:connector-curvature="0"
       sodipodi:nodetypes="ccccccccccccccccccccccccc" />
  </g>
</svg>
