<?xml version="1.0" encoding="UTF-8" standalone="no"?>
<!-- Created with Inkscape (http://www.inkscape.org/) -->

<svg
   xmlns:dc="http://purl.org/dc/elements/1.1/"
   xmlns:cc="http://creativecommons.org/ns#"
   xmlns:rdf="http://www.w3.org/1999/02/22-rdf-syntax-ns#"
   xmlns:svg="http://www.w3.org/2000/svg"
   xmlns="http://www.w3.org/2000/svg"
   version="1.1"
   width="744.09448"
   height="1052.3622"
   id="svg2">
  <defs
     id="defs4" />
  <metadata
     id="metadata7">
    <rdf:RDF>
      <cc:Work
         rdf:about="">
        <dc:format>image/svg+xml</dc:format>
        <dc:type
           rdf:resource="http://purl.org/dc/dcmitype/StillImage" />
        <dc:title></dc:title>
      </cc:Work>
    </rdf:RDF>
  </metadata>
  <g
     id="layer1">
    <path
       d="m 222.32042,487.95861 -1.60613,8.33214 31.95671,-0.2728 1.91258,-8.3347 -32.26316,0.27536 z"
       id="path3179"
       style="fill:none;stroke:#000000;stroke-width:1px;stroke-linecap:butt;stroke-linejoin:miter;stroke-opacity:1" />
    <path
       d="m 239.3758,522.78221 -1.24645,5.43182 -15.65962,0.13365 1.24644,-5.43181 z"
       id="path3189"
       style="fill:none;stroke:#000000;stroke-width:1px;stroke-linecap:butt;stroke-linejoin:miter;stroke-opacity:1" />
    <path
       d="m 290.3061,522.34753 -1.24644,5.43181 16.27185,-0.13887 1.24644,-5.43182 z"
       id="path3207"
       style="fill:none;stroke:#000000;stroke-width:1px;stroke-linecap:butt;stroke-linejoin:miter;stroke-opacity:1" />
    <path
       d="m 311.048,522.1705 -1.24644,5.43182 15.32436,-0.1308 1.24645,-5.43181 z"
       id="path3209"
       style="fill:none;stroke:#000000;stroke-width:1px;stroke-linecap:butt;stroke-linejoin:miter;stroke-opacity:1" />
    <path
       d="m 472.55224,494.14092 1.91249,-8.33433 -16.35373,0.13958 -1.9125,8.33435 z"
       id="path3255"
       style="fill:none;stroke:#000000;stroke-width:1px;stroke-linecap:butt;stroke-linejoin:miter;stroke-opacity:1" />
    <path
       d="m 453.309,485.98716 -1.9125,8.33435 -15.02954,0.12831 1.9125,-8.33439 15.02954,-0.12827 z"
       id="path3257"
       style="fill:none;stroke:#000000;stroke-width:1px;stroke-linecap:butt;stroke-linejoin:miter;stroke-opacity:1" />
    <path
       d="m 476.83,485.78641 -1.91249,8.33432 32.27702,-0.27554 1.91247,-8.33426 z"
       id="path3259"
       style="fill:none;stroke:#000000;stroke-width:1px;stroke-linecap:butt;stroke-linejoin:miter;stroke-opacity:1" />
    <path
       d="m 492.89514,526.03964 1.13943,-5.4309 -17.06899,0.14568 -1.24644,5.43181 z"
       id="path3269"
       style="fill:none;stroke:#000000;stroke-width:1px;stroke-linecap:butt;stroke-linejoin:miter;stroke-opacity:1" />
    <path
       d="m 285.9261,522.38491 c -0.88086,3.60152 -3.32893,5.44959 -9.19568,5.49966 l -18.96015,0.16183 c -5.77185,0.0493 -8.33616,-2.1344 -7.59681,-5.35634 z"
       id="path3279"
       style="fill:none;stroke:#000000;stroke-width:1px;stroke-linecap:butt;stroke-linejoin:miter;stroke-opacity:1" />
    <path
       d="m 256.30105,495.98696 35.75266,-0.3052 c 0.73472,-3.20178 1.91256,-8.33463 -6.40702,-8.26363 l -20.82022,0.1777 c -6.61284,0.0564 -7.71009,4.83809 -8.52542,8.39113 z"
       id="path3281"
       style="fill:none;stroke:#000000;stroke-width:1px;stroke-linecap:butt;stroke-linejoin:miter;stroke-opacity:1" />
    <path
       d="m 298.34628,487.30974 -1.91256,8.33463 36.06628,-0.30789 c 1.09669,-3.87794 0.63104,-7.08028 -4.46537,-8.28012 z"
       id="path3283"
       style="fill:none;stroke:#000000;stroke-width:1px;stroke-linecap:butt;stroke-linejoin:miter;stroke-opacity:1" />
    <path
       d="m 337.055,495.2976 c 0.63717,-4.74724 2.76451,-8.00431 7.76869,-8.38454 l 25.17369,-0.21485 c 3.65062,1.27406 4.18229,4.33037 3.13062,8.29145 z"
       id="path3293"
       style="fill:none;stroke:#000000;stroke-width:1px;stroke-linecap:butt;stroke-linejoin:miter;stroke-opacity:1" />
    <path
       d="m 426.70185,521.18341 c -0.84959,3.70236 -5.02616,5.46407 -9.88886,5.50558 l -16.92044,0.14441 c -5.56393,0.0475 -10.65516,-1.56153 -9.78865,-5.33763 z"
       id="path3297"
       style="fill:none;stroke:#000000;stroke-width:1px;stroke-linecap:butt;stroke-linejoin:miter;stroke-opacity:1" />
    <path
       d="m 432.82952,494.48001 c 0.89872,-3.9165 0.38081,-8.32131 -4.3352,-8.28106 l -25,0.21337 c -3.01601,0.0257 -6.43799,4.3453 -7.26277,8.38011 z"
       id="path3301"
       style="fill:none;stroke:#000000;stroke-width:1px;stroke-linecap:butt;stroke-linejoin:miter;stroke-opacity:1" />
    <path
       d="m 430.23929,521.15322 c -0.66402,2.89369 2.87555,5.39663 7.70519,5.35541 l 18.2268,-0.15556 c 6.4431,-0.055 9.52207,-2.32221 10.25328,-5.50869 z"
       id="path3309"
       style="fill:none;stroke:#000000;stroke-width:1px;stroke-linecap:butt;stroke-linejoin:miter;stroke-opacity:1" />
    <path
       d="m 445.46268,573.01944 -19.76302,0.16868 23.95366,-18.43082 3.41176,-14.86789 c 0.74808,-3.26004 -0.41598,-8.24179 -10.25312,-8.15783 l -27.22154,0.23233 c -10.07616,-0.0375 -10.74106,2.88796 -12.0813,8.72853 l -1.94712,8.48523 21.94446,-0.18729 0,-3.15657 c 0,-4.12782 4.83085,-3.60368 5.56421,-2.88681 0.38134,0.37276 2.44866,3.16025 -1.25056,6.00656 l -31.826,24.48809 -2.56811,11.1914 49.46857,-0.4222 z"
       id="path3313"
       style="fill:none;stroke:#000000;stroke-width:1px;stroke-linecap:butt;stroke-linejoin:miter;stroke-opacity:1" />
    <path
       d="m 400.73768,566.12906 c 0,0 -176.05404,-0.92086 -174.38674,-7.49134 2.02547,-7.98193 145.53514,-10.22572 145.53514,-10.22572 l 3.69601,-16.10662 0.54583,-2.37861 c -15.20033,3.80629 -18.27601,0.61359 -21.12613,-2.71023 7.59483,-0.0648 11.21711,-2.11813 11.99857,-5.52358 l -36.07299,0.30787 c -0.78345,3.41417 4.91731,5.37921 11.02605,5.32707 4.27708,6.29715 10.52138,10.18993 20.6432,9.34351 l 0,4.21232 c 0,0 -149.38122,3.72663 -154.69906,22.89693 -4.52172,16.30039 180.71479,20.89348 180.71479,20.89348 l 2.56811,-11.19141 z"
       id="path3327"
       style="fill:none;stroke:#000000;stroke-width:1px;stroke-linecap:butt;stroke-linejoin:miter;stroke-opacity:1" />
    <path
       d="m 228.9888,499.93858 -0.57599,2.51007 15.65963,-0.13365 0.57599,-2.51008 z"
       id="path5558"
       style="fill:none;stroke:#000000;stroke-width:1px;stroke-linecap:butt;stroke-linejoin:miter;stroke-opacity:1" />
    <path
       d="m 227.74851,505.34357 -0.79134,3.44854 15.65962,-0.13365 0.79135,-3.44854 z"
       id="path5560"
       style="fill:none;stroke:#000000;stroke-width:1px;stroke-linecap:butt;stroke-linejoin:miter;stroke-opacity:1" />
    <path
       d="m 225.61856,514.62554 1.00619,-4.3848 15.65963,-0.13366 -1.00619,4.38481 z"
       id="path5566"
       style="fill:none;stroke:#000000;stroke-width:1px;stroke-linecap:butt;stroke-linejoin:miter;stroke-opacity:1" />
    <path
       d="m 225.22379,516.3459 -1.09301,4.76318 15.65962,-0.13365 1.09302,-4.76319 z"
       id="path5568"
       style="fill:none;stroke:#000000;stroke-width:1px;stroke-linecap:butt;stroke-linejoin:miter;stroke-opacity:1" />
    <path
       d="m 255.44609,499.71277 -0.57599,2.51007 14.91913,-0.12733 0.57598,-2.51007 z"
       id="path5570"
       style="fill:none;stroke:#000000;stroke-width:1px;stroke-linecap:butt;stroke-linejoin:miter;stroke-opacity:1" />
    <path
       d="m 269.12492,504.99043 -0.79134,3.44854 -14.91913,0.12734 0.79135,-3.44855 z"
       id="path5572"
       style="fill:none;stroke:#000000;stroke-width:1px;stroke-linecap:butt;stroke-linejoin:miter;stroke-opacity:1" />
    <path
       d="m 268.00116,509.88759 -1.00618,4.38481 -14.91913,0.12733 1.00619,-4.3848 z"
       id="path5574"
       style="fill:none;stroke:#000000;stroke-width:1px;stroke-linecap:butt;stroke-linejoin:miter;stroke-opacity:1" />
    <path
       d="m 275.65557,499.54028 -0.57599,2.51007 15.54316,-0.13266 0.57599,-2.51007 -15.54316,0.13266 z"
       id="path5576"
       style="fill:none;stroke:#000000;stroke-width:1px;stroke-linecap:butt;stroke-linejoin:miter;stroke-opacity:1" />
    <path
       d="m 274.41527,504.94528 -0.79134,3.44854 15.54317,-0.13266 0.79134,-3.44854 z"
       id="path5578"
       style="fill:none;stroke:#000000;stroke-width:1px;stroke-linecap:butt;stroke-linejoin:miter;stroke-opacity:1" />
    <path
       d="m 273.29151,509.84244 -1.00618,4.38481 15.54316,-0.13266 1.00619,-4.38481 z"
       id="path5580"
       style="fill:none;stroke:#000000;stroke-width:1px;stroke-linecap:butt;stroke-linejoin:miter;stroke-opacity:1" />
    <path
       d="m 287.43372,515.81494 -1.09302,4.76319 -35.75264,0.30514 1.09302,-4.76318 14.91912,-0.12734 -0.39976,1.7421 c -0.69325,3.02109 4.5971,2.97594 5.31886,-0.1694 l 0.37125,-1.61785 z"
       id="path5582"
       style="fill:none;stroke:#000000;stroke-width:1px;stroke-linecap:butt;stroke-linejoin:miter;stroke-opacity:1" />
    <path
       d="m 295.57874,499.37024 -0.57599,2.51007 16.27185,-0.13888 0.57599,-2.51007 z"
       id="path5584"
       style="fill:none;stroke:#000000;stroke-width:1px;stroke-linecap:butt;stroke-linejoin:miter;stroke-opacity:1" />
    <path
       d="m 316.32064,499.19321 -0.57599,2.51007 13.9431,-0.119 1.95725,-2.52186 z"
       id="path5586"
       style="fill:none;stroke:#000000;stroke-width:1px;stroke-linecap:butt;stroke-linejoin:miter;stroke-opacity:1" />
    <path
       d="m 327.10466,509.38315 1.1701,4.36624 -15.32436,0.13079 c -0.13376,-2.2919 -1.75391,-3.26403 -3.68281,-3.39252 l -0.78724,3.43067 -16.27185,0.13888 1.00619,-4.38481 z"
       id="path5594"
       style="fill:none;stroke:#000000;stroke-width:1px;stroke-linecap:butt;stroke-linejoin:miter;stroke-opacity:1" />
    <path
       d="m 327.87999,515.46974 -1.09301,4.76319 -15.32437,0.13079 1.09301,-4.76319 z"
       id="path5596"
       style="fill:none;stroke:#000000;stroke-width:1px;stroke-linecap:butt;stroke-linejoin:miter;stroke-opacity:1" />
    <path
       d="m 308.08557,515.63868 -1.09301,4.76319 -16.27185,0.13888 1.09302,-4.76319 z"
       id="path5598"
       style="fill:none;stroke:#000000;stroke-width:1px;stroke-linecap:butt;stroke-linejoin:miter;stroke-opacity:1" />
    <path
       d="m 331.34198,520.19405 1.09301,-4.76319 15.74121,-0.13435 -0.42416,1.84844 c -0.66885,2.91475 3.70918,2.87738 4.37886,-0.041 l 0.42333,-1.8448 15.95375,-0.13617 -1.09302,4.76319 z"
       id="path5600"
       style="fill:none;stroke:#000000;stroke-width:1px;stroke-linecap:butt;stroke-linejoin:miter;stroke-opacity:1" />
    <path
       d="m 332.82976,513.71051 1.00619,-4.38481 15.74121,-0.13435 -1.00618,4.38481 z"
       id="path5602"
       style="fill:none;stroke:#000000;stroke-width:1px;stroke-linecap:butt;stroke-linejoin:miter;stroke-opacity:1" />
    <path
       d="m 353.95519,509.15399 -1.00619,4.3848 15.95375,-0.13616 1.00619,-4.3848 z"
       id="path5604"
       style="fill:none;stroke:#000000;stroke-width:1px;stroke-linecap:butt;stroke-linejoin:miter;stroke-opacity:1" />
    <path
       d="m 354.28761,507.70537 0.79134,-3.44854 15.95375,-0.13617 -0.79135,3.44854 z"
       id="path5606"
       style="fill:none;stroke:#000000;stroke-width:1px;stroke-linecap:butt;stroke-linejoin:miter;stroke-opacity:1" />
    <path
       d="m 349.90958,507.74273 0.79134,-3.44854 -15.74121,0.13435 -0.79134,3.44854 z"
       id="path5608"
       style="fill:none;stroke:#000000;stroke-width:1px;stroke-linecap:butt;stroke-linejoin:miter;stroke-opacity:1" />
    <path
       d="m 351.36523,501.39927 0.57598,-2.51008 -15.74121,0.13435 -0.57599,2.51007 z"
       id="path5610"
       style="fill:none;stroke:#000000;stroke-width:1px;stroke-linecap:butt;stroke-linejoin:miter;stroke-opacity:1" />
    <path
       d="m 356.31924,498.85183 -0.57599,2.51007 15.95375,-0.13616 0.57599,-2.51007 z"
       id="path5612"
       style="fill:none;stroke:#000000;stroke-width:1px;stroke-linecap:butt;stroke-linejoin:miter;stroke-opacity:1" />
    <path
       d="m 373.30442,508.98885 -1.00618,4.3848 16.93141,-0.14451 1.00619,-4.3848 z"
       id="path5614"
       style="fill:none;stroke:#000000;stroke-width:1px;stroke-linecap:butt;stroke-linejoin:miter;stroke-opacity:1" />
    <path
       d="m 373.63684,507.54022 16.93142,-0.1445 0.79134,-3.44854 -16.93142,0.1445 z"
       id="path5616"
       style="fill:none;stroke:#000000;stroke-width:1px;stroke-linecap:butt;stroke-linejoin:miter;stroke-opacity:1" />
    <path
       d="m 390.5185,519.68899 1.09302,-4.76319 15.03044,-0.12828 -0.41954,1.82827 c -0.67347,2.93491 4.49765,2.89078 5.15845,0.0111 l 0.43222,-1.88354 16.39638,-0.13994 -1.09302,4.76319 z"
       id="path5618"
       style="fill:none;stroke:#000000;stroke-width:1px;stroke-linecap:butt;stroke-linejoin:miter;stroke-opacity:1" />
    <path
       d="m 392.00629,513.20545 1.00619,-4.38481 15.03044,-0.12828 -1.00619,4.3848 z"
       id="path5620"
       style="fill:none;stroke:#000000;stroke-width:1px;stroke-linecap:butt;stroke-linejoin:miter;stroke-opacity:1" />
    <path
       d="m 413.21405,508.64822 -1.00619,4.38481 16.39638,-0.13994 1.00619,-4.38481 z"
       id="path5622"
       style="fill:none;stroke:#000000;stroke-width:1px;stroke-linecap:butt;stroke-linejoin:miter;stroke-opacity:1" />
    <path
       d="m 408.37534,507.24373 0.79134,-3.44854 -15.03044,0.12829 -0.79135,3.44854 z"
       id="path5624"
       style="fill:none;stroke:#000000;stroke-width:1px;stroke-linecap:butt;stroke-linejoin:miter;stroke-opacity:1" />
    <path
       d="m 409.83098,500.90027 0.57599,-2.51007 -15.03044,0.12828 -0.57599,2.51007 z"
       id="path5626"
       style="fill:none;stroke:#000000;stroke-width:1px;stroke-linecap:butt;stroke-linejoin:miter;stroke-opacity:1" />
    <path
       d="m 415.5781,498.34606 -0.57599,2.51007 16.39638,-0.13994 0.57599,-2.51007 z"
       id="path5628"
       style="fill:none;stroke:#000000;stroke-width:1px;stroke-linecap:butt;stroke-linejoin:miter;stroke-opacity:1" />
    <path
       d="m 435.51192,498.17593 -0.57599,2.51007 15.02954,-0.12827 0.57599,-2.51008 -15.02954,0.12828 z"
       id="path5630"
       style="fill:none;stroke:#000000;stroke-width:1px;stroke-linecap:butt;stroke-linejoin:miter;stroke-opacity:1" />
    <path
       d="m 455.34346,498.00667 -0.57599,2.51007 16.35373,-0.13958 0.57599,-2.51007 z"
       id="path5632"
       style="fill:none;stroke:#000000;stroke-width:1px;stroke-linecap:butt;stroke-linejoin:miter;stroke-opacity:1" />
    <path
       d="m 454.10317,503.41167 -0.79134,3.44854 16.35372,-0.13958 0.79135,-3.44854 z"
       id="path5634"
       style="fill:none;stroke:#000000;stroke-width:1px;stroke-linecap:butt;stroke-linejoin:miter;stroke-opacity:1" />
    <path
       d="m 449.30117,503.45265 -0.79134,3.44854 -15.02954,0.12828 0.79134,-3.44854 z"
       id="path5636"
       style="fill:none;stroke:#000000;stroke-width:1px;stroke-linecap:butt;stroke-linejoin:miter;stroke-opacity:1" />
    <path
       d="m 448.17741,508.34981 -1.00619,4.38481 -15.02954,0.12828 1.00619,-4.38481 z"
       id="path5638"
       style="fill:none;stroke:#000000;stroke-width:1px;stroke-linecap:butt;stroke-linejoin:miter;stroke-opacity:1" />
    <path
       d="m 452.97941,508.30883 -1.00619,4.38481 16.35373,-0.13958 1.00619,-4.38481 z"
       id="path5640"
       style="fill:none;stroke:#000000;stroke-width:1px;stroke-linecap:butt;stroke-linejoin:miter;stroke-opacity:1" />
    <path
       d="m 451.57845,514.41399 16.31116,0.0459 -1.1907,4.5789 -36.04502,0.30764 1.09302,-4.76319 15.02954,-0.12828 -0.3977,1.73314 c -0.69532,3.03006 4.10668,2.98908 4.81439,-0.095 z"
       id="path5642"
       style="fill:none;stroke:#000000;stroke-width:1px;stroke-linecap:butt;stroke-linejoin:miter;stroke-opacity:1" />
    <path
       d="m 478.4732,514.18445 -1.09301,4.76318 17.176,-0.14659 1.09301,-4.76319 z"
       id="path5644"
       style="fill:none;stroke:#000000;stroke-width:1px;stroke-linecap:butt;stroke-linejoin:miter;stroke-opacity:1" />
    <path
       d="m 478.86797,512.46409 1.00619,-4.3848 17.176,-0.1466 -1.00618,4.38481 z"
       id="path5646"
       style="fill:none;stroke:#000000;stroke-width:1px;stroke-linecap:butt;stroke-linejoin:miter;stroke-opacity:1" />
    <path
       d="m 480.20658,506.63066 0.79134,-3.44854 17.176,-0.14659 -0.79134,3.44854 z"
       id="path5648"
       style="fill:none;stroke:#000000;stroke-width:1px;stroke-linecap:butt;stroke-linejoin:miter;stroke-opacity:1" />
    <path
       d="m 481.66222,500.2872 0.57599,-2.51007 17.17601,-0.1466 -0.57599,2.51007 z"
       id="path5650"
       style="fill:none;stroke:#000000;stroke-width:1px;stroke-linecap:butt;stroke-linejoin:miter;stroke-opacity:1" />
    <path
       d="m 294.33844,504.77524 -0.79134,3.44854 32.97577,-0.28145 -1.07404,-2.58284 1.01482,-0.85844 z"
       id="path5652"
       style="fill:none;stroke:#000000;stroke-width:1px;stroke-linecap:butt;stroke-linejoin:miter;stroke-opacity:1" />
    <path
       d="m 501.03095,572.66858 -19.76302,0.16868 23.95366,-18.43082 3.41176,-14.86789 c 0.74808,-3.26004 -0.41598,-8.24179 -10.25312,-8.15783 l -27.22154,0.23233 c -10.07616,-0.0375 -10.74106,2.88796 -12.0813,8.72853 l -1.94712,8.48523 21.94446,-0.18729 0,-3.15657 c 0,-4.12782 4.83085,-3.60368 5.56421,-2.88681 0.38134,0.37276 2.44866,3.16025 -1.25056,6.00656 l -31.826,24.48809 -2.56811,11.1914 49.46857,-0.4222 z"
       id="path3313-7"
       style="fill:none;stroke:#000000;stroke-width:1px;stroke-linecap:butt;stroke-linejoin:miter;stroke-opacity:1" />
    <g
       id="text3106"
       style="font-size:22px;font-style:oblique;font-variant:normal;font-weight:900;font-stretch:condensed;text-align:start;line-height:125%;letter-spacing:0px;word-spacing:0px;writing-mode:lr-tb;text-anchor:start;fill:#000000;fill-opacity:1;stroke:none;font-family:Helvetica Neue LT Com;-inkscape-font-specification:Helvetica Neue LT Com Heavy Oblique Condensed">
      <path
         d="m 253.03537,465.47614 6.336,0 c 0.98266,2e-5 1.75999,0.17602 2.332,0.528 0.57199,0.35202 0.96799,0.85802 1.188,1.518 0.10265,0.30802 0.17599,0.60868 0.22,0.902 0.044,0.29335 0.0513,0.65268 0.022,1.078 -0.0147,0.41068 -0.0734,0.91668 -0.176,1.518 -0.10268,0.60135 -0.24935,1.37135 -0.44,2.31 -0.11735,0.57201 -0.24935,1.16601 -0.396,1.782 -0.14668,0.60134 -0.33001,1.19534 -0.55,1.782 -0.20534,0.58667 -0.46201,1.13667 -0.77,1.65 -0.30801,0.51334 -0.67468,0.968 -1.1,1.364 -0.42534,0.396 -0.93134,0.71134 -1.518,0.946 -0.57201,0.22 -1.23934,0.33 -2.002,0.33 l -6.402,0 3.256,-15.708 m 1.782,12.54 0.902,0 c 0.27866,10e-6 0.51333,-0.066 0.704,-0.198 0.20533,-0.14666 0.37399,-0.32999 0.506,-0.55 0.14666,-0.23466 0.26399,-0.49133 0.352,-0.77 0.088,-0.29333 0.16133,-0.58666 0.22,-0.88 l 0.946,-4.576 c 0.088,-0.39599 0.14666,-0.74065 0.176,-1.034 0.0293,-0.30799 0.007,-0.55732 -0.066,-0.748 -0.0587,-0.20532 -0.18334,-0.35932 -0.374,-0.462 -0.17601,-0.10265 -0.43267,-0.15398 -0.77,-0.154 l -0.638,0 -1.958,9.372"
         id="path3130" />
      <path
         d="m 265.44818,465.47614 4.4,0 -3.256,15.708 -4.4,0 3.256,-15.708"
         id="path3132" />
      <path
         d="m 276.55406,469.34814 c 0.0733,-0.33732 0.0587,-0.63065 -0.044,-0.88 -0.10268,-0.26398 -0.34468,-0.39598 -0.726,-0.396 -0.33734,2e-5 -0.61601,0.11735 -0.836,0.352 -0.20534,0.23468 -0.34468,0.51335 -0.418,0.836 -0.10267,0.52801 -0.022,0.93868 0.242,1.232 0.26399,0.29335 0.61599,0.55001 1.056,0.77 0.43999,0.20535 0.91666,0.41801 1.43,0.638 0.52799,0.20535 0.99732,0.48401 1.408,0.836 0.41065,0.35201 0.71865,0.81401 0.924,1.386 0.20532,0.57201 0.21265,1.32734 0.022,2.266 -0.19068,0.90934 -0.46201,1.68667 -0.814,2.332 -0.35201,0.64534 -0.80668,1.17334 -1.364,1.584 -0.54268,0.41067 -1.20268,0.71134 -1.98,0.902 -0.76268,0.19067 -1.65001,0.286 -2.662,0.286 -0.85067,0 -1.58401,-0.0807 -2.2,-0.242 -0.616,-0.14666 -1.10734,-0.396 -1.474,-0.748 -0.36667,-0.36666 -0.60134,-0.84333 -0.704,-1.43 -0.10267,-0.58666 -0.066,-1.31266 0.11,-2.178 l 0.088,-0.418 4.268,0 -0.154,0.726 c -0.0733,0.38134 -0.0513,0.71134 0.066,0.99 0.11733,0.26401 0.36666,0.39601 0.748,0.396 0.41066,10e-6 0.71866,-0.14666 0.924,-0.44 0.21999,-0.29333 0.36666,-0.60866 0.44,-0.946 0.0587,-0.24933 0.0807,-0.45466 0.066,-0.616 -10e-6,-0.17599 -0.0367,-0.31533 -0.11,-0.418 -0.0587,-0.11733 -0.13934,-0.21266 -0.242,-0.286 -0.10267,-0.0733 -0.21267,-0.15399 -0.33,-0.242 -0.26401,-0.16132 -0.57201,-0.32266 -0.924,-0.484 -0.33734,-0.16132 -0.68201,-0.34466 -1.034,-0.55 -0.52801,-0.29332 -0.96801,-0.57932 -1.32,-0.858 -0.352,-0.27866 -0.616,-0.57932 -0.792,-0.902 -0.176,-0.32265 -0.27867,-0.68932 -0.308,-1.1 -0.0147,-0.42532 0.0367,-0.93132 0.154,-1.518 0.23466,-1.09998 0.56466,-1.96532 0.99,-2.596 0.43999,-0.63065 0.95333,-1.12932 1.54,-1.496 0.42533,-0.26398 0.93866,-0.49131 1.54,-0.682 0.61599,-0.19065 1.36399,-0.28598 2.244,-0.286 0.82132,2e-5 1.51065,0.0734 2.068,0.22 0.55732,0.14669 1.00465,0.35202 1.342,0.616 0.35199,0.26402 0.60132,0.57935 0.748,0.946 0.14665,0.35202 0.21999,0.74802 0.22,1.188 -10e-6,0.57202 -0.066,1.18801 -0.198,1.848 l -4.136,0 0.132,-0.638"
         id="path3134" />
      <path
         d="m 288.43647,470.00814 c 0.044,-0.17599 0.0806,-0.37399 0.11,-0.594 0.044,-0.21998 0.0513,-0.42532 0.022,-0.616 -0.0147,-0.20532 -0.0734,-0.37398 -0.176,-0.506 -0.088,-0.14665 -0.24201,-0.21998 -0.462,-0.22 -0.29335,2e-5 -0.53535,0.066 -0.726,0.198 -0.17601,0.13202 -0.34468,0.38868 -0.506,0.77 -0.14668,0.36668 -0.30068,0.89468 -0.462,1.584 -0.14668,0.68935 -0.33734,1.59135 -0.572,2.706 -0.24934,1.14401 -0.43268,2.06801 -0.55,2.772 -0.11734,0.68934 -0.17601,1.21734 -0.176,1.584 -10e-6,0.36667 0.066,0.60867 0.198,0.726 0.14666,0.11734 0.35199,0.17601 0.616,0.176 0.35199,10e-6 0.64532,-0.19799 0.88,-0.594 0.23465,-0.39599 0.45465,-1.08533 0.66,-2.068 l 0.264,-1.21 4.268,0 -0.22,0.99 c -0.19068,0.92401 -0.45468,1.74534 -0.792,2.464 -0.33735,0.70401 -0.77002,1.30534 -1.298,1.804 -0.52801,0.49867 -1.15868,0.88 -1.892,1.144 -0.71868,0.24934 -1.56201,0.374 -2.53,0.374 -0.93868,0 -1.71601,-0.088 -2.332,-0.264 -0.61601,-0.16133 -1.10001,-0.40333 -1.452,-0.726 -0.35201,-0.33733 -0.59401,-0.74066 -0.726,-1.21 -0.11734,-0.46933 -0.16867,-1.00466 -0.154,-1.606 0.0293,-0.61599 0.10999,-1.28333 0.242,-2.002 0.13199,-0.73332 0.28599,-1.51799 0.462,-2.354 0.24933,-1.21732 0.50599,-2.32465 0.77,-3.322 0.26399,-1.01198 0.64533,-1.86998 1.144,-2.574 0.51332,-0.71865 1.19532,-1.27598 2.046,-1.672 0.85065,-0.39598 1.97999,-0.59398 3.388,-0.594 1.15865,2e-5 2.05332,0.14669 2.684,0.44 0.64532,0.27869 1.09998,0.65268 1.364,1.122 0.26398,0.46935 0.38865,1.00468 0.374,1.606 -0.0147,0.58668 -0.088,1.18801 -0.22,1.804 l -0.242,1.144 -4.268,0 0.264,-1.276"
         id="path3136" />
      <path
         d="m 292.94887,473.33014 c 0.24933,-1.21732 0.506,-2.32465 0.77,-3.322 0.264,-1.01198 0.64533,-1.86998 1.144,-2.574 0.51333,-0.71865 1.19533,-1.27598 2.046,-1.672 0.85066,-0.39598 1.97999,-0.59398 3.388,-0.594 0.93866,2e-5 1.70866,0.088 2.31,0.264 0.61599,0.17602 1.09999,0.43269 1.452,0.77 0.35199,0.33735 0.58665,0.74802 0.704,1.232 0.13199,0.46935 0.18332,1.01202 0.154,1.628 -0.0147,0.60135 -0.088,1.26135 -0.22,1.98 -0.13201,0.71868 -0.27868,1.48135 -0.44,2.288 -0.26401,1.26134 -0.53534,2.39801 -0.814,3.41 -0.26401,0.99734 -0.64534,1.84801 -1.144,2.552 -0.49868,0.704 -1.17334,1.24667 -2.024,1.628 -0.83601,0.38134 -1.95801,0.572 -3.366,0.572 -0.93867,0 -1.716,-0.088 -2.332,-0.264 -0.616,-0.16133 -1.1,-0.40333 -1.452,-0.726 -0.352,-0.33733 -0.594,-0.74066 -0.726,-1.21 -0.11733,-0.46933 -0.16867,-1.00466 -0.154,-1.606 0.0293,-0.61599 0.11,-1.28333 0.242,-2.002 0.132,-0.73332 0.286,-1.51799 0.462,-2.354 m 6.776,0 c 0.23466,-1.14399 0.41066,-2.06065 0.528,-2.75 0.11733,-0.70399 0.16866,-1.23932 0.154,-1.606 -1e-5,-0.36665 -0.066,-0.60865 -0.198,-0.726 -0.11734,-0.11732 -0.29334,-0.17598 -0.528,-0.176 -0.23467,2e-5 -0.44001,0.0587 -0.616,0.176 -0.16134,0.11735 -0.32267,0.35935 -0.484,0.726 -0.16134,0.36668 -0.33001,0.90201 -0.506,1.606 -0.16134,0.68935 -0.35934,1.60601 -0.594,2.75 -0.24934,1.14401 -0.43267,2.06801 -0.55,2.772 -0.10267,0.68934 -0.154,1.21734 -0.154,1.584 0,0.36667 0.0587,0.60867 0.176,0.726 0.132,0.11734 0.31533,0.17601 0.55,0.176 0.23466,10e-6 0.43266,-0.0587 0.594,-0.176 0.17599,-0.11733 0.33733,-0.35933 0.484,-0.726 0.16133,-0.36666 0.32999,-0.89466 0.506,-1.584 0.17599,-0.70399 0.38866,-1.62799 0.638,-2.772"
         id="path3138" />
      <path
         d="m 313.51715,465.47614 4.642,0 -6.578,15.708 -5.676,0 -0.044,-15.708 4.752,0 -1.1,12.144 0.044,0 3.96,-12.144"
         id="path3140" />
      <path
         d="m 318.77756,465.47614 9.46,0 -0.748,3.564 -5.06,0 -0.506,2.42 4.73,0 -0.704,3.432 -4.73,0 -0.572,2.728 5.258,0 -0.726,3.564 -9.658,0 3.256,-15.708"
         id="path3142" />
      <path
         d="m 329.77756,465.47614 6.6,0 c 1.52532,2e-5 2.55199,0.35935 3.08,1.078 0.54265,0.70402 0.67465,1.71602 0.396,3.036 -0.26401,1.26135 -0.70401,2.17801 -1.32,2.75 -0.60135,0.57201 -1.29801,0.91668 -2.09,1.034 l 0,0.044 c 0.42532,0.0293 0.79932,0.15401 1.122,0.374 0.33732,0.20534 0.57199,0.49868 0.704,0.88 0.11732,0.35201 0.14665,0.77001 0.088,1.254 -0.0587,0.48401 -0.13201,0.96067 -0.22,1.43 l -0.286,1.298 c -0.088,0.44001 -0.14668,0.82867 -0.176,1.166 -0.0294,0.33734 -0.0294,0.56467 0,0.682 0.0587,0.23467 0.18332,0.38867 0.374,0.462 l -0.044,0.22 -4.664,0 c -0.0587,-0.088 -0.0953,-0.22 -0.11,-0.396 -10e-6,-0.176 0.007,-0.36666 0.022,-0.572 0.0293,-0.22 0.0587,-0.44 0.088,-0.66 0.044,-0.23466 0.088,-0.44733 0.132,-0.638 0.0733,-0.38133 0.13932,-0.76999 0.198,-1.166 0.0733,-0.39599 0.14666,-0.78466 0.22,-1.166 0.0733,-0.33733 0.10266,-0.60866 0.088,-0.814 -0.0147,-0.20532 -0.0587,-0.36666 -0.132,-0.484 -0.0733,-0.11732 -0.18334,-0.19066 -0.33,-0.22 -0.14668,-0.044 -0.31534,-0.066 -0.506,-0.066 l -0.814,0 -1.276,6.182 -4.4,0 3.256,-15.708 m 3.014,6.622 0.638,0 c 0.17599,10e-6 0.35932,-0.022 0.55,-0.066 0.19066,-0.0587 0.36666,-0.15399 0.528,-0.286 0.17599,-0.13199 0.32999,-0.31532 0.462,-0.55 0.14666,-0.24932 0.26399,-0.56465 0.352,-0.946 0.13199,-0.64532 0.0733,-1.07065 -0.176,-1.276 -0.24934,-0.21998 -0.62334,-0.32998 -1.122,-0.33 l -0.506,0 -0.726,3.454"
         id="path3144" />
      <path
         d="m 348.46965,465.47614 4.774,0 -5.94,9.526 -1.276,6.182 -4.4,0 1.276,-6.182 -1.98,-9.526 4.884,0 0.11,5.478 0.044,0 2.508,-5.478"
         id="path3146" />
    </g>
  </g>
</svg>
