<?xml version="1.0" encoding="UTF-8" standalone="no"?>
<!-- Created with Inkscape (http://www.inkscape.org/) -->

<svg
   xmlns:dc="http://purl.org/dc/elements/1.1/"
   xmlns:cc="http://creativecommons.org/ns#"
   xmlns:rdf="http://www.w3.org/1999/02/22-rdf-syntax-ns#"
   xmlns:svg="http://www.w3.org/2000/svg"
   xmlns="http://www.w3.org/2000/svg"
   xmlns:sodipodi="http://sodipodi.sourceforge.net/DTD/sodipodi-0.dtd"
   xmlns:inkscape="http://www.inkscape.org/namespaces/inkscape"
   width="744.09448819"
   height="1052.3622047"
   id="svg2"
   version="1.1"
   inkscape:version="0.48.4 r9939"
   sodipodi:docname="keyboard_next_tab.svg">
  <sodipodi:namedview
     id="base"
     pagecolor="#ffffff"
     bordercolor="#666666"
     borderopacity="1.0"
     inkscape:pageopacity="0.0"
     inkscape:pageshadow="2"
     inkscape:zoom="5.6568542"
     inkscape:cx="339.72132"
     inkscape:cy="400.97854"
     inkscape:document-units="px"
     inkscape:current-layer="layer1"
     showgrid="false"
     showguides="true"
     inkscape:guide-bbox="true"
     inkscape:window-width="1024"
     inkscape:window-height="721"
     inkscape:window-x="-4"
     inkscape:window-y="-4"
     inkscape:window-maximized="1">
    <sodipodi:guide
       orientation="0,1"
       position="428.57143,445"
       id="guide3066" />
    <sodipodi:guide
       orientation="0,1"
       position="415.71429,362.14286"
       id="guide3068" />
    <sodipodi:guide
       orientation="1,0"
       position="416.42857,405.71429"
       id="guide3070" />
    <sodipodi:guide
       orientation="1,0"
       position="343.57143,395.71429"
       id="guide3072" />
  </sodipodi:namedview>
  <defs
     id="defs4" />
  <metadata
     id="metadata7">
    <rdf:RDF>
      <cc:Work
         rdf:about="">
        <dc:format>image/svg+xml</dc:format>
        <dc:type
           rdf:resource="http://purl.org/dc/dcmitype/StillImage" />
        <dc:title></dc:title>
      </cc:Work>
    </rdf:RDF>
  </metadata>
  <g
     inkscape:label="Layer 1"
     inkscape:groupmode="layer"
     id="layer1">
    <path
       sodipodi:nodetypes="ccccccccccccc"
       style="fill:none;stroke:#000000;stroke-width:0.56873351px;stroke-linecap:butt;stroke-linejoin:miter;stroke-opacity:1"
       d="m 343.16067,657.27582 0,11.7809 0,11.78091 c -0.66614,11.78723 -0.8737,11.78091 10.35907,11.78091 l 10.35908,0 10.35908,0 c 11.79798,1.02423 10.35907,-0.89138 10.35907,-11.78091 l 0,-11.78091 0,-11.7809 c 0.66613,-11.78723 0.8737,-11.78091 -10.35907,-11.78091 l -10.35908,0 -10.35908,0 c -11.79798,-1.02422 -10.35907,0.89138 -10.35907,11.78091 z"
       id="path3074"
       inkscape:connector-curvature="0" />
    <g
       inkscape:label="Hershey Text"
       transform="matrix(0.36192133,0,0,0.36192133,350.31934,683.37545)"
       id="g3303">
      <path
         inkscape:connector-curvature="0"
         d="M 0,-12 0,9 m -7,-21 14,0"
         style="fill:none;stroke:#000000"
         transform="translate(8,0)"
         id="path3305" />
      <path
         inkscape:connector-curvature="0"
         d="M 6,-5 6,9 M 6,-2 4,-4 2,-5 l -3,0 -2,1 -2,2 -1,3 0,2 1,3 2,2 2,1 3,0 2,-1 2,-2"
         style="fill:none;stroke:#000000"
         transform="translate(25,0)"
         id="path3307" />
      <path
         inkscape:connector-curvature="0"
         d="m -6,-12 0,21 m 0,-11 2,-2 2,-1 3,0 2,1 2,2 L 6,1 6,3 5,6 3,8 1,9 -2,9 -4,8 -6,6"
         style="fill:none;stroke:#000000"
         transform="translate(45,0)"
         id="path3309" />
    </g>
  </g>
  <g
     id="g3223"
     transform="matrix(0.34617391,0,0,0.34617391,349.53101,673.21192)"
     inkscape:label="Hershey Text">
    <path
       id="path3225"
       transform="translate(11,0)"
       d="M -7,-12 -7,9 M 7,-12 -7,2 m 5,-5 9,12"
       style="fill:none;stroke:#000000"
       inkscape:connector-curvature="0" />
    <path
       id="path3227"
       transform="translate(25,0)"
       d="m -1,-12 1,1 1,-1 -1,-1 -1,1 m 1,7 0,14"
       style="fill:none;stroke:#000000"
       inkscape:connector-curvature="0" />
    <path
       id="path3229"
       transform="translate(33,0)"
       d="M 0,-12 0,9"
       style="fill:none;stroke:#000000"
       inkscape:connector-curvature="0" />
    <path
       id="path3231"
       transform="translate(41,0)"
       d="M 0,-12 0,9"
       style="fill:none;stroke:#000000"
       inkscape:connector-curvature="0" />
  </g>
  <g
     inkscape:label="Hershey Text"
     transform="matrix(0.24726087,0,0,0.24726087,345.37477,653.43748)"
     id="g3297">
    <path
       style="fill:none;stroke:#000000"
       d="M -7,-12 -7,9 M 7,-12 -7,2 m 5,-5 9,12"
       transform="translate(11,0)"
       id="path3299"
       inkscape:connector-curvature="0" />
    <path
       style="fill:none;stroke:#000000"
       d="m -1,-12 1,1 1,-1 -1,-1 -1,1 m 1,7 0,14"
       transform="translate(25,0)"
       id="path3301"
       inkscape:connector-curvature="0" />
    <path
       style="fill:none;stroke:#000000"
       d="M 0,-12 0,9"
       transform="translate(33,0)"
       id="path3303"
       inkscape:connector-curvature="0" />
    <path
       style="fill:none;stroke:#000000"
       d="M 0,-12 0,9"
       transform="translate(41,0)"
       id="path3306"
       inkscape:connector-curvature="0" />
  </g>
  <g
     id="g3382"
     transform="matrix(0.24726087,0,0,0.24726087,345.66939,660.47179)"
     inkscape:label="Hershey Text">
    <path
       id="path3384"
       transform="translate(12,0)"
       d="M -10,-12 -5,9 M 0,-12 -5,9 M 0,-12 5,9 M 10,-12 5,9"
       style="fill:none;stroke:#000000"
       inkscape:connector-curvature="0" />
    <path
       id="path3386"
       transform="translate(28,0)"
       d="m -1,-12 1,1 1,-1 -1,-1 -1,1 m 1,7 0,14"
       style="fill:none;stroke:#000000"
       inkscape:connector-curvature="0" />
    <path
       id="path3388"
       transform="translate(41,0)"
       d="m -5,-5 0,14 m 0,-10 3,-3 2,-1 3,0 2,1 1,3 0,10"
       style="fill:none;stroke:#000000"
       inkscape:connector-curvature="0" />
    <path
       id="path3390"
       transform="translate(60,0)"
       d="M 6,-12 6,9 M 6,-2 4,-4 2,-5 l -3,0 -2,1 -2,2 -1,3 0,2 1,3 2,2 2,1 3,0 2,-1 2,-2"
       style="fill:none;stroke:#000000"
       inkscape:connector-curvature="0" />
    <path
       id="path3392"
       transform="translate(79,0)"
       d="m -1,-5 -2,1 -2,2 -1,3 0,2 1,3 2,2 2,1 L 2,9 4,8 6,6 7,3 7,1 6,-2 4,-4 2,-5 -1,-5"
       style="fill:none;stroke:#000000"
       inkscape:connector-curvature="0" />
    <path
       id="path3394"
       transform="translate(100,0)"
       d="M -8,-5 -4,9 M 0,-5 -4,9 M 0,-5 4,9 M 8,-5 4,9"
       style="fill:none;stroke:#000000"
       inkscape:connector-curvature="0" />
  </g>
</svg>
