<?xml version="1.0" encoding="UTF-8" standalone="no"?>
<!-- Created with Inkscape (http://www.inkscape.org/) -->

<svg
   xmlns:dc="http://purl.org/dc/elements/1.1/"
   xmlns:cc="http://creativecommons.org/ns#"
   xmlns:rdf="http://www.w3.org/1999/02/22-rdf-syntax-ns#"
   xmlns:svg="http://www.w3.org/2000/svg"
   xmlns="http://www.w3.org/2000/svg"
   xmlns:sodipodi="http://sodipodi.sourceforge.net/DTD/sodipodi-0.dtd"
   xmlns:inkscape="http://www.inkscape.org/namespaces/inkscape"
   sodipodi:docname="keyboard_select_all.svg"
   inkscape:version="0.48.4 r9939"
   version="1.1"
   id="svg2"
   height="1052.3622047"
   width="744.09448819">
  <sodipodi:namedview
     id="base"
     pagecolor="#ffffff"
     bordercolor="#666666"
     borderopacity="1.0"
     inkscape:pageopacity="0.0"
     inkscape:pageshadow="2"
     inkscape:zoom="3.8161767"
     inkscape:cx="330.36575"
     inkscape:cy="350.80162"
     inkscape:document-units="px"
     inkscape:current-layer="svg2"
     showgrid="false"
     inkscape:window-width="1024"
     inkscape:window-height="721"
     inkscape:window-x="-4"
     inkscape:window-y="-4"
     inkscape:window-maximized="1"
     showguides="true"
     inkscape:guide-bbox="true">
    <sodipodi:guide
       id="guide3938"
       position="347.97827,375.40147"
       orientation="1,0" />
    <sodipodi:guide
       id="guide3940"
       position="422.46563,361.68987"
       orientation="1,0" />
    <sodipodi:guide
       id="guide3942"
       position="412.45986,415.05395"
       orientation="0,1" />
    <sodipodi:guide
       id="guide3944"
       position="422.46563,333.89608"
       orientation="0,1" />
    <sodipodi:guide
       id="guide3948"
       position="411.34811,393.56008"
       orientation="0,1" />
    <sodipodi:guide
       id="guide3950"
       position="412.83045,378.73673"
       orientation="0,1" />
    <sodipodi:guide
       id="guide3952"
       position="400.23059,369.84271"
       orientation="0,1" />
    <sodipodi:guide
       id="guide3954"
       position="398.00709,355.01936"
       orientation="0,1" />
  </sodipodi:namedview>
  <defs
     id="defs4" />
  <metadata
     id="metadata7">
    <rdf:RDF>
      <cc:Work
         rdf:about="">
        <dc:format>image/svg+xml</dc:format>
        <dc:type
           rdf:resource="http://purl.org/dc/dcmitype/StillImage" />
        <dc:title />
      </cc:Work>
    </rdf:RDF>
  </metadata>
  <g
     inkscape:label="Layer 1"
     inkscape:groupmode="layer"
     id="layer1" />
  <g
     inkscape:label="Hershey Text"
     transform="matrix(0.34857755,0,0,0.34857755,352.3449,689.50444)"
     id="g4216">
    <path
       d="m 7,-9 -2,-2 -3,-1 -4,0 -3,1 -2,2 0,2 1,2 1,1 2,1 6,2 L 5,0 6,1 7,3 7,6 5,8 2,9 -2,9 -5,8 -7,6"
       style="fill:none;stroke:#000000"
       transform="translate(10,0)"
       id="path4218"
       inkscape:connector-curvature="0" />
    <path
       d="M -6,1 6,1 6,-1 5,-3 4,-4 2,-5 l -3,0 -2,1 -2,2 -1,3 0,2 1,3 2,2 2,1 3,0 2,-1 2,-2"
       style="fill:none;stroke:#000000"
       transform="translate(29,0)"
       id="path4220"
       inkscape:connector-curvature="0" />
    <path
       d="M 0,-12 0,9"
       style="fill:none;stroke:#000000"
       transform="translate(42,0)"
       id="path4222"
       inkscape:connector-curvature="0" />
    <path
       d="M -6,1 6,1 6,-1 5,-3 4,-4 2,-5 l -3,0 -2,1 -2,2 -1,3 0,2 1,3 2,2 2,1 3,0 2,-1 2,-2"
       style="fill:none;stroke:#000000"
       transform="translate(55,0)"
       id="path4224"
       inkscape:connector-curvature="0" />
    <path
       d="m 6,-2 -2,-2 -2,-1 -3,0 -2,1 -2,2 -1,3 0,2 1,3 2,2 2,1 3,0 2,-1 2,-2"
       style="fill:none;stroke:#000000"
       transform="translate(73,0)"
       id="path4226"
       inkscape:connector-curvature="0" />
    <path
       d="M 0,-12 0,5 1,8 3,9 5,9 m -8,-14 7,0"
       style="fill:none;stroke:#000000"
       transform="translate(87,0)"
       id="path4228"
       inkscape:connector-curvature="0" />
  </g>
  <g
     id="g4284"
     transform="matrix(0.39151582,0,0,0.39151582,353.73688,703.32519)"
     inkscape:label="Hershey Text">
    <path
       id="path4286"
       transform="translate(9,0)"
       style="fill:none;stroke:#000000"
       d="M 0,-12 -8,9 M 0,-12 8,9 M -5,2 5,2"
       inkscape:connector-curvature="0" />
    <path
       id="path4288"
       transform="translate(22,0)"
       style="fill:none;stroke:#000000"
       d="M 0,-12 0,9"
       inkscape:connector-curvature="0" />
    <path
       id="path4290"
       transform="translate(30,0)"
       style="fill:none;stroke:#000000"
       d="M 0,-12 0,9"
       inkscape:connector-curvature="0" />
  </g>
  <path
     style="fill:none;stroke:#000000;stroke-width:0.56326896px;stroke-linecap:butt;stroke-linejoin:miter;stroke-opacity:1"
     d="m 347.7599,672.97076 41.95642,0 0,45.71371 -41.95642,0 z"
     id="path4326"
     inkscape:connector-curvature="0" />
</svg>
