<?xml version="1.0" encoding="UTF-8" standalone="no"?>
<!-- Created with Inkscape (http://www.inkscape.org/) -->

<svg
   xmlns:dc="http://purl.org/dc/elements/1.1/"
   xmlns:cc="http://creativecommons.org/ns#"
   xmlns:rdf="http://www.w3.org/1999/02/22-rdf-syntax-ns#"
   xmlns:svg="http://www.w3.org/2000/svg"
   xmlns="http://www.w3.org/2000/svg"
   xmlns:sodipodi="http://sodipodi.sourceforge.net/DTD/sodipodi-0.dtd"
   xmlns:inkscape="http://www.inkscape.org/namespaces/inkscape"
   width="744.09448819"
   height="1052.3622047"
   id="svg2"
   version="1.1"
   inkscape:version="0.48.4 r9939"
   sodipodi:docname="keyboard_kill_tab.svg">
  <sodipodi:namedview
     id="base"
     pagecolor="#ffffff"
     bordercolor="#666666"
     borderopacity="1.0"
     inkscape:pageopacity="0.0"
     inkscape:pageshadow="2"
     inkscape:zoom="4"
     inkscape:cx="349.94655"
     inkscape:cy="393.45314"
     inkscape:document-units="px"
     inkscape:current-layer="svg2"
     showgrid="false"
     showguides="true"
     inkscape:guide-bbox="true"
     inkscape:window-width="1024"
     inkscape:window-height="721"
     inkscape:window-x="-4"
     inkscape:window-y="-4"
     inkscape:window-maximized="1">
    <sodipodi:guide
       orientation="0,1"
       position="428.57143,445"
       id="guide3066" />
    <sodipodi:guide
       orientation="0,1"
       position="415.71429,362.14286"
       id="guide3068" />
    <sodipodi:guide
       orientation="1,0"
       position="416.42857,405.71429"
       id="guide3070" />
    <sodipodi:guide
       orientation="1,0"
       position="343.57143,395.71429"
       id="guide3072" />
  </sodipodi:namedview>
  <defs
     id="defs4" />
  <metadata
     id="metadata7">
    <rdf:RDF>
      <cc:Work
         rdf:about="">
        <dc:format>image/svg+xml</dc:format>
        <dc:type
           rdf:resource="http://purl.org/dc/dcmitype/StillImage" />
        <dc:title></dc:title>
      </cc:Work>
    </rdf:RDF>
  </metadata>
  <g
     inkscape:label="Layer 1"
     inkscape:groupmode="layer"
     id="layer1">
    <path
       sodipodi:nodetypes="ccccccccccccc"
       style="fill:none;stroke:#000000;stroke-width:0.56873351px;stroke-linecap:butt;stroke-linejoin:miter;stroke-opacity:1"
       d="m 343.16067,657.27582 0,11.7809 0,11.78091 c -0.66614,11.78723 -0.8737,11.78091 10.35907,11.78091 l 10.35908,0 10.35908,0 c 11.79798,1.02423 10.35907,-0.89138 10.35907,-11.78091 l 0,-11.78091 0,-11.7809 c 0.66613,-11.78723 0.8737,-11.78091 -10.35907,-11.78091 l -10.35908,0 -10.35908,0 c -11.79798,-1.02422 -10.35907,0.89138 -10.35907,11.78091 z"
       id="path3074"
       inkscape:connector-curvature="0" />
    <g
       id="g3247"
       transform="matrix(0.25851523,0,0,0.25851523,345.77497,660.51574)"
       inkscape:label="Hershey Text">
      <path
         inkscape:connector-curvature="0"
         id="path3249"
         transform="translate(8,0)"
         style="fill:none;stroke:#000000"
         d="M 0,-12 0,9 m -7,-21 14,0" />
      <path
         inkscape:connector-curvature="0"
         id="path3251"
         transform="translate(25,0)"
         style="fill:none;stroke:#000000"
         d="M 6,-5 6,9 M 6,-2 4,-4 2,-5 l -3,0 -2,1 -2,2 -1,3 0,2 1,3 2,2 2,1 3,0 2,-1 2,-2" />
      <path
         inkscape:connector-curvature="0"
         id="path3253"
         transform="translate(45,0)"
         style="fill:none;stroke:#000000"
         d="m -6,-12 0,21 m 0,-11 2,-2 2,-1 3,0 2,1 2,2 L 6,1 6,3 5,6 3,8 1,9 -2,9 -4,8 -6,6" />
    </g>
    <g
       inkscape:label="Hershey Text"
       transform="matrix(0.36192133,0,0,0.36192133,350.31934,683.37545)"
       id="g3303">
      <path
         inkscape:connector-curvature="0"
         d="M 0,-12 0,9 m -7,-21 14,0"
         style="fill:none;stroke:#000000"
         transform="translate(8,0)"
         id="path3305" />
      <path
         inkscape:connector-curvature="0"
         d="M 6,-5 6,9 M 6,-2 4,-4 2,-5 l -3,0 -2,1 -2,2 -1,3 0,2 1,3 2,2 2,1 3,0 2,-1 2,-2"
         style="fill:none;stroke:#000000"
         transform="translate(25,0)"
         id="path3307" />
      <path
         inkscape:connector-curvature="0"
         d="m -6,-12 0,21 m 0,-11 2,-2 2,-1 3,0 2,1 2,2 L 6,1 6,3 5,6 3,8 1,9 -2,9 -4,8 -6,6"
         style="fill:none;stroke:#000000"
         transform="translate(45,0)"
         id="path3309" />
    </g>
  </g>
  <g
     inkscape:label="Hershey Text"
     transform="matrix(0.24577413,0,0,0.24577413,345.41606,653.5337)"
     id="g3467">
    <path
       style="fill:none;stroke:#000000"
       d="m -7,-12 0,21 m 0,-21 9,0 3,1 1,1 1,2 0,2 -1,2 -1,1 -3,1 -9,0 m 7,0 7,11"
       transform="translate(11,0)"
       id="path3469"
       inkscape:connector-curvature="0" />
    <path
       style="fill:none;stroke:#000000"
       d="M -6,1 6,1 6,-1 5,-3 4,-4 2,-5 l -3,0 -2,1 -2,2 -1,3 0,2 1,3 2,2 2,1 3,0 2,-1 2,-2"
       transform="translate(30,0)"
       id="path3471"
       inkscape:connector-curvature="0" />
    <path
       style="fill:none;stroke:#000000"
       d="m -1,-5 -2,1 -2,2 -1,3 0,2 1,3 2,2 2,1 L 2,9 4,8 6,6 7,3 7,1 6,-2 4,-4 2,-5 -1,-5"
       transform="translate(48,0)"
       id="path3473"
       inkscape:connector-curvature="0" />
    <path
       style="fill:none;stroke:#000000"
       d="m -6,-5 0,21 m 0,-18 2,-2 2,-1 3,0 2,1 2,2 L 6,1 6,3 5,6 3,8 1,9 -2,9 -4,8 -6,6"
       transform="translate(68,0)"
       id="path3475"
       inkscape:connector-curvature="0" />
    <path
       style="fill:none;stroke:#000000"
       d="M -6,1 6,1 6,-1 5,-3 4,-4 2,-5 l -3,0 -2,1 -2,2 -1,3 0,2 1,3 2,2 2,1 3,0 2,-1 2,-2"
       transform="translate(86,0)"
       id="path3477"
       inkscape:connector-curvature="0" />
    <path
       style="fill:none;stroke:#000000"
       d="m -5,-5 0,14 m 0,-10 3,-3 2,-1 3,0 2,1 1,3 0,10"
       transform="translate(104,0)"
       id="path3479"
       inkscape:connector-curvature="0" />
  </g>
  <g
     id="g3549"
     transform="matrix(0.3619005,0,0,0.3619005,349.32967,673.13311)"
     inkscape:label="Hershey Text">
    <path
       id="path3551"
       transform="translate(11,0)"
       d="M -7,-12 -7,9 M -7,-12 7,9 M 7,-12 7,9"
       style="fill:none;stroke:#000000"
       inkscape:connector-curvature="0" />
    <path
       id="path3553"
       transform="translate(31,0)"
       d="M -6,1 6,1 6,-1 5,-3 4,-4 2,-5 l -3,0 -2,1 -2,2 -1,3 0,2 1,3 2,2 2,1 3,0 2,-1 2,-2"
       style="fill:none;stroke:#000000"
       inkscape:connector-curvature="0" />
    <path
       id="path3555"
       transform="translate(51,0)"
       d="M -8,-5 -4,9 M 0,-5 -4,9 M 0,-5 4,9 M 8,-5 4,9"
       style="fill:none;stroke:#000000"
       inkscape:connector-curvature="0" />
  </g>
</svg>
